<svg xmlns="http://www.w3.org/2000/svg" width="27.339" height="27.339" viewBox="746.306 546.319 27.339 27.339"><g data-name="Group 178863"><g data-name="Group 177490"><path d="M757.323 571.042a11.368 11.368 0 1 1 .097.023z" fill="#a8d04c" fill-rule="evenodd" data-name="Ellipse 763"/></g><g data-name="Group 177493"><g data-name="Group 177492"><path d="M767.35 554.741s-.207.738-.283.666a8.281 8.281 0 0 0-.223-.223 8.554 8.554 0 0 0-.221-.222 8.673 8.673 0 0 0-.223-.222 8.346 8.346 0 0 0-.224-.223 8.177 8.177 0 0 0-.221-.222 8.172 8.172 0 0 0-5.877-2.494c-4.52 0-8.199 3.678-8.199 8.198 0 2.318.968 4.412 2.519 5.905.06.062 3.989 3.991 5.458 5.46.057 0 .112.004.168.004 6.278 0 11.368-5.09 11.368-11.368 0-.733-.07-1.45-.204-2.144l-3.837-3.115Z" fill="#b3b3b3" fill-rule="evenodd" data-name="Path 39613"/></g></g><g data-name="Group 177451"><path d="m759.762 559.15-.036 7.883a7.85 7.85 0 0 1-3.938-1.075 7.945 7.945 0 0 1-2.87-2.9 7.837 7.837 0 0 1-1.039-3.945 7.85 7.85 0 0 1 1.076-3.938l6.807 3.975Z" fill="#17c5cc" fill-rule="evenodd" data-name="Path 39565"/><path d="m759.762 559.15 3.91 6.845a7.833 7.833 0 0 1-3.946 1.038l.036-7.883Z" fill="#f94e63" fill-rule="evenodd" data-name="Path 39566"/><path d="m759.762 559.15 3.908 6.845a7.923 7.923 0 0 0 2.9-2.871l-6.808-3.974Z" fill="#f94e63" fill-rule="evenodd" data-name="Path 39567"/><path d="M767.646 559.187a7.848 7.848 0 0 1-1.075 3.937l-6.809-3.974 7.884.037Z" fill="#f4cd25" fill-rule="evenodd" data-name="Path 39568"/><path d="M755.854 552.304a7.945 7.945 0 0 0-2.9 2.87l6.808 3.976.032-.054-.063-7.828a7.843 7.843 0 0 0-3.877 1.036Z" fill="#ff6f00" fill-rule="evenodd" data-name="Path 39569"/><path d="m759.875 558.956-.034.149-.079.045.113-.194Z" fill="#f62f48" fill-rule="evenodd" data-name="Path 39570"/><path d="M766.61 555.24a7.86 7.86 0 0 1 1.035 3.948l-7.882-.038.077-.046.036-.148-.084.141-.063-7.828c.025-.003.048-.002.072-.002a7.89 7.89 0 0 1 1.744.203c.78.183 1.518.481 2.191.872a7.948 7.948 0 0 1 2.873 2.898Z" fill="#16405e" fill-rule="evenodd" data-name="Path 39571"/></g></g></svg>