<svg xmlns="http://www.w3.org/2000/svg" width="74" height="62" viewBox="1203 308 74 62"><g data-name="Group 178832"><path d="M1218 308h44a15 15 0 0 1 15 15v32a15 15 0 0 1-15 15h-44a15 15 0 0 1-15-15v-32a15 15 0 0 1 15-15z" fill="#efefef" fill-rule="evenodd" data-name="Rectangle 161047"/><g data-name="camera"><g data-name="Group 172848"><g data-name="Group 172847"><path d="M1232.37 340.407a7.534 7.534 0 1 1 0 .1z" fill-rule="evenodd" data-name="Ellipse 184"/><path d="M1254.973 328.452h-4.779a2.248 2.248 0 0 1-1.598-.662l-2.755-2.755a3.743 3.743 0 0 0-2.664-1.103h-6.544a3.743 3.743 0 0 0-2.664 1.103l-2.755 2.755a2.248 2.248 0 0 1-1.599.662h-4.779a3.017 3.017 0 0 0-3.013 3.014v19.589a3.017 3.017 0 0 0 3.013 3.013h30.137a3.017 3.017 0 0 0 3.014-3.013v-19.59a3.017 3.017 0 0 0-3.014-3.013Zm-15.068 21.096c-4.986 0-9.041-4.056-9.041-9.041 0-4.986 4.055-9.041 9.04-9.041 4.986 0 9.042 4.055 9.042 9.04 0 4.986-4.056 9.042-9.041 9.042Zm12.055-13.562c-.831 0-1.507-.676-1.507-1.506 0-.831.676-1.507 1.507-1.507.83 0 1.506.676 1.506 1.507 0 .83-.676 1.506-1.506 1.506Z" fill-rule="evenodd" data-name="Path 763"/></g></g></g><g data-name="plus"><path d="M1239.905 335.453a5.174 5.174 0 0 0-5.169 5.169 5.174 5.174 0 0 0 5.169 5.168 5.174 5.174 0 0 0 5.168-5.168 5.174 5.174 0 0 0-5.168-5.169Zm0 0" fill="#1d9098" fill-rule="evenodd" data-name="Path 764"/><path d="M1242.166 341.052h-1.83v1.83a.43.43 0 0 1-.862 0v-1.83h-1.83a.43.43 0 0 1 0-.861h1.83v-1.83a.43.43 0 0 1 .861 0v1.83h1.831a.43.43 0 0 1 0 .861Zm0 0" fill="#fafafa" fill-rule="evenodd" data-name="Path 765"/></g></g></svg>