<svg xmlns="http://www.w3.org/2000/svg" width="25.21" height="20.168" viewBox="0 0 25.21 20.168">
  <path id="_8665372_comments_icon" data-name="8665372_comments_icon" d="M16.384,6.933C16.384,3.1,12.717,0,8.191,0S0,3.1,0,6.933A6.241,6.241,0,0,0,1.64,11.084,10.758,10.758,0,0,1,.08,13.356a.3.3,0,0,0-.057.329.3.3,0,0,0,.277.18,8.177,8.177,0,0,0,3.771-.947,9.33,9.33,0,0,0,4.12.947C12.717,13.865,16.384,10.761,16.384,6.933Zm7.232,10.545a6.545,6.545,0,0,0,1.591-4.242c0-3.829-3.388-6.933-7.563-6.933l-.037,0c.017.207.037.416.037.629,0,3.885-3.139,7.137-7.33,7.976a7.433,7.433,0,0,0,7.33,5.259A8.068,8.068,0,0,0,21.3,19.3a8.125,8.125,0,0,0,3.6.866.3.3,0,0,0,.277-.181.3.3,0,0,0-.057-.329A11.009,11.009,0,0,1,23.616,17.477Z" transform="translate(0.002)"/>
</svg>
