<svg xmlns="http://www.w3.org/2000/svg" width="649.429" height="598.5" viewBox="0 424 649.429 598.5"><g data-name="Group 178911"><g data-name="Group 178881"><g data-name="Group 178880"><path d="M45.673 729.312c-22.067-23.66-42.783-55.569-31.508-85.492 11.305-30.004 48.382-41.498 80.9-47.235 32.52-5.736 69.41-12.08 87.422-38.85 18.18-27.023 9.497-64.929 27.362-92.147 18.97-28.902 59.375-34.63 94.679-37.518 53.838-4.403 109.275-8.653 160.857 6.874 51.584 15.527 99.012 55.84 104.881 107.714 5.965 52.73-30.866 106.202-14.667 156.885 16.813 52.607 85.246 81.624 92.063 136.283 3.568 28.615-11.335 56.02-25.764 81.248-18.46 32.277-36.92 66.595-55.381 98.873H108.154c6.589-8.98.067-21.902-9.132-28.399-9.197-6.497-20.716-9.52-29.556-16.463-23.409-18.388-18.126-54.495-4.93-80.702 13.199-26.207 32.607-51.83 31.007-80.932-1.747-31.798-27.803-56.478-49.87-80.139Z" fill="#1d9098" fill-rule="evenodd" data-name="Path 41649"/><path d="M610.082 751.478c-49.447-47.616-45.676-72.954-35.526-136.392 4.955-30.957 44.319-.62 58.364 46.308 14.737 49.243 3.473 115.42-22.838 90.084Z" fill="#f3edff" fill-rule="evenodd" data-name="Path 41650"/></g></g><g data-name="Artwork 52"><path d="M448.95 992.067c6.54 11.63 96.74 36.51 97.413 2.245.562-28.86-65.02-20.266-89.08-10.138 7.175-7.015 14.05-14.259 20.638-21.463a426.34 426.34 0 0 0 18.196-21.276c14.154 9.023 101.047 11.2 94.092-21.145-5.564-25.882-58.064-8.342-83.002 6.603 8.768-11.939 16.928-24.308 24.506-37.03 10.44 9.001 103.022 5.881 93.54-26.885-7.922-27.382-66.61-.746-87.305 16.109a509.585 509.585 0 0 0 21.284-42.463c13.195 6.957 102.324-8.238 88.805-39.122-11.184-25.55-63.795 6.512-83.22 26.093a552.238 552.238 0 0 0 9.526-24.77c13.902-5.672 59.988-83.242 27.74-92.96-30.47-9.183-38.794 71.328-32.4 89.625a534.46 534.46 0 0 1-10.828 27.943c-1.133-25.72-22.467-90.745-48.236-76.384-29.02 16.176 28.964 83.045 43.939 86.399a503.824 503.824 0 0 1-20.977 41.817c1.53-26.838-11.172-90.88-37.982-80.25-30.47 12.086 16.588 84.154 31.688 91.142-9.202 15.451-19.261 30.388-30.208 44.706 5.213-22.573-2.174-96.727-31.465-87.418-32.28 10.26 13.547 90.194 26.61 93.703a445.962 445.962 0 0 1-18.664 22.075c-5.807 6.419-11.877 12.865-18.21 19.133 9.329-25.519 15.925-89.594-12.646-87.409-32.662 2.502-9.155 85.189 3.2 96.421-11.78 10.821-24.394 20.775-37.85 28.709-3.095 1.825.243 6.307 3.316 4.494 13.392-7.9 25.877-17.776 37.58-28.504Z" fill="rgba(29,144,152,0.49 )" fill-rule="evenodd" data-name="Path 41651"/></g><g data-name="Artwork 54"><g data-name="Group 178883"><g data-name="Group 178882"><path d="M311.159 1019.745a557.663 557.663 0 0 0-13.07-61.798c-5.51-20.29-12.192-40.258-19.948-59.798a569.676 569.676 0 0 0-26.527-57.337 560.684 560.684 0 0 0-32.668-53.91 556.678 556.678 0 0 0-38.43-49.759 565.83 565.83 0 0 0-5.267-5.986c-2.313-2.594 1.839-6.026 4.142-3.444a557.8 557.8 0 0 1 39.652 49.925 572.695 572.695 0 0 1 33.685 53.942 570.407 570.407 0 0 1 27.44 57.232 572.672 572.672 0 0 1 21.019 60.336 556.818 556.818 0 0 1 14.036 61.888c.438 2.623.857 5.247 1.26 7.875.523 3.421-4.798 4.272-5.324.834Z" fill="rgba(29,144,152,0.52 )" fill-rule="evenodd" data-name="Path 41652"/></g><path d="M225.51 797.317c3.954-41.165-6.942-102.144-7.92-142.673-1.077-44.724-7.327-92.806-45.135-118.733-9.862-6.763-22.443-11.806-36.391-9.939-19.6 2.623-36.714 18.647-43.358 35.152-6.644 16.506-4.892 33.31-1.725 49.058 15.471 76.912 63.698 144 134.53 187.135" fill="rgba(29,144,152,0.52 )" fill-rule="evenodd" data-name="Path 41653"/><path d="M284.944 908.895c27.14-28.455 54.431-80.335 77.4-111.18 25.345-34.035 48.67-73.582 34.69-114.902-3.647-10.778-10.394-21.849-22.244-28.554-16.648-9.42-39.223-7.382-54.009 1.09-14.782 8.472-23.268 22.041-30.043 35.645-33.089 66.438-35.166 144.555-5.794 217.901" fill="rgba(29,144,152,0.52 )" fill-rule="evenodd" data-name="Path 41654"/><path d="M305.652 968.771c-21.365-39.208-67.473-91.203-92.712-128.037-27.85-40.646-62.183-82.495-110.42-92.543-12.581-2.62-26.473-2.677-37.389 4.107-15.335 9.53-20.458 30.454-16.258 48.015 4.201 17.56 15.827 32.342 28.038 45.641 59.648 64.952 141.65 108.982 228.741 122.817" fill="rgba(29,144,152,0.52 )" fill-rule="evenodd" data-name="Path 41655"/></g></g><g data-name="Artwork 50"><path d="M321.576 1021.825c-25.764-7.078-50.76-20.449-73.708-35.05a60.815 60.815 0 0 1-4.331 2.654c-3.797 2.166-9.26 4.862-15.831 7.32-6.566 2.448-14.263 4.701-22.513 6.3-8.276 1.618-17.109 2.564-25.958 2.898-8.867.26-17.739-.1-26.092-1.186a145.827 145.827 0 0 1-12.066-2.032c-3.825-.807-7.446-1.816-10.824-2.795a125.237 125.237 0 0 1-9.193-3.18c-2.73-1.095-5.11-2.15-7.072-3.115-3.954-1.922-6.226-3.426-6.226-3.426s2.172-1.661 5.972-3.815c1.912-1.104 4.238-2.315 6.895-3.578 2.654-1.255 5.673-2.515 8.95-3.771 3.289-1.191 6.842-2.445 10.628-3.48a146.112 146.112 0 0 1 11.903-2.818c8.259-1.63 17.096-2.553 25.953-2.857 8.856-.23 17.75.129 26.09 1.224a140.303 140.303 0 0 1 22.89 4.829c3.294.995 6.32 2.067 9.026 3.134-1.713-1.166-3.427-2.316-5.132-3.482-16.44-11.206-32.104-23.384-47.133-36.266a116.85 116.85 0 0 1-2.747 1.609c-3.809 2.177-9.277 4.868-15.846 7.31-6.567 2.46-14.248 4.712-22.518 6.313-8.24 1.624-17.102 2.567-25.954 2.898-8.863.272-17.741-.077-26.077-1.183a142.095 142.095 0 0 1-12.068-2.036c-3.827-.795-7.465-1.81-10.827-2.794a126.216 126.216 0 0 1-9.184-3.164c-2.719-1.1-5.117-2.158-7.09-3.127-3.944-1.915-6.217-3.421-6.217-3.421s2.176-1.668 5.96-3.82c1.935-1.1 4.256-2.32 6.895-3.577 2.665-1.254 5.671-2.522 8.969-3.773 3.276-1.197 6.83-2.432 10.615-3.488a150.196 150.196 0 0 1 11.906-2.806c8.26-1.616 17.102-2.55 25.951-2.846 8.863-.242 17.747.112 26.086 1.2 8.351 1.073 16.18 2.81 22.896 4.844a131.104 131.104 0 0 1 9.573 3.318 602.679 602.679 0 0 1-41.202-40.78c-.944.234-2.017.502-3.258.768-4.31.896-10.33 1.814-17.326 2.164-7.004.357-15.015.182-23.374-.81-8.357-.948-17.072-2.717-25.614-5.096-8.537-2.415-16.887-5.443-24.514-9.014a138.122 138.122 0 0 1-10.867-5.587c-3.42-1.919-6.575-3.975-9.48-5.933-2.882-2.008-5.506-3.953-7.788-5.812-2.272-1.87-4.258-3.594-5.815-5.118C1.707 852.565 0 850.426 0 850.426s2.564-.923 6.849-1.839c2.153-.457 4.715-.905 7.65-1.304 2.913-.397 6.153-.698 9.665-.904 3.497-.127 7.274-.242 11.184-.092 3.921.135 8.011.431 12.201.908 8.355.965 17.068 2.75 25.591 5.146 8.529 2.441 16.865 5.477 24.502 9.054a141.546 141.546 0 0 1 19.974 11.284 700.6 700.6 0 0 1-30.34-38.2 113.28 113.28 0 0 1-12.108-8.794c-5.391-4.512-11.143-10.073-16.616-16.465-5.527-6.377-10.706-13.58-15.37-21.121-4.63-7.553-8.717-15.443-11.909-23.25-1.607-3.887-2.999-7.733-4.197-11.468-1.199-3.72-2.113-7.392-2.939-10.8a123.639 123.639 0 0 1-1.775-9.55c-.411-2.921-.687-5.506-.803-7.707-.31-4.367-.096-7.096-.096-7.096s2.503 1.064 6.271 3.3a95.218 95.218 0 0 1 6.505 4.222 114.828 114.828 0 0 1 7.715 5.91c2.676 2.268 5.513 4.733 8.295 7.506a150.442 150.442 0 0 1 8.322 8.936c5.507 6.369 10.685 13.597 15.35 21.142 4.575 7.574 8.656 15.48 11.855 23.269 3.217 7.793 5.56 15.44 7.127 22.278 1.566 6.839 2.326 12.873 2.618 17.254.1 1.486.134 2.755.151 3.825 15.68 20.878 32.528 40.911 50.55 59.771a118.042 118.042 0 0 1-4.56-14.5c-1.66-6.822-2.985-14.72-3.611-23.113-.639-8.4-.522-17.282.181-26.109.78-8.834 2.172-17.603 4.246-25.762 1.028-4.107 2.172-8.035 3.441-11.748 1.25-3.71 2.671-7.196 4.039-10.423a134.975 134.975 0 0 1 4.249-8.736c1.41-2.59 2.736-4.84 3.939-6.691 2.348-3.685 4.11-5.749 4.11-5.749s1.404 2.336 3.096 6.37c.879 2.03 1.799 4.472 2.748 7.263a138.72 138.72 0 0 1 2.687 9.325c.782 3.414 1.613 7.093 2.206 10.979.6 3.861 1.087 7.936 1.397 12.13.64 8.408.525 17.298-.22 26.123-.804 8.839-2.224 17.603-4.283 25.767-2.026 8.16-4.693 15.723-7.503 22.162-2.8 6.425-5.776 11.738-8.145 15.415a55.006 55.006 0 0 1-2.234 3.28c18.327 18.643 37.795 36.084 58.532 51.938-.339-.755-.714-1.596-1.121-2.547-1.696-4.043-3.709-9.78-5.38-16.593-1.675-6.819-2.991-14.707-3.624-23.1-.632-8.394-.538-17.281.187-26.13.774-8.83 2.174-17.604 4.246-25.776a140.188 140.188 0 0 1 3.44-11.714c1.249-3.706 2.677-7.197 4.04-10.428 1.423-3.22 2.844-6.158 4.25-8.737 1.398-2.583 2.718-4.839 3.927-6.697 2.356-3.664 4.13-5.75 4.13-5.75s1.393 2.336 3.092 6.378c.861 2.02 1.784 4.465 2.733 7.262a123.46 123.46 0 0 1 2.684 9.34c.817 3.4 1.64 7.088 2.204 10.952.62 3.876 1.104 7.952 1.405 12.155.625 8.388.52 17.269-.231 26.107-.784 8.831-2.205 17.612-4.261 25.78-2.043 8.161-4.697 15.718-7.504 22.142-2.81 6.43-5.78 11.725-8.149 15.424a74.9 74.9 0 0 1-2.914 4.253c7.971 6.017 16.118 11.812 24.471 17.32 10.235 6.77 20.917 13.539 31.944 19.791a59.28 59.28 0 0 1-1.54-3.442c-1.717-4.05-3.738-9.775-5.376-16.59-1.699-6.813-3.024-14.721-3.628-23.097-.65-8.42-.555-17.292.187-26.136.762-8.83 2.152-17.589 4.212-25.753 1.015-4.1 2.19-8.04 3.465-11.75 1.238-3.702 2.674-7.2 4.034-10.424 1.413-3.197 2.85-6.147 4.25-8.736 1.41-2.584 2.741-4.834 3.923-6.673 2.365-3.69 4.128-5.762 4.128-5.762s1.39 2.338 3.11 6.375c.845 2.02 1.783 4.474 2.717 7.257.941 2.798 1.837 5.926 2.706 9.338.791 3.399 1.622 7.106 2.18 10.962.62 3.877 1.11 7.943 1.414 12.143.628 8.407.511 17.28-.221 26.12-.814 8.827-2.2 17.593-4.277 25.78-2.032 8.163-4.7 15.7-7.492 22.135-2.819 6.438-5.79 11.723-8.172 15.428a62.987 62.987 0 0 1-2.966 4.323c16.187 9 33.124 16.776 50.56 21.562 3.72 1.041 1.98 6.797-1.744 5.771Z" fill="rgba(29,144,152,0.68 )" fill-rule="evenodd" data-name="Path 41656"/></g><g data-name="phone-call"><g data-name="Group 178885"><g data-name="Group 178884"><path d="M434.268 490.898c-7.177 0-12.994 5.818-12.994 12.994a4.331 4.331 0 0 1-8.661 0c0-11.96 9.695-21.656 21.655-21.656a4.331 4.331 0 0 1 0 8.662Z" fill="#a8d04c" fill-rule="evenodd" data-name="Path 41657"/><path d="M434.268 473.575c-16.744 0-30.317 13.573-30.317 30.317a4.332 4.332 0 0 1-8.663 0c0-21.529 17.452-38.979 38.98-38.979a4.331 4.331 0 0 1 0 8.662Z" fill="#a8d04c" fill-rule="evenodd" data-name="Path 41658"/><path d="M396.371 525.157a4.332 4.332 0 0 1 3.12-2.816l25.984-5.934a4.335 4.335 0 0 1 3.986 1.126c.605.563.649.607 3.463 5.977a42.915 42.915 0 0 0 21.093-21.178c-5.5-2.773-5.545-2.773-6.108-3.422a4.332 4.332 0 0 1-1.125-3.984l5.933-25.682a4.332 4.332 0 0 1 2.816-3.119 16.375 16.375 0 0 1 3.117-.779c1.096-.254 2.212-.4 3.335-.433 11.003 0 19.923 8.919 19.923 19.921-.047 36.817-29.881 66.65-66.697 66.698-11.003 0-19.923-8.92-19.923-19.923a20.667 20.667 0 0 1 .26-3.291c.182-1.076.457-2.134.823-3.161Z" fill="#454975" fill-rule="evenodd" data-name="Path 41659"/></g></g></g><g data-name="talk chat"><g data-name="Group 178893"><g data-name="Group 178887"><path d="M184.155 503.05h53.213c11.028 0 20.051-9.023 20.051-20.051 0-11.028-9.023-20.051-20.051-20.051h-53.213c-11.03 0-20.052 9.023-20.052 20.051 0 11.028 9.022 20.051 20.052 20.051Z" fill="#454975" fill-rule="evenodd" data-name="Path 41660"/><g data-name="Group 178886"><path d="M179.15 509.212a4.43 4.43 0 1 0 8.862 0 4.43 4.43 0 0 0-8.861 0Z" fill="#454975" fill-rule="evenodd" data-name="Path 41661"/></g></g><g data-name="Group 178888"><path d="M222.395 482.456a5.815 5.815 0 1 0 11.63 0 5.815 5.815 0 0 0-11.63 0Z" fill="#fff" fill-rule="evenodd" data-name="Path 41662"/><path d="M204.946 482.456a5.815 5.815 0 1 0 11.628 0 5.815 5.815 0 0 0-11.628 0Z" fill="#fff" fill-rule="evenodd" data-name="Path 41663"/><path d="M187.499 482.456a5.815 5.815 0 1 0 11.63 0 5.815 5.815 0 0 0-11.63 0Z" fill="#fff" fill-rule="evenodd" data-name="Path 41664"/></g><g data-name="Group 178892"><g data-name="Group 178890"><path d="M261.721 549.639h-53.215c-11.028 0-20.05-9.024-20.05-20.052s9.022-20.051 20.05-20.051h53.215c11.028 0 20.051 9.023 20.051 20.051 0 11.028-9.023 20.052-20.05 20.052Z" fill="#a8d04c" fill-rule="evenodd" data-name="Path 41665"/><g data-name="Group 178889"><path d="M266.725 555.8a4.431 4.431 0 1 1-8.862 0 4.431 4.431 0 0 1 8.862 0Z" fill="#a8d04c" fill-rule="evenodd" data-name="Path 41666"/></g></g><g data-name="Group 178891"><path d="M246.748 529.229a5.815 5.815 0 1 0 11.63 0 5.815 5.815 0 0 0-11.63 0Z" fill="#fff" fill-rule="evenodd" data-name="Path 41667"/><path d="M229.3 529.229a5.815 5.815 0 1 0 11.63 0 5.815 5.815 0 0 0-11.63 0Z" fill="#fff" fill-rule="evenodd" data-name="Path 41668"/><path d="M211.852 529.229a5.815 5.815 0 1 0 11.63 0 5.815 5.815 0 0 0-11.63 0Z" fill="#fff" fill-rule="evenodd" data-name="Path 41669"/></g></g></g></g><path d="M340.071 669.308c1.842 4.753 4.935 8.57 8.571 11.037 4.638 3.192 10.182 4.212 15.199 2.27 8.934-3.454 12.767-15.035 8.57-25.842-4.177-10.809-14.821-16.763-23.754-13.309-.048.017-.098.034-.146.067-8.835 3.536-12.602 15.035-8.44 25.777Z" fill="#a6afe2" fill-rule="evenodd" data-name="Path 41670"/><g data-name="Character man"><g data-name="Group 178895"><g data-name="Group 178894"><path d="M559.061 653.174c-9.348 14.249-36.568 55.656-51.839 78.098 11.578 21.666 35.82 33.65 35.82 33.65s12.534-33.538 19.133-51.689c6.601-18.15 11.716-32.284 11.516-41.566-.027-1.281-1.08-1.711-1.793-1.858l.997-1.807a4.403 4.403 0 0 0-1.91-6.078c-1.433-.705-3.056-.52-4.32.296l1.85-2.991a5.615 5.615 0 0 0-1.413-7.447c-2.592-1.938-6.264-1.313-8.04 1.392Z" fill="#ffb8b8" fill-rule="evenodd" data-name="Path 41671"/></g><path d="M550.37 710.745c-.287-11.267-10.378-20.172-14.243-22.654l-1.342 2.093c4.942 3.172 12.871 11.578 13.1 20.624l2.484-.063Z" fill="#f18b8b" fill-rule="evenodd" data-name="Path 41672"/><path d="m553.019 687.809-1.075-.627 14.574-24.993 1.075.627-14.574 24.993z" fill="#f18b8b" fill-rule="evenodd" data-name="Rectangle 163353"/><path d="m561.321 694.627-1.12-.537 11.582-24.132 1.12.537-11.582 24.132z" fill="#f18b8b" fill-rule="evenodd" data-name="Rectangle 163354"/></g><g data-name="Group 178901"><g data-name="Group 178900"><g data-name="Group 178899"><g data-name="Group 178896"><path d="m304.024 690.066-.057.949-.554 29.085-1.415 73.862 88.425-23.775-42.593-28.023.43-11.122 1.443-38.633c.514-12.545-9.202-23.164-21.74-23.797-12.58-.596-23.194 9.043-23.939 21.454Z" fill="#ffb8b8" fill-rule="evenodd" data-name="Path 41673"/><path d="m304.024 690.066-.057.949-.554 29.085c4.573 2.456 9.326 4.567 14.09 6.48 7.671 3.077 14.485 5.23 22.774 5.252 2.659.001 5.437-.03 7.982-.79l1.444-38.633c.514-12.545-9.202-23.164-21.74-23.797-12.58-.596-23.194 9.043-23.939 21.454Z" fill="#f18b8b" fill-rule="evenodd" data-name="Path 41674"/><path d="M285.19 674.933c6.547 15.864 11.492 22.032 16.872 20.331 15.504 26.558 36.843 36.566 55.877 31.399 15.442-4.15 14.65-26.652 10.319-47.026a222.023 222.023 0 0 0-3.43-13.575c-2.007-6.904-5.326-16.386-9.965-27.018 12.231-37.907-24.482-46.217-48.711-18.592-1.293-.95-2.677-1.668-4.124-2.033-6.398-1.81-13.585 2.954-18.968 20.603-11.084 12.149-4.456 20.043 2.13 35.91Z" fill="#454975" fill-rule="evenodd" data-name="Path 41675"/><path d="M293.833 638.002c2.008-3.727 5.736-8.344 12.319-17.55-1.293-.95-2.677-1.668-4.124-2.033-3.175 5.96-7.697 15.249-8.195 19.583Z" fill="#3b3e63" fill-rule="evenodd" data-name="Path 41676"/><path d="M290.259 680.394c7.432 14.965 18.943 8.238 19.978 2.23 6.02 8.77 9.931 11.028 12.611 11.308 2.682.28 10.145-4.429 13.34-5.467 3.239-1.076 19.382 3.621 32.027-8.791l.043-.037a222.025 222.025 0 0 0-3.43-13.575c-2.007-6.904-5.326-16.386-9.965-27.018-6.856-8.702-27.788-25.47-52.277 17.691 1.96 8.33 3.363 14.722 5.13 18.994-11.948-14.444-24.893-10.261-17.457 4.665Z" fill="#ffb8b8" fill-rule="evenodd" data-name="Path 41677"/><path d="M305.875 678.357a11.915 11.915 0 0 0-2.417-3.904 12.425 12.425 0 0 0-3.68-2.877c-1.409-.721-3.01-1.224-4.7-1.137-.834.022-1.71.239-2.457.723-.742.473-1.285 1.339-1.173 2.135a2.29 2.29 0 0 1 1.664-1.017c.598-.107 1.232-.036 1.857.094 1.249.281 2.474.794 3.67 1.412 1.203.608 2.372 1.34 3.551 2.124 1.197.769 2.337 1.651 3.685 2.447Z" fill="#f18b8b" fill-rule="evenodd" data-name="Path 41678"/><path d="M304.366 676.69c-.56-.687-1.401-1.155-2.282-1.37a5.61 5.61 0 0 0-2.748-.014c-.905.24-1.808.748-2.363 1.562-.58.8-.69 1.816-.468 2.659.52-1.728 1.663-2.666 3.141-3.019.725-.198 1.506-.251 2.294-.233.787.04 1.594.13 2.426.415Z" fill="#f18b8b" fill-rule="evenodd" data-name="Path 41679"/><path d="M347.622 661.39c7.42 9.708 16.226 13.817 17.334 16.41 1.108 2.592-2.731 7.67-12.311 9.41-5.667-3.59-1.08-9.472-5.023-25.82Z" fill="#f18b8b" fill-rule="evenodd" data-name="Path 41680"/><path d="M336.305 665.86a3.361 4.13 3.433 1 1 .006-.1z" fill="#454975" fill-rule="evenodd" data-name="Ellipse 919"/><path d="M353.604 663.106c.428 2.24 2.255 3.772 4.078 3.422 1.822-.35 2.952-2.448 2.524-4.687-.43-2.24-2.255-3.773-4.078-3.425-1.823.35-2.954 2.449-2.524 4.69Z" fill="#454975" fill-rule="evenodd" data-name="Path 41681"/><path d="M328.809 644.816c-6.684.19-9.85 8.095-10.862 12.39-.498 2.115.903 2.689 2.035.712 1.392-2.428 5.157-6.836 9.414-8.523 3.011-1.193 2.01-4.654-.587-4.58Z" fill="#454975" fill-rule="evenodd" data-name="Path 41682"/><path d="M347.926 641.544c5.639-2.312 10.364 1.696 12.75 5.047 1.261 1.77.321 3.528-1.585 2.285-2.346-1.53-5.044-3.422-9.603-2.988-3.225.308-3.965-3.359-1.562-4.344Z" fill="#454975" fill-rule="evenodd" data-name="Path 41683"/></g><path d="M408.781 974.222c-20.278 7.122-41.181 11.426-75.923 8.151-20.289-65.535-23.551-222.952-24.217-231.728 15.911 6.117 35.55 9.677 43.857-9.676 39.79 44.867 56.516 113.42 56.283 233.253Z" fill="#fff" fill-rule="evenodd" data-name="Path 41684"/><path d="M303.15 733.878c21.499 12.41 35.042 50.097 38.612 107.673 3.57 57.575 7.994 110.197 6.532 127.367-1.46 17.172-6.576 44.909-37.358 47.378-30.781 2.468-76.18 4.06-76.18 4.06s36.193-222.19 37.423-235.491c1.229-13.301 5.67-34.159 30.972-50.987Z" fill="#a8d04c" fill-rule="evenodd" data-name="Path 41685"/><g data-name="Group 178898"><g data-name="Group 178897"><path d="M47.195 981.783c14.165-9.475 55.33-37.06 77.636-52.527 21.768 11.385 33.966 35.52 33.966 35.52s-33.426 12.83-51.517 19.59c-18.094 6.76-32.18 12-41.463 11.882-1.284-.017-1.72-1.064-1.874-1.777l-1.797 1.014a4.404 4.404 0 0 1-6.096-1.857c-.718-1.427-.549-3.052.258-4.323l-2.975 1.877a5.615 5.615 0 0 1-7.459-1.347c-1.96-2.574-1.37-6.253 1.321-8.052Z" fill="#ffb8b8" fill-rule="evenodd" data-name="Path 41686"/><path d="m113.283 938.46-50.668 13.055a5.594 5.594 0 1 0 2.805 10.83l30.276-7.889s23.978-4.117 17.587-15.996Z" fill="#ffb8b8" fill-rule="evenodd" data-name="Path 41687"/></g><path d="M98.624 971.548c1.922.619 3.953.999 6.064 1.033l.039-2.486c-9.047-.15-17.521-8-20.738-12.913l-2.08 1.358c2.043 3.125 8.368 10.323 16.715 13.008Z" fill="#f18b8b" fill-rule="evenodd" data-name="Path 41688"/><path d="m56.91 990.228-.635-1.068 24.864-14.794.635 1.068-24.864 14.794z" fill="#f18b8b" fill-rule="evenodd" data-name="Rectangle 163355"/><path d="m64.638 995.47-.547-1.115 24.028-11.793.547 1.114-24.028 11.794z" fill="#f18b8b" fill-rule="evenodd" data-name="Rectangle 163356"/></g><path d="M303.15 733.878c-27.8 19.68-36.414 33.833-44.78 51.022-8.366 17.188-39.792 73.55-49.137 85.501-9.347 11.953-84.402 58.855-84.402 58.855l40.085 44.253s76.837-33.849 91.6-49.79c14.762-15.942 47.396-75.233 46.635-189.841Z" fill="#a8d04c" fill-rule="evenodd" data-name="Path 41689"/><path d="m348.032 737.455-.283 7.362c16.785 18.462 29.79 50.98 36.968 92.707 8.154 47.262 11.288 97.515 11.61 139.11.188 28.614 26.631 28.256 39.713 18.488-2.78-37.656-13.672-128.561-19.584-156.328-5.664-26.602-17.134-103.896-68.424-101.34Z" fill="#a8d04c" fill-rule="evenodd" data-name="Path 41690"/><path d="m348.004 737.929-.087 2.098c26.55 10.4 40.716 60.639 40.716 60.639s16.538 51.911 31.712 63.908c29.454 23.287 51.403 17.111 67.988-.5 8.758-9.302 64.034-97.52 64.034-97.52l-45.213-35.861-51.207 68.774s-43.443-31.01-59.82-43.06c-14.777-10.923-27.364-18.662-48.123-18.478Z" fill="#a8d04c" fill-rule="evenodd" data-name="Path 41691"/></g></g><path d="m269.573 908.44-2.317-.902 27.855-71.473 2.317.903-27.855 71.473z" fill="#bb4344" fill-rule="evenodd" data-name="Rectangle 163357"/><path d="m416.708 845.685-12.105-38.315 2.37-.749 12.104 38.316-2.37.748z" fill="#5f8800" fill-rule="evenodd" data-name="Rectangle 163358"/></g><g data-name="Group 178904"><g data-name="Group 178903"><g data-name="Group 178902"><path d="m554.777 681.78 46.42-46.419v39.76c0 7.69-6.235 13.925-13.925 13.925h-64.987c-7.692 0-13.926-6.234-13.926-13.926v-39.759l46.418 46.419Z" fill="#3e4169" fill-rule="evenodd" data-name="Path 41692"/><path d="M508.359 635.361v-6.66c0-7.691 6.234-13.925 13.926-13.925h64.987c7.69 0 13.926 6.234 13.926 13.926v6.66l-46.42 46.418-46.42-46.419Z" fill="#454975" fill-rule="evenodd" data-name="Path 41693"/></g><path d="M500.142 623.691a17.105 17.105 0 1 1 0 .1z" fill="#a8d04c" fill-rule="evenodd" data-name="Ellipse 920"/></g><path d="M560.101 658.202h30.483v6.807h-30.483v-6.807z" fill="#a6afe2" fill-rule="evenodd" data-name="Rectangle 163359"/></g><path d="m516.326 719.642 12.606-50.782a5.593 5.593 0 1 1 10.853 2.71l-7.62 30.345s-3.905 24.014-15.84 17.727Z" fill="#ffb8b8" fill-rule="evenodd" data-name="Path 41694"/></g><g data-name="Group 178905"><path d="M346.745 692.642c.016.081.012.162.028.243 1.848 14.68 19.338 16.175 20.63-1.749a24.34 24.34 0 0 0 .09-2.954c-4.831.18-16.448 3.137-20.748 4.46Z" fill="#f18b8b" fill-rule="evenodd" data-name="Path 41695"/><path d="M346.745 692.642c.016.081.012.162.028.243 1.98.506 4.131.817 6.415.934 5.738.29 10.918-.784 14.215-2.683a24.34 24.34 0 0 0 .09-2.954c-4.831.18-16.448 3.137-20.748 4.46Z" fill="#f3edff" fill-rule="evenodd" data-name="Path 41696"/></g><path d="M282.286 682.815c1.843 4.754 4.935 8.57 8.57 11.039 4.64 3.191 10.182 4.21 15.2 2.27 8.933-3.455 12.766-15.036 8.571-25.844-4.178-10.808-14.822-16.762-23.754-13.307a.634.634 0 0 0-.148.065c-8.834 3.537-12.6 15.036-8.44 25.777Z" fill="#a6afe2" fill-rule="evenodd" data-name="Path 41697"/><path d="M296.38 657.236c-6.815-9.583.912-28.108 9.772-36.784 0 0 3.202-3.494 4.279-4.35-1.994.032-2.722.38-4.748 1.932-2.027 1.55-28.966 17.839-18.657 42.815 0 0 8.816-1.445 9.353-3.613Z" fill="#a6afe2" fill-rule="evenodd" data-name="Path 41698"/><path d="M282.285 682.815c1.844 4.754 4.937 8.57 8.571 11.039 12.486 2.813 22.29-9.706 13.736-24.463-3.75-6.464-8.735-10.429-13.867-12.353-8.834 3.537-12.6 15.036-8.44 25.777Z" fill="#bbc3ed" fill-rule="evenodd" data-name="Path 41699"/><path d="M307.618 687.164c7.554 7.554 22.382 8.363 34.106 8.555a2.167 2.167 0 0 1 2.132 2.024 2.171 2.171 0 0 1-2.288 2.309c-17.823-.99-28.9-2.114-36.467-10.223l2.517-2.665Z" fill="#a6afe2" fill-rule="evenodd" data-name="Path 41700"/><path d="M337.073 697.7a4.588 4.588 0 1 1 0 .1z" fill="#ea5455" fill-rule="evenodd" data-name="Ellipse 921"/><path d="M469.015 544.313a16.927 16.927 0 1 1 0 .1z" fill="#dad4f8" fill-rule="evenodd" data-name="Ellipse 922"/><path d="M307.886 491.167a6.944 6.944 0 1 0 13.888 0 6.944 6.944 0 0 0-13.888 0Z" fill="#dad4f8" fill-rule="evenodd" data-name="Path 41701"/><path d="M380.138 588.953a4.96 4.96 0 1 1 0 .1z" fill="#dad4f8" fill-rule="evenodd" data-name="Ellipse 923"/><path d="M241.632 745.72a5.457 5.457 0 1 0 10.913 0 5.457 5.457 0 0 0-10.913 0Z" fill="#dad4f8" fill-rule="evenodd" data-name="Path 41702"/><g data-name="Group 178907"><g data-name="Group 178906"><path d="M214.068 847.699v105.067c0 10.38 8.405 18.802 18.801 18.802h186.446c10.38 0 18.786-8.423 18.786-18.802V847.7c0-10.38-8.406-18.803-18.786-18.803H232.869c-10.396 0-18.801 8.422-18.801 18.803Z" fill="#454975" fill-rule="evenodd" data-name="Path 41703"/><path d="M276.956 971.568h67.528l2.402-79.01H305.3l-28.344 79.01Z" fill="#393c61" fill-rule="evenodd" data-name="Path 41704"/><path d="M255.472 1004.876h35.251l14.57-112.31h41.586l14.568 112.31h35.251a5.276 5.276 0 0 1 5.277 5.277v5.187H250.197v-5.187a5.276 5.276 0 0 1 5.275-5.277Zm55.383-56.021c0 8.41 6.818 15.23 15.23 15.23s15.232-6.82 15.232-15.23v-6.359c0-8.41-6.82-15.23-15.232-15.23-8.412 0-15.23 6.82-15.23 15.23v6.359Z" fill="#a6afe2" fill-rule="evenodd" data-name="Path 41705"/></g><path d="M326.274 946.568c35.118 0 22.87 43.412 22.87 67.738" stroke-linejoin="round" stroke-linecap="round" stroke-width="2.174" stroke="#f3edff" fill="transparent" data-name="Path 41706"/></g><g data-name="Group 178910"><g data-name="Group 178908"><path d="M152.417 612.808c7.987 0 15.537.995 22.251 2.762 3.435.905 5.838 3.993 5.838 7.546v58.423c0 4.968-4.577 8.629-9.436 7.592-5.77-1.229-12.063-1.905-18.653-1.905-10.397 0-20.079 1.684-28.11 4.568v-74.417c8.031-2.884 17.713-4.569 28.11-4.569Z" fill="#454975" fill-rule="evenodd" data-name="Path 41707"/></g><g data-name="Group 178909"><path d="M96.197 612.808c10.397 0 20.079 1.685 28.11 4.569v74.417c-8.031-2.884-17.713-4.568-28.11-4.568-6.59 0-12.883.676-18.653 1.905-4.859 1.037-9.438-2.624-9.438-7.592V623.117c0-3.554 2.405-6.642 5.84-7.547 6.712-1.767 14.264-2.762 22.251-2.762Z" fill="#3e4169" fill-rule="evenodd" data-name="Path 41708"/></g></g><path d="M69.653 1022.5h533.81a3.666 3.666 0 0 0 3.654-3.654 3.665 3.665 0 0 0-3.654-3.655H69.653a3.664 3.664 0 0 0-3.655 3.655 3.665 3.665 0 0 0 3.655 3.654Z" fill="#454975" fill-rule="evenodd" data-name="Path 41709"/></g></svg>