<svg xmlns="http://www.w3.org/2000/svg" width="45.722" height="45.722" viewBox="1188 797 45.722 45.722"><g data-name="Group 178810"><path d="M1210.86 797c-12.605 0-22.86 10.255-22.86 22.86 0 12.607 10.255 22.862 22.86 22.862 12.607 0 22.862-10.255 22.862-22.861S1223.467 797 1210.86 797Zm0 0" fill="#f89c2a" fill-rule="evenodd" data-name="Path 40261"/><path d="M1220.908 821.812h-8.096v8.096a1.905 1.905 0 0 1-3.81 0v-8.096h-8.097a1.905 1.905 0 0 1 0-3.81h8.097v-8.097a1.905 1.905 0 0 1 3.81 0v8.097h8.096a1.905 1.905 0 0 1 0 3.81Zm0 0" fill="#fafafa" fill-rule="evenodd" data-name="Path 40262"/></g></svg>