<svg xmlns="http://www.w3.org/2000/svg" width="302.347" height="298.158" viewBox="532 816.95 302.347 298.158"><g data-name="Group 178604"><path d="M576.278 1089.543c-59.037-34.085-59.037-89.348 0-123.432 59.036-34.085 154.754-34.085 213.79 0 59.038 34.084 59.038 89.347 0 123.432-59.036 34.086-154.754 34.086-213.79 0Z" fill="#f5f5f5" fill-rule="evenodd" data-name="Floor"/><g data-name="Shadow"><path d="M577.14 1064.307a46.382 26.779 0 1 1 0 .1z" fill="#e0e0e0" fill-rule="evenodd" data-name="Shadow"/><path d="M656.805 1054.245a66.168 32.926-28.337 1 1 .048.088z" fill="#e0e0e0" fill-rule="evenodd" data-name="Shadow"/></g><g data-name="Plants"><g data-name="Plants"><g data-name="Group 178584"><path d="M762.735 1013.874c6.432-7.667 16.507-12.663 27.836-15.61 11.185-2.91 13.19-9.793 5.776-12.026-8.405-2.532-18.893 2.121-25.654 8.59-11.786 11.276-13.262 19.906-13.262 19.906l5.304-.86Z" fill="#27debf" fill-rule="evenodd" data-name="Path 39862"/><path d="M762.735 1013.874c6.432-7.667 16.507-12.663 27.836-15.61 11.185-2.91 13.19-9.793 5.776-12.026-8.405-2.532-18.893 2.121-25.654 8.59-11.786 11.276-13.262 19.906-13.262 19.906l5.304-.86Z" fill-rule="evenodd" data-name="Path 39863"/><g data-name="Group 178583"><path d="M759.422 1013.427a.326.326 0 0 1-.294-.47c9.547-19.586 30.671-24.405 35.807-24.042.18.013.315.17.301.35a.333.333 0 0 1-.35.302c-5.013-.385-25.772 4.392-35.17 23.676a.326.326 0 0 1-.294.184Z" fill="#fff" fill-rule="evenodd" data-name="Path 39864"/></g></g><g data-name="Group 178586"><path d="M757.43 1015.912c0 1.385 1.5 2.225 2.697 1.527 5.98-3.482 14.705-5.405 28.824-1.388 7.506 2.135 11.2.707 12.784-2.35 1.759-3.396-1.967-6.677-6.206-8.225-14.449-5.28-27.49-1.675-38.1 8.858v1.578Z" fill="#27debf" fill-rule="evenodd" data-name="Path 39865"/><g data-name="Group 178585"><path d="M758.252 1016.192a.326.326 0 0 1-.218-.57c12.474-11.15 31.803-8.98 39.118-4.63a.327.327 0 0 1-.334.56c-7.166-4.26-26.112-6.381-38.349 4.557a.325.325 0 0 1-.217.083Z" fill="#fff" fill-rule="evenodd" data-name="Path 39866"/></g></g></g><g data-name="Plants"><g data-name="Group 178588"><path d="M617.825 1041.913c-5.483-8.373-14.898-14.524-25.8-18.787-10.764-4.209-11.943-11.28-4.317-12.623 8.645-1.522 18.51 4.336 24.462 11.558 10.373 12.587 10.82 21.331 10.82 21.331l-5.165-1.48Z" fill="#27debf" fill-rule="evenodd" data-name="Path 39867"/><path d="M617.825 1041.913c-5.483-8.373-14.898-14.524-25.8-18.787-10.764-4.209-11.943-11.28-4.317-12.623 8.645-1.522 18.51 4.336 24.462 11.558 10.373 12.587 10.82 21.331 10.82 21.331l-5.165-1.48Z" fill-rule="evenodd" data-name="Path 39868"/><g data-name="Group 178587"><path d="M621.167 1041.859a.326.326 0 0 0 .347-.43c-7.169-20.578-27.577-27.855-32.72-28.1a.327.327 0 0 0-.34.312.333.333 0 0 0 .312.34c5.024.21 25.073 7.402 32.132 27.66.042.123.15.204.269.218Z" fill="#fff" fill-rule="evenodd" data-name="Path 39869"/></g></g><g data-name="Group 178590"><path d="M623.039 1042.995c-.24 2.019-2.524 3.067-4.213 1.934-5.535-3.708-13.782-6.113-27.29-3.948-7.706 1.235-11.207-.619-12.419-3.843-1.345-3.578 2.741-6.397 7.134-7.435 14.97-3.538 27.495 1.58 36.788 13.292Z" fill="#27debf" fill-rule="evenodd" data-name="Path 39870"/><g data-name="Group 178589"><path d="M622.003 1044.743a.326.326 0 0 0 .284-.54c-11.072-12.545-30.522-12.67-38.299-9.213a.326.326 0 1 0 .266.596c7.618-3.386 26.682-3.257 37.544 9.049.054.063.128.1.205.108Z" fill="#fff" fill-rule="evenodd" data-name="Path 39871"/></g></g></g></g><g data-name="Check mark"><g data-name="Check Mark"><g data-name="Circle"><path d="m768.592 892.727.002-.005-.103-.052-.011-.006-24.89-14.328-.023-.012-.146-.074-.002.006c-11.627-5.866-27.142-4.107-43.828 6.683-33.524 21.678-59.07 71.574-57.057 111.445 1.002 19.874 8.665 33.501 20.248 39.492l-.003.004.103.053.013.006 24.894 14.331.01.006.123.062.003-.005c11.63 5.884 27.157 4.13 43.858-6.67 33.523-21.677 59.069-71.573 57.057-111.444-1.003-19.874-8.665-33.502-20.248-39.492Z" fill="#37474f" fill-rule="evenodd" data-name="Path 39872"/><path d="m686.942 1049.817-24.04-13.88-.018.001-.113-.067c-11.576-6.006-19.235-19.634-20.236-39.48-.898-17.782 3.697-37.547 12.01-55.903l.168-.402 24.731 14.729c-8.333 18.356-12.909 38.12-12.012 55.902.982 19.448 8.341 32.91 19.51 39.1Z" fill="#263238" fill-rule="evenodd" data-name="Path 39873"/><path d="M731.783 1043.663c33.523-21.677 59.068-71.573 57.057-111.444-2.012-39.872-30.819-54.62-64.343-32.942-33.524 21.677-59.069 71.573-57.057 111.444 2.012 39.872 30.82 54.62 64.343 32.942Z" fill="#455a64" fill-rule="evenodd" data-name="Path 39874"/></g><path d="m760.173 889.634-42.015 86.54-9.043-9.8a14.862 14.862 0 0 0-10.91-4.77c-3.749 0-7.333 1.398-10.096 3.938-6.013 5.556-6.387 14.977-.834 21.001l23.823 25.807a14.784 14.784 0 0 0 10.94 4.778c.71 0 1.43-.052 2.153-.155a14.845 14.845 0 0 0 11.197-8.212l48.186-99.252c-4.92-11.005-13.151-17.849-23.4-19.875Z" fill="#37474f" fill-rule="evenodd" data-name="Shadow"/><g data-name="Group 178591"><path d="M794.294 861.126a12.82 12.82 0 0 0-.807-.427c-6.415-3.102-14.155-.426-17.251 5.968L722.77 976.792l-3.036-3.291a12.67 12.67 0 0 0-3.031-2.42c-1.595-.915-8.372-4.84-9.469-5.473-4.751-2.742-10.952-2.226-15.219 1.698-5.22 4.824-5.545 13.004-.724 18.234l23.823 25.807a12.802 12.802 0 0 0 3.075 2.446c1.556.885 8.309 4.8 9.414 5.441a12.864 12.864 0 0 0 5.775 1.716c.851.045 1.706.01 2.584-.115a12.894 12.894 0 0 0 9.723-7.13l63.251-130.28c2.97-6.132.653-13.476-5.15-16.819-.265-.153-7.803-4.508-9.492-5.48Z" fill="#27debf" fill-rule="evenodd" data-name="Path 39875"/><path d="M794.294 861.126a12.82 12.82 0 0 0-.807-.427c-6.415-3.102-14.155-.426-17.251 5.968L722.77 976.792l-3.036-3.291a12.67 12.67 0 0 0-3.031-2.42c-1.595-.915-8.372-4.84-9.469-5.473-4.751-2.742-10.952-2.226-15.219 1.698-5.22 4.824-5.545 13.004-.724 18.234l23.823 25.807a12.802 12.802 0 0 0 3.075 2.446c1.556.885 8.309 4.8 9.414 5.441a12.864 12.864 0 0 0 5.775 1.716c.851.045 1.706.01 2.584-.115a12.894 12.894 0 0 0 9.723-7.13l63.251-130.28c2.97-6.132.653-13.476-5.15-16.819-.265-.153-7.803-4.508-9.492-5.48Z" fill-rule="evenodd" data-name="Path 39876"/><path d="M727.6 1019.233c-1.1-.639-7.855-4.554-9.412-5.442a12.893 12.893 0 0 1-3.077-2.444l-23.823-25.806a12.931 12.931 0 0 1-2.462-3.922l9.473 5.467a12.701 12.701 0 0 0 2.475 3.928l23.823 25.805c.888.96 1.897 1.77 3.004 2.414Z" fill-rule="evenodd" data-name="Path 39877"/><path d="M788.71 868.17a12.786 12.786 0 0 0-2.993 3.97l-54.99 113.274-7.954-8.622 53.465-110.123a12.638 12.638 0 0 1 2.998-3.97l9.473 5.471Z" fill-rule="evenodd" data-name="Path 39878"/><path d="M802.97 866.174c-6.416-3.102-14.155-.427-17.251 5.968l-54.993 113.27-10.992-11.911c-4.803-5.217-12.984-5.549-18.236-.72-5.22 4.823-5.546 13.003-.724 18.233l23.823 25.808a12.834 12.834 0 0 0 8.781 4.128c.851.045 1.706.01 2.584-.115a12.894 12.894 0 0 0 9.723-7.13l63.251-130.28c3.106-6.411.43-14.15-5.967-17.251Z" fill="#27debf" fill-rule="evenodd" data-name="Check"/></g></g></g><g data-name="Character"><g data-name="Group 178592"><path d="M622.599 878.895c-4.98 0-8.391 1.297-11.929 6.335-3.244 4.622-12.17 20.03-12.17 20.03s-6.51-13.394-7.186-16.066c-.676-2.672-.616-3.859.027-5.019.792-1.428 1.498-2.68 1.65-4.593.251-3.209 1.039-5.958.318-6.049-1.994-.114-2.07 2.443-3.116 3.956-.373.54-1.594.618-2.006-.22-.44-.894-.203-2.362-.417-3.42.095-.914.178-1.21.282-1.746.562.13 1.378.146 2.285.064.86 1.352 1.452 1.922 2.653 1.373.158-.254-.516-1.989-1.296-3.238a.931.931 0 0 0-.537-.411c-1.206-.333-2.575-.415-4.428-.122-.219.035-.444.132-.567.316a10.85 10.85 0 0 0-1.275 2.591c-.088.278-.346.271-.41.03-.637-3.153-.646-7.63-.646-9.73 0-1.65-2.414-1.908-2.498.454-.086 2.42-.15 6.901.163 9.515.037.285-.285.422-.402.11-.42-1.121-1.445-4.493-1.874-10.318-.116-1.564-2.65-1.823-2.63.38.051 6.033 1.45 11.595 1.45 11.595.074.276-.176.518-.368.205-.842-1.378-2.167-4.8-2.837-7.155-.538-1.889-3.063-1.41-2.622.946.793 4.226 2.046 9.572 3.915 13.388 1.997 4.082 3.727 6.124 4.716 9.331.99 3.207 5.102 21.366 9.494 28.444 3.442 5.545 7.38 5.036 11.615 2.11 4.234-2.925 19.378-24.024 19.378-24.024l1.268-19.062Z" fill="#9e6767" fill-rule="evenodd" data-name="Path 39879"/><path d="M598.5 905.26s2.124 3.602 2.446 6.479c0 0 1.026-4.12-1.496-8.11l-.95 1.631Z" fill="#874c4c" fill-rule="evenodd" data-name="Path 39880"/><path d="M623.657 878.912c-2.534-.26-5.683-.348-9.202 1.863-3.518 2.211-4.739 5.299-6.441 7.994-1.703 2.696-7.597 12.25-7.597 12.25s2.162 9.07 10.758 10.94l12.869-17.463-.387-15.584Z" fill="#455a64" fill-rule="evenodd" data-name="Path 39881"/></g><g data-name="Group 178596"><g data-name="Group 178593"><path d="M635.198 1038.369c.627-.08 1.517 2.143 1.53 2.87.013.725-.715 2.285-1.678 3.746-.964 1.462-2.298 3.271-3.164 5.633-.738 2.011-1.42 3.331-3.473 5.964-2.288 2.934-7.652 7.84-15.803 5.704-1.99-.522-2.985-1.15-3.706-1.873-.607-.61-.896-1.6-.57-2.494l26.864-19.55Z" fill="#263238" fill-rule="evenodd" data-name="Path 39882"/><path d="M619.189 1035.825a1.329 1.329 0 0 0-.018.07c-.141.599-.022 1.225.054 1.835a12.896 12.896 0 0 1-.821 6.358 12.9 12.9 0 0 1-2.27 3.693c-.973 1.111-2.566 2.286-3.808 3.079-4.13 2.636-4.574 4.397-3.991 7.06 1.38 3.101 10.741 4.989 16.122.369 2.103-1.805 3.698-3.391 5.122-6.964 1-2.513 1.75-3.936 2.714-5.746 1.043-1.956 3.016-4.166 3.074-6.185.031-1.109-1.067-3.172-2.133-4.871-.979-1.56-1.988-3.042-2.868-2.869l.242.882c-.733.763-1.798 1.047-2.441 1.942-.794 1.104-.765 2.588-1.259 3.855-.047.121-.114.255-.24.293-.133.04-.277-.052-.343-.175-.065-.124-.07-.268-.076-.408l-.057-1.9c-.011-.363-.034-.758-.275-1.03-.51-.575-1.765-.507-2.462-.535-.957-.04-1.867.11-2.813.169-.352.022-.616 0-.916.241-.26.21-.447.516-.537.837Z" fill="#37474f" fill-rule="evenodd" data-name="Path 39883"/></g><g data-name="Group 178594"><path d="M605.356 997.865c2.175 7.148 12.34 31.899 12.95 33.388.612 1.49 2.023 4.913 2.023 4.913s1.66.683 4.128.171c.213 2.372.57 6.088.713 7.964.046 2.174.236 4.86-.232 7.009-.4 1.83-.86 3.748-1.205 5.583-.153.812-.306 1.625-.428 2.442-.13.864-.213 1.798.205 2.565.196.359.49.656.806.916 1.409 1.159 3.304 1.652 5.122 1.504.962-.079 1.93-.337 2.715-.9 1.58-1.132 2.136-3.097 2.94-4.768.872-1.812.589-2.011.663-3.952.052-1.358.429-4.807.972-8.41.544-3.602 2.881-16.27 4.003-28.893.777-8.74 0-16.844 0-16.844 8.92-24.233 12.89-38.639 14.057-46.687 1.185-8.176.617-11.084.467-15.79l-43.373 1.044c-3.488 22.418-9.445 49.157-6.526 58.745Zm21.187-38.447Z" fill="#9e6767" fill-rule="evenodd" data-name="Path 39884"/><path d="M604.678 979.97c.894-8.24 7.057-39.914 7.057-39.914h43.697s.277 6.08.198 8.872c-.08 2.792-.975 7.9-2.54 14.353-1.565 6.453-7.343 24.737-8.46 27.436-1.116 2.699-3.28 10.494-3.28 10.494 1.072 14.654-1.714 27.804-3.804 45.28 0 0-.605 2.36-6.798 1.893-6.017-.454-7.232-2.672-7.232-2.672l-.403-15.08s-3.291 1.009-5.222.546c0 0-12.934-31.93-13.56-33.853-.625-1.924-.546-9.115.347-17.354Z" fill="#27debf" fill-rule="evenodd" data-name="Path 39885"/><path d="M604.678 979.97c.894-8.24 7.057-39.914 7.057-39.914h43.697s.277 6.08.198 8.872c-.08 2.792-.975 7.9-2.54 14.353-1.565 6.453-7.343 24.737-8.46 27.436-1.116 2.699-3.28 10.494-3.28 10.494 1.072 14.654-1.714 27.804-3.804 45.28 0 0-.605 2.36-6.798 1.893-6.017-.454-7.232-2.672-7.232-2.672l-.403-15.08s-3.291 1.009-5.222.546c0 0-12.934-31.93-13.56-33.853-.625-1.924-.546-9.115.347-17.354Z" fill-rule="evenodd" data-name="Path 39886"/><path d="M623.211 960.704c-6.187-5.58-7.563-10.018-7.563-10.018 4.612 5.443 10.895 8.732 10.895 8.732s-5.874 31.027-5.447 37.407c.427 6.38 2.017 33.806 2.017 33.806.012.263-4.166-29.006-4.284-31.345-.312-6.161 4.382-38.582 4.382-38.582Z" fill-rule="evenodd" data-name="Path 39887"/></g><g data-name="Group 178595"><path d="M636.831 1062.03c.61.173.533 1.99.259 2.664-.275.674-1.36 1.962-2.824 2.927-1.463.966-2.824 2.318-4.143 4.464-.938 1.525-3.302 4.426-6.498 6.341-3.195 1.917-7.918 2.586-11.427 1.59-4.1-1.165-4.481-2.169-4.443-3.716l29.076-14.27Z" fill="#263238" fill-rule="evenodd" data-name="Path 39888"/><path d="M624.148 1052.535c-1.075 5.249-2.949 9.058-7.296 12.288-3.456 2.568-5.967 3.873-8.724 6.169-1.175.978-1.273 3.062-.373 5.308 1.864 1.497 4.514 2.353 8.076 2.348 3.979-.006 5.51-.708 7.794-2.271 1.315-.9 2.225-1.723 3.12-2.62 1.911-1.919 3.244-4.287 4.624-5.808 1.38-1.521 4.365-3.074 5.214-4.91.466-1.008.268-3.34-.044-5.325-.287-1.82.272-5.02-.607-5.206.019.004-.12 1.303-.12 1.303-.072.296-.256.446-.872.658-.411.143-1.251.122-1.68.05-.503-.084-.79-.076-1.124.318-.59.695-.746 1.671-1.501 2.245a.467.467 0 0 1-.175.093c-.065.014-.14 0-.183-.052-.047-.058-.04-.14-.032-.214l.218-1.952c.021-.196.044-.396.016-.591-.051-.363-.327-.674-.631-.858-.532-.324-1.156-.562-1.754-.73a10.852 10.852 0 0 0-1.946-.33c-.66-.06-1.35-.074-2 .087Z" fill="#455a64" fill-rule="evenodd" data-name="Path 39889"/></g></g><path d="M651.483 880.775s1.8 2.473 3.242 7.559c0 0 2.743 11.63 2.743 25.412 0 11.533-1.556 30.228-1.556 30.228-13.389 6.712-34.989 2.743-44.494-3.802.385-2.079.711-12.994 1.458-20.196.507-12.355.923-18.829 1.01-24.325.175-10.983 5.642-16.655 9.77-16.74l10.486.165 17.341 1.699Z" fill="#f89c2a" fill-rule="evenodd" data-name="Path 39890"/><g data-name="Group 178597"><path d="M654.788 940.584c-1.99 1.639-5.9 4.788-6.615 6.374-.819 1.817-1.327 4.55-1.86 5.606-.532 1.056.285 1.55 1.431 1.18 1.147-.368 1.838-1.348 2.724-3.723.885-2.376 3.354-4.236 3.354-4.236l.966-5.2Z" fill="#874c4c" fill-rule="evenodd" data-name="Path 39891"/><path d="M647.518 961.96c.474.918 1.588.922 2.62 1.006 1.466.118 2.294.015 3.7-.422 1.406-.436 2.718-1.269 3.56-2.477 1.006-1.443 1.261-3.261 1.835-4.925 1.207-3.496 4.786-6.013 5.368-9.716.24-1.53.243-3.33.677-4.28.255-.558 6.138-10.687 8.236-15.075 2.016-4.216 3.523-6.2 1.696-11.27-1.828-5.07-8.054-22.899-12.457-29.094-2.5-3.515-6.463-4.516-11.27-4.932-3.655 9.526.6 19.363.6 19.363l9.671 18.658s-3.76 12.85-6.11 19.995c-.653 1.985-1.972 3.21-3.455 5.411-.644.955-2.125 2.629-2.652 3.653-.677 1.32-.66 2.166-.978 4.013-.506 2.946-1.268 9.653-1.041 10.091Z" fill="#9e6767" fill-rule="evenodd" data-name="Path 39892"/><path d="M650.968 880.724c2.526.102 6.157.529 8.329 1.625 2.17 1.096 3.672 2.451 6.171 7.45 2.5 5 6.139 14.718 6.139 14.718s-1.209 7.33-12.801 9.234l-7.838-14.449s-3.492-9.002 0-18.578Z" fill="#455a64" fill-rule="evenodd" data-name="Path 39893"/></g><g data-name="Group 178602"><g data-name="Group 178599"><g data-name="Group 178598"><path d="M620.847 857.387c.378.551.588 1.303.887 1.906.419.848.84 1.706 1.464 2.426 1.503 1.73 3.617 3 5.537 4.224 1.168.745 2.498 1.445 3.924 1.24 1.447-.207 3.011.107 4.485.239l5.137.46-.29 5.402s.637-1.432 1.508-3.14c.747-1.469 3.868-8.923 3.88-8.951 1.545-3.694 3.383-8.615 1.532-12.496-.437-.915-1.084-1.769-2.01-2.303.187-.712.246-1.208.17-1.839-.248-2.089-1.31-3.282-2.727-4.325-1.418-1.043-3.132-1.602-4.846-1.996a30.79 30.79 0 0 0-7.012-.78c-2.345.009-4.579.402-6.88.79-1.268.214-2.547.386-3.834.4-.54.007-1.14.042-1.66-.079-.674-.157-1.35-.488-2.002-.723-.116-.042-.247-.083-.358-.029-.112.055-.16.187-.193.308-.413 1.51.106 3.474 1.067 4.71-.393-.05-.696-.183-.85-.247-.317-.132-.591-.315-.881-.496-.521-.325-.84-.703-1.24-1.182-.055-.066-.118-.137-.203-.152-.13-.023-.24.09-.317.196-.745 1.016-.93 2.374-.68 3.608.252 1.235.905 2.359 1.7 3.336-.854 1.268-.867 2.993-.232 4.382a5.895 5.895 0 0 0 1.154 1.66c.585.6 1.28 1.091 1.897 1.65.63.572 1.387 1.093 1.873 1.801Z" fill="#37474f" fill-rule="evenodd" data-name="Path 39894"/><path d="M636.495 848.391c.015 1.44.218 2.445.37 2.888.304.885.81 1.47 1.458 2.147.664.695 1.486 1.247 2.022 2.044.731 1.087.983 2.489 1.137 3.76.093.774.33 1.617.993 2.027 1.397.863 2.234-.811 2.979-1.633.961-.89 3.81-1.972 5.128 1.057 1.366 3.136-1.15 7.289-3.444 7.928-3.953 1.101-4.81-1.588-4.81-1.588l-.757 14.103c-2.233 4.226-7.469 5.568-10.909 4.896-2.97-.58-4.603-2.662-1.81-5.682l.152-4.295s-3.563.423-5.284.1c-2.862-.539-4.283-2.972-5.054-6.114-1.24-5.049-1.806-10.354-.273-21.72.704-.387 3.528 1.814 7.804 2.109 4.247.293 8.167-.848 10.298-2.027Z" fill="#9e6767" fill-rule="evenodd" data-name="Path 39895"/></g><path d="M629.004 876.043s6.464-1.085 8.749-2.206c1.528-.75 2.811-2.095 3.204-2.97 0 0-.483 1.892-1.881 3.564-1.71 2.047-10.128 3.32-10.128 3.32l.056-1.708Z" fill="#874c4c" fill-rule="evenodd" data-name="Path 39896"/></g><g data-name="Group 178601"><path d="m632.342 853.413 3.01.921c.234-.858-.25-1.76-1.08-2.014-.832-.255-1.696.235-1.93 1.093Z" fill="#263238" fill-rule="evenodd" data-name="Path 39897"/><path d="m631.296 867.699-4.43 1.5c.392 1.27 1.702 1.961 2.926 1.547 1.223-.414 1.896-1.778 1.504-3.047Z" fill="#874c4c" fill-rule="evenodd" data-name="Path 39898"/><path d="M630.938 868.784a2.607 2.607 0 0 0-2.526 1.981c.436.134.913.14 1.38-.019.859-.29 1.437-1.053 1.575-1.92a2.58 2.58 0 0 0-.429-.042Z" fill="#f28f8f" fill-rule="evenodd" data-name="Path 39899"/><path d="m618.907 853.919 3.057-.403a1.488 1.488 0 0 0-1.693-1.304c-.844.111-1.455.875-1.364 1.707Z" fill="#263238" fill-rule="evenodd" data-name="Path 39900"/><path d="m637.73 855.223 10.098 3.46s-1.582-.127-2.91 1.478l-7.152-2.716-.036-2.222Z" fill="#263238" fill-rule="evenodd" data-name="Path 39901"/><path d="M620.41 859.163c-.022.692.5 1.269 1.166 1.288.667.02 1.225-.525 1.248-1.217.022-.692-.5-1.27-1.166-1.29-.667-.02-1.225.526-1.248 1.219Z" fill="#263238" fill-rule="evenodd" data-name="Path 39902"/><path d="M631.95 859.168c-.022.693.5 1.27 1.166 1.29.666.02 1.225-.526 1.248-1.218.022-.692-.5-1.27-1.166-1.29-.667-.019-1.225.526-1.248 1.218Z" fill="#263238" fill-rule="evenodd" data-name="Path 39903"/><g data-name="Group 178600"><path d="M614.454 855.956c.045.614.436 1.184.637 1.423.107.126.204.292.256.508.236.97.437 2.81.898 3.844.462 1.032 1.426 2.67 4.138 2.732.527.013.994-.03 1.408-.119.036-.006.071-.015.106-.023a4.044 4.044 0 0 0 1.145-.45l.068-.043c.033-.02.065-.04.097-.062.03-.018.057-.038.124-.085a3.421 3.421 0 0 0 .356-.292c.078-.072.15-.146.221-.225.401-.435.69-.946.92-1.46.597-1.345.442-3.226 1.424-3.443a1.144 1.144 0 0 1 .245-.023c1.335.02 1.186 2.068 1.933 3.53.746 1.465 1.981 2.893 4.877 2.933.13.003.255 0 .375-.002a5.96 5.96 0 0 0 .298-.02c.249-.019.482-.054.698-.1.075-.016.148-.032.219-.05.07-.018.142-.04.209-.06.044-.012.088-.027.132-.042a3.946 3.946 0 0 0 1.047-.546c.166-.122.312-.251.454-.397.434-.452.696-.952.877-1.36.45-1.014.568-2.854.791-3.81.06-.256.139-.433.222-.555.187-.278.634-.76.652-1.374.017-.615-.416-1.15-.807-1.207a30.393 30.393 0 0 0-.71-.094c-2.285-.277-5.265-.4-7.048.084-2.235.612-3.01 1.327-4.256 1.31-1.166-.028-1.922-.77-4.04-1.462-1.688-.55-4.474-.533-6.601-.338-.228.02-.448.043-.66.069-.363.043-.75.595-.705 1.209Zm14.703 1.398c.118-.174.34-.353.636-.52.037-.023.074-.044.115-.064a4.142 4.142 0 0 1 .378-.182 8.395 8.395 0 0 1 1.625-.508 8.874 8.874 0 0 1 1.212-.172c2.151-.175 3.494.332 3.983.773.506.458.277 2.446.072 3.456l-.015.075-.016.077a8.171 8.171 0 0 1-.162.661c-.002.005-.002.008-.004.01a5.182 5.182 0 0 1-.345.87 2.644 2.644 0 0 1-.158.276c-.028.048-.06.096-.094.144-.534.772-1.437 1.423-3.008 1.418-1.553-.003-2.543-.537-3.177-1.21l-.002-.001c-.629-.672-.908-1.48-1.041-2.04-.265-1.132-.419-2.45.001-3.063Zm-12.658-1.053a1.854 1.854 0 0 1 .568-.35c.07-.034.148-.064.232-.093.045-.015.094-.032.142-.045.038-.011.08-.024.119-.033.026-.009.054-.015.079-.021a.158.158 0 0 1 .03-.007l.117-.028c.153-.034.319-.06.495-.081.087-.012.176-.021.27-.027.051-.005.106-.007.161-.01.042-.004.083-.005.125-.007.11-.002.225-.004.342-.003l.127.002.118.004c.307.012.638.043.992.093 1.535.222 3.137.933 3.555 1.564.418.63.324 1.941.124 3.064-.04.222-.1.48-.194.753-.005.018-.014.038-.02.058l-.028.077-.019.05a3.922 3.922 0 0 1-.294.598l-.058.093-.009.015c-.534.817-1.487 1.523-3.195 1.46-.644-.022-1.176-.166-1.61-.387-1.526-.775-1.915-2.49-2.096-3.284-.23-1.017-.528-3.017-.073-3.455Z" fill="#263238" fill-rule="evenodd" data-name="Path 39904"/></g><path d="m626.866 858.31-.229 8.394-4.684-1.352 4.366-7.11c.203-.021.382.008.547.068Z" fill="#874c4c" fill-rule="evenodd" data-name="Path 39905"/></g></g></g><g data-name="Speech bubble"><g data-name="Speech Bubble"><g data-name="Speech Bubble"><path d="M668.135 838.09a24.192 21.19 0 1 1 0 .1z" fill="#27debf" fill-rule="evenodd" data-name="Ellipse 767"/><path d="M673.017 850.44c-.133 2.843-2.536 7.922-6.882 9.77-.273.115-.241.51.05.57 2.374.495 8.711 1.092 13.386-5.07l-6.554-5.27Z" fill="#27debf" fill-rule="evenodd" data-name="Path 39906"/></g><g data-name="Group 178603"><path d="M675.925 836.508a7.72 7.72 0 0 1 .625-2.689 6.426 6.426 0 0 1 1.554-2.19c.67-.62 1.485-1.112 2.445-1.478.96-.365 2.068-.548 3.325-.548 1.239 0 2.344.183 3.311.548.968.366 1.787.858 2.459 1.478.67.62 1.188 1.35 1.554 2.19.365.841.572 1.737.624 2.689a50.346 50.346 0 0 1 0 4.534 7.742 7.742 0 0 1-.624 2.687 6.587 6.587 0 0 1-1.554 2.204c-.672.629-1.491 1.12-2.459 1.478-.967.356-2.072.535-3.311.535-1.257 0-2.365-.179-3.325-.535-.96-.357-1.775-.85-2.445-1.478a6.56 6.56 0 0 1-1.554-2.204 7.712 7.712 0 0 1-.625-2.687 45.361 45.361 0 0 1-.05-2.243c0-.797.016-1.561.05-2.291Zm11.184 4.407c.016-.306.033-.646.05-1.02a26.152 26.152 0 0 0 0-2.28 120.53 120.53 0 0 0-.05-.98 3.988 3.988 0 0 0-.267-1.172 2.8 2.8 0 0 0-.612-.93 2.829 2.829 0 0 0-.981-.624c-.39-.153-.85-.23-1.375-.23-.527 0-.986.077-1.376.23-.39.153-.718.361-.981.623a2.766 2.766 0 0 0-.61.93 3.908 3.908 0 0 0-.269 1.172c-.034.29-.055.616-.064.982a46.824 46.824 0 0 0 0 2.28c.009.373.03.713.064 1.019.068.849.36 1.554.879 2.114.518.56 1.303.84 2.357.84 1.052 0 1.834-.28 2.344-.84.509-.56.805-1.265.891-2.114Z" fill="#fafafa" fill-rule="evenodd" data-name="Path 39907"/><path d="M709.91 846.85c.05.068.076.161.076.28a.539.539 0 0 1-.166.395.54.54 0 0 1-.394.165h-4.052c-.237 0-.433-.05-.585-.152a2.148 2.148 0 0 1-.459-.433l-4.815-6.063v5.96a.66.66 0 0 1-.204.485.659.659 0 0 1-.484.203h-3.337a.66.66 0 0 1-.484-.203.66.66 0 0 1-.203-.484v-16.457c0-.186.067-.348.203-.484a.664.664 0 0 1 .484-.204h3.337c.187 0 .348.069.484.204a.66.66 0 0 1 .204.484v5.375l4.484-5.503c.085-.102.195-.22.331-.356.136-.135.365-.204.688-.204h3.974c.153 0 .284.056.395.166.11.11.165.242.165.394 0 .12-.025.213-.076.281l-6.292 7.693 6.726 8.458Z" fill="#fafafa" fill-rule="evenodd" data-name="Path 39908"/></g></g></g><g data-name="Icons"><g data-name="Like icon"><path d="m754.745 858.22-3.658 1.102-2.649-8.83 3.654-1.102 2.653 8.83Z" fill="#e0e0e0" fill-rule="evenodd" data-name="Path 39909"/><path d="M766.183 850.377c.142.474-.327 1.494-1.038 1.709 0 0 .341.36.513.934.21.684-.348 1.604-1.448 1.931l-8.377 2.521-2.465-8.203h-.006s1.422-3.629 1.491-4.175c.083-.537-.767-2.558-.881-2.938-.093-.31 1.24-.873 2.312-.44.248.1.482.25.684.472.42.46.734.91.96 1.377.362.718.51 1.466.51 2.316l5.062-1.523c.422-.127.791-.09 1.083.034.452.186.741.572.835.886.233.74-.198 1.308-.43 1.529 0 0 1.079-.089 1.384.93.171.57-.112 1.325-.835 1.696 0 0 .434.235.646.944Z" fill="#e0e0e0" fill-rule="evenodd" data-name="Path 39910"/></g><g data-name="Like icon"><path d="m807.234 949.821-4.694-1.128 2.736-11.323 4.688 1.125-2.73 11.326Z" fill="#e0e0e0" fill-rule="evenodd" data-name="Path 39911"/><path d="M824.71 948.548c-.146.607-1.308 1.422-2.22 1.204 0 0 .142.61-.036 1.347-.206.88-1.401 1.527-2.81 1.184-1.403-.339-10.747-2.586-10.747-2.586l2.536-10.52-.006-.005s3.862-3.054 4.286-3.605c.432-.533.792-3.28.91-3.769.096-.397 1.909-.162 2.804.994.205.268.366.58.445.95.165.77.22 1.462.17 2.114-.062 1.016-.377 1.926-.917 2.852l6.492 1.563c.542.131.921.406 1.16.727.375.491.444 1.097.347 1.5-.217.955-1.05 1.3-1.444 1.393 0 0 1.234.59.919 1.897-.176.732-.966 1.374-1.992 1.32 0 0 .323.531.104 1.44Z" fill="#e0e0e0" fill-rule="evenodd" data-name="Path 39912"/></g><g data-name="Like icon"><path d="m570.1 943.046 5.124 1.543 3.708-12.367-5.116-1.542-3.716 12.366Z" fill="#e0e0e0" fill-rule="evenodd" data-name="Path 39913"/><path d="M554.083 932.062c-.198.664.458 2.092 1.454 2.393 0 0-.478.505-.72 1.31-.294.957.488 2.245 2.029 2.703l11.731 3.53 3.452-11.487h.008s-1.99-5.082-2.088-5.846c-.116-.753 1.075-3.583 1.234-4.116.13-.434-1.736-1.221-3.239-.616a2.615 2.615 0 0 0-.957.662c-.588.643-1.028 1.275-1.344 1.927-.507 1.007-.715 2.054-.715 3.243l-7.087-2.132c-.592-.177-1.109-.126-1.518.047-.632.262-1.037.803-1.17 1.242-.325 1.036.28 1.831.604 2.14 0 0-1.511-.123-1.939 1.303-.24.799.157 1.855 1.17 2.376 0 0-.607.329-.905 1.32Z" fill="#e0e0e0" fill-rule="evenodd" data-name="Path 39914"/></g></g></g></svg>