<svg xmlns="http://www.w3.org/2000/svg" width="209.235" height="209.282" viewBox="578 481 209.235 209.282"><g data-name="Group 178808"><path d="M653.773 649.404c-4.19 4.412-8.156 7.258-11.29 9.506-36.828 26.424-80.406 18.722-89.668 16.84-13.676-2.777-40.112-8.146-59.225-30.623-28.916-34.005-24.413-87.578-1.984-122.943 4.103-6.469 25.774-42.372 69.821-48.13 26.657-3.485 57.73 3.543 80.233 22.396 47.235 39.573 43.873 119.519 12.113 152.954Z" fill-rule="evenodd" fill="url(&quot;#a&quot;)" transform="translate(105.99 9.167)" data-name="Path 40096"/><g data-name="Group 178708"><path d="M677.858 600.033s-1.255-26.587-13.984-32.822c-12.73-6.235-36.288-9.025-39.867-47.074-2.095-22.275-3.34-31.991-4.013-36.219a2.519 2.519 0 0 1 2.776-2.9c11.733 1.358 49.982 7.663 59.691 32.774 11.51 29.77-4.603 86.24-4.603 86.24Z" fill="rgba(29,144,152,0.3 )" fill-rule="evenodd" data-name="Path 40097"/><path d="M632.477 490.985c13.515 10.431 29.635 29.447 38.893 48.95 1.24 3.235 4.68 10.057 6.846 22.458 1.88 10.337 2.096 21.386 1.23 28.771a.851.851 0 0 1-.944.747c-.803-.094-.758-.954-.75-.927.696-12.563-1.06-28.013-5.674-41.739-5.844-16.84-17.34-32.753-29.012-46.113l-1.197-1.312c-9.02-10.028-10.765-9.982-10.045-10.777a.485.485 0 0 1 .653-.058Z" fill="#1d9098" fill-rule="evenodd" data-name="Path 40098"/></g><g data-name="Group 178709"><path d="M700.746 592.751c2.436-4.535 7.091-8.009 10.26-12.065 10.066-12.89 19.9-30.577 31.727-32.942 9.843-1.968 30.654 14.24 37.359 19.734.837.686.5 2.038-.563 2.245-5.241 1.023-16.817 3.871-22.766 9.908-7.84 7.958-20.104 8.989-29.013 6.172-4.323-1.366-8.774-2.566-13.26-1.222-2.631.787-4.994 2.297-7.161 3.948-1.6 1.22-4.34 5.47-6.583 4.222Z" fill="rgba(29,144,152,0.32 )" fill-rule="evenodd" data-name="Path 40099"/><path d="M767.399 565.645c-9.738-4.871-22.357-6.187-32.05-.915l-.92.506c-2.139 1.196-15.716 10.602-25.22 19.368a.292.292 0 0 0-.015.413c.185.2.438.014.403.024 5.838-4.693 13.656-10.412 19.675-14.592 6.515-4.592 10.996-7.664 20.185-7.894 10.146-.11 17.77 3.523 17.744 3.515a.234.234 0 0 0 .198-.425Z" fill="#1d9098" fill-rule="evenodd" data-name="Path 40100"/></g><g data-name="Group 178710"><path d="M666.45 627.944c1.073.296-7.708-9.279-10.318-18.838-2.609-9.56-8.408-25.582-18.909-33.624-10.5-8.041-19.827-6.94-29.363 4.555-7.946 9.58-13.099 14.665-16.451 16.135-.83.364-1.059 1.442-.466 2.128 3.158 3.648 11.603 11.768 22.134 8.757 13.432-3.841 27.996-16.315 34.646-10.032 6.65 6.282 6.91 10.557 7.833 14.023.922 3.466 3.799 14.937 10.895 16.896Z" fill="rgba(29,144,152,0.3 )" fill-rule="evenodd" data-name="Path 40101"/><path d="M614.323 591.041c3.295-4.915 9.229-10.335 15.328-10.905 8-.45 14.278 3.581 18.77 10.646 1.813 3.021 2.646 4.663 4.172 8.518.122.308-.328.507-.475.212-.884-1.774-1.783-3.638-2.928-5.518-6.95-12.226-16.031-12.086-16.428-12.28-.643.208-5.282-1.9-13.62 5.26a42.946 42.946 0 0 0-4.382 4.386l-.007.008a.27.27 0 0 1-.43-.327Z" fill="#1d9098" fill-rule="evenodd" data-name="Path 40102"/></g><g data-name="Group 178714"><g data-name="Group 178711"><path d="M624.494 672.708a.676.676 0 0 1-.829-.362 26.985 26.985 0 0 1-.864-2.139.676.676 0 0 1 .41-.864l.013-.005a.677.677 0 0 1 .852.415c.244.688.52 1.372.82 2.033a.676.676 0 0 1-.402.922Zm-1.825-5.604a.676.676 0 0 1-.878-.504 27.447 27.447 0 0 1-.372-2.275.677.677 0 0 1 1.344-.161c.086.72.205 1.447.353 2.162a.677.677 0 0 1-.447.778Zm-.546-5.866a.676.676 0 0 1-.89-.656c.014-.765.063-1.54.144-2.302a.678.678 0 0 1 1.345.143 25.452 25.452 0 0 0-.137 2.186.678.678 0 0 1-.462.63Zm.779-5.842a.676.676 0 0 1-.87-.807c.187-.743.407-1.487.656-2.212a.678.678 0 0 1 1.28.44 25.417 25.417 0 0 0-.623 2.101.677.677 0 0 1-.443.478Zm2.062-5.522a.677.677 0 0 1-.817-.947c.346-.683.726-1.36 1.13-2.011a.675.675 0 1 1 1.15.711 26.13 26.13 0 0 0-1.073 1.911.672.672 0 0 1-.39.336Zm3.233-4.928a.677.677 0 0 1-.735-1.073 27.247 27.247 0 0 1 1.545-1.711.677.677 0 0 1 .965.948 25.96 25.96 0 0 0-1.469 1.627c-.084.1-.19.17-.306.21Zm23.003-9.38a.675.675 0 0 1-.285.031 25.325 25.325 0 0 0-2.187-.134.677.677 0 1 1 .025-1.353c.767.014 1.542.061 2.303.141a.677.677 0 0 1 .144 1.315Zm-18.762 5.294a.675.675 0 0 1-.626-1.178 26.83 26.83 0 0 1 1.889-1.324.677.677 0 0 1 .728 1.14c-.613.392-1.216.814-1.793 1.257a.663.663 0 0 1-.198.105Zm12.869-5.242a.782.782 0 0 1-.133.03c-.722.088-1.45.208-2.163.358a.676.676 0 0 1-.277-1.324c.75-.157 1.516-.284 2.276-.377a.676.676 0 0 1 .297 1.313Zm-7.82 2.206a.677.677 0 0 1-.495-1.257c.695-.318 1.414-.61 2.136-.868l.014-.005a.677.677 0 0 1 .441 1.279c-.685.245-1.368.523-2.029.824a.749.749 0 0 1-.068.027Z" fill="#91b3fa" fill-rule="evenodd" data-name="Path 40103"/><path d="M655.86 636.486a.674.674 0 0 1-.404.008 25.872 25.872 0 0 0-1.017-.277.676.676 0 1 1 .327-1.313c.359.09.718.187 1.07.29a.677.677 0 0 1 .024 1.292Z" fill="#91b3fa" fill-rule="evenodd" data-name="Path 40104"/></g><g data-name="Group 178712"><path d="M671.813 649.558a.677.677 0 0 1-.813-.328c-.162-.31-.332-.62-.507-.924a.678.678 0 0 1 1.172-.675c.185.32.364.647.534.972a.677.677 0 0 1-.386.955Z" fill="#91b3fa" fill-rule="evenodd" data-name="Path 40105"/><path d="M656.838 686.753c-.295.098-.594.193-.894.282a.676.676 0 1 1-.385-1.297c.694-.206 1.378-.44 2.04-.698a.677.677 0 0 1 .492 1.26c-.41.16-.832.313-1.253.453Zm-4.38 1.063a.696.696 0 0 1-.111.026 27 27 0 0 1-2.257.252.677.677 0 0 1-.093-1.35c.713-.049 1.435-.13 2.143-.239a.676.676 0 0 1 .319 1.31Zm8.852-3.034a.676.676 0 0 1-.542-1.233 25.748 25.748 0 0 0 1.836-1.128.678.678 0 0 1 .756 1.122c-.626.422-1.277.822-1.934 1.188a.754.754 0 0 1-.116.05Zm-14.647 3.28a.67.67 0 0 1-.26.034 26.689 26.689 0 0 1-2.257-.251.676.676 0 1 1 .206-1.337c.708.109 1.428.19 2.143.237a.677.677 0 0 1 .168 1.318Zm19.367-6.646a.675.675 0 0 1-.666-1.145 25.85 25.85 0 0 0 1.543-1.504.677.677 0 0 1 .984.929 27.122 27.122 0 0 1-1.625 1.583.667.667 0 0 1-.236.137Zm3.867-4.318a.678.678 0 0 1-.766-1.035c.417-.583.813-1.19 1.18-1.805a.676.676 0 1 1 1.162.692 27.23 27.23 0 0 1-1.24 1.9.674.674 0 0 1-.336.248Zm2.833-5.06a.675.675 0 0 1-.837-.905c.28-.66.535-1.34.758-2.02a.676.676 0 0 1 1.285.423c-.235.715-.503 1.43-.797 2.125a.673.673 0 0 1-.409.377Zm1.662-5.556a.678.678 0 0 1-.879-.762 25.62 25.62 0 0 0 .297-2.137.677.677 0 0 1 1.347.13c-.072.75-.177 1.507-.313 2.249a.676.676 0 0 1-.452.52Zm.403-5.788a.677.677 0 0 1-.89-.613c-.031-.714-.092-1.437-.182-2.148a.677.677 0 0 1 1.342-.17c.095.749.16 1.509.19 2.261a.676.676 0 0 1-.46.67Zm-.879-5.73a.676.676 0 0 1-.869-.467 25.786 25.786 0 0 0-.642-2.059.676.676 0 0 1 .408-.865.668.668 0 0 1 .865.408 26.719 26.719 0 0 1 .677 2.166.676.676 0 0 1-.439.816Z" fill="#91b3fa" fill-rule="evenodd" data-name="Path 40106"/><path d="M640.94 687.023a.677.677 0 0 1-.408.007c-.35-.105-.706-.22-1.056-.34a.676.676 0 1 1 .44-1.28c.332.115.67.223 1.003.323a.676.676 0 0 1 .02 1.29Z" fill="#91b3fa" fill-rule="evenodd" data-name="Path 40107"/></g><g data-name="Group 178713"><path d="M639.32 679.29a.316.316 0 0 0 .366-.019l3.005-2.403c1.698.588 3.502.911 5.351.927l2.022 3.271c.07.115.207.173.338.143l4.503-1.013c.132-.03.23-.14.245-.274l.425-3.822a16.757 16.757 0 0 0 4.438-3.131l3.745.884a.315.315 0 0 0 .34-.138l2.468-3.901a.316.316 0 0 0-.02-.367l-2.405-3.004c.59-1.698.912-3.502.928-5.352l3.272-2.022a.315.315 0 0 0 .142-.338l-1.013-4.503a.316.316 0 0 0-.273-.245l-3.823-.425a16.768 16.768 0 0 0-3.13-4.438l.884-3.745a.317.317 0 0 0-.139-.34l-3.9-2.467a.315.315 0 0 0-.367.02l-3.005 2.405a16.766 16.766 0 0 0-5.352-.929l-2.021-3.271a.315.315 0 0 0-.338-.142l-4.504 1.013a.316.316 0 0 0-.244.273l-.425 3.823a16.754 16.754 0 0 0-4.438 3.13l-3.745-.885a.318.318 0 0 0-.34.14l-2.468 3.9a.317.317 0 0 0 .02.367l2.404 3.005a16.762 16.762 0 0 0-.927 5.351l-3.272 2.02a.317.317 0 0 0-.142.34l1.013 4.503c.03.132.14.23.274.245l3.822.425a16.776 16.776 0 0 0 3.13 4.438l-.884 3.745a.316.316 0 0 0 .139.34l3.9 2.467Z" fill="#1d9098" fill-rule="evenodd" data-name="Path 40108"/><path d="M1338.744 2808.666a4.647 4.647 0 0 1-5.607-2.307 4.645 4.645 0 0 1 2.044-6.235 4.607 4.607 0 0 1 3.54-.27 4.61 4.61 0 0 1 2.695 2.313 4.646 4.646 0 0 1-2.672 6.499Zm-2.587-7.78a3.562 3.562 0 0 0-2.054 4.984 3.56 3.56 0 0 0 4.78 1.568 3.562 3.562 0 0 0 1.568-4.781 3.535 3.535 0 0 0-2.066-1.774 3.53 3.53 0 0 0-2.228.003Z" fill-rule="evenodd" fill="url(&quot;#b&quot;)" transform="translate(-689.073 -2143.334)" data-name="Path 40109"/><path d="M1257.726 2730.124c-.368.123-.745.228-1.13.314a11.505 11.505 0 0 1-2.18.276l-.024.001-.07.002a6.44 6.44 0 0 1-.138.002.271.271 0 1 1-.005-.541 10.936 10.936 0 0 0 2.299-.267c3.757-.845 6.621-3.554 7.84-6.933.678-1.88.847-3.966.376-6.056a10.784 10.784 0 0 0-4.793-6.798 10.796 10.796 0 0 0-8.195-1.418c-5.848 1.317-9.532 7.142-8.216 12.988a10.837 10.837 0 0 0 2.728 5.106.27.27 0 0 1-.392.373 11.376 11.376 0 0 1-2.864-5.36c-1.382-6.137 2.49-12.254 8.625-13.635 2.973-.67 6.028-.14 8.604 1.489a11.322 11.322 0 0 1 5.031 7.136c.67 2.973.14 6.029-1.488 8.604a11.325 11.325 0 0 1-6.008 4.717Z" fill-rule="evenodd" fill="url(&quot;#c&quot;)" transform="translate(-605.843 -2058.465)" data-name="Path 40110"/></g></g><g data-name="Group 178718"><g data-name="Group 178715"><path d="M670.216 647.466a.52.52 0 0 1-.638-.278 20.78 20.78 0 0 1-.666-1.648.52.52 0 0 1 .317-.666l.01-.003a.52.52 0 0 1 .655.32c.188.53.401 1.056.632 1.566a.521.521 0 0 1-.31.71Zm-1.406-4.317a.521.521 0 0 1-.676-.388c-.12-.579-.216-1.168-.286-1.753a.52.52 0 1 1 1.034-.124c.067.555.159 1.115.273 1.666a.52.52 0 0 1-.345.6Zm-.42-4.519a.523.523 0 0 1-.687-.505c.012-.59.05-1.186.112-1.773a.522.522 0 0 1 1.036.11c-.059.558-.095 1.124-.106 1.684a.52.52 0 0 1-.355.484Zm.6-4.5a.52.52 0 0 1-.67-.621c.143-.573.314-1.147.505-1.705a.521.521 0 0 1 .986.339 19.57 19.57 0 0 0-.48 1.618.522.522 0 0 1-.34.369Zm1.589-4.255a.52.52 0 0 1-.63-.73c.266-.525.56-1.046.87-1.548a.52.52 0 1 1 .886.548c-.295.477-.574.973-.826 1.472a.519.519 0 0 1-.3.258Zm2.49-3.796a.52.52 0 0 1-.567-.826c.377-.454.778-.898 1.191-1.318a.52.52 0 1 1 .743.73c-.393.4-.773.822-1.131 1.253a.515.515 0 0 1-.236.161Zm17.72-7.225a.525.525 0 0 1-.219.023 19.282 19.282 0 0 0-1.684-.103.521.521 0 0 1 .019-1.042c.59.01 1.188.047 1.774.108a.521.521 0 0 1 .11 1.014Zm-14.452 4.078a.52.52 0 0 1-.483-.908c.468-.36.958-.702 1.455-1.02a.522.522 0 0 1 .561.878 19.71 19.71 0 0 0-1.381.97.542.542 0 0 1-.152.08Zm9.913-4.039a.497.497 0 0 1-.102.024c-.556.067-1.117.16-1.666.276a.522.522 0 0 1-.214-1.021c.578-.12 1.168-.219 1.753-.29a.52.52 0 0 1 .229 1.011Zm-6.025 1.7a.52.52 0 0 1-.38-.968 20.842 20.842 0 0 1 1.656-.673.52.52 0 0 1 .34.985c-.528.189-1.055.403-1.564.635a.565.565 0 0 1-.052.02Z" fill="#91b3fa" fill-rule="evenodd" data-name="Path 40111"/><path d="M694.38 619.562a.517.517 0 0 1-.31.005 20.687 20.687 0 0 0-.785-.213.52.52 0 1 1 .253-1.01c.276.068.553.143.825.223a.521.521 0 0 1 .017.995Z" fill="#91b3fa" fill-rule="evenodd" data-name="Path 40112"/></g><g data-name="Group 178716"><path d="M706.67 629.633a.522.522 0 0 1-.627-.253 19.083 19.083 0 0 0-.39-.713.521.521 0 0 1 .903-.52c.141.247.28.5.41.75a.522.522 0 0 1-.296.736Z" fill="#91b3fa" fill-rule="evenodd" data-name="Path 40113"/><path d="M695.133 658.287c-.227.076-.457.148-.688.217a.521.521 0 0 1-.298-1 20.123 20.123 0 0 0 1.573-.537.521.521 0 1 1 .378.971c-.315.123-.64.24-.965.349Zm-3.373.818a.504.504 0 0 1-.087.02c-.574.09-1.16.155-1.738.194a.52.52 0 1 1-.072-1.04c.55-.037 1.105-.099 1.651-.183a.522.522 0 0 1 .246 1.01Zm6.819-2.337a.521.521 0 0 1-.419-.95c.482-.268.957-.56 1.415-.869a.522.522 0 0 1 .583.865c-.482.325-.983.632-1.49.915a.505.505 0 0 1-.09.039Zm-11.284 2.528a.522.522 0 0 1-.201.025c-.58-.04-1.164-.105-1.738-.193a.52.52 0 1 1 .159-1.03c.545.084 1.1.146 1.65.183a.522.522 0 0 1 .13 1.015Zm14.92-5.12a.52.52 0 0 1-.513-.883c.41-.367.81-.756 1.189-1.158a.52.52 0 1 1 .758.714c-.4.424-.82.834-1.252 1.22a.507.507 0 0 1-.183.107Zm2.978-3.327a.523.523 0 0 1-.59-.798c.322-.449.627-.916.909-1.39a.52.52 0 1 1 .896.533c-.297.498-.618.99-.956 1.463a.515.515 0 0 1-.259.192Zm2.183-3.898a.52.52 0 0 1-.645-.698c.216-.508.413-1.032.584-1.555a.521.521 0 1 1 .99.325c-.18.551-.387 1.102-.614 1.637a.52.52 0 0 1-.315.291Zm1.281-4.28a.521.521 0 0 1-.678-.588c.1-.543.177-1.097.229-1.645a.522.522 0 0 1 1.038.1c-.056.577-.137 1.16-.241 1.732a.522.522 0 0 1-.348.4Zm.31-4.46a.521.521 0 0 1-.686-.472 19.8 19.8 0 0 0-.14-1.654.521.521 0 0 1 1.034-.132c.074.577.123 1.163.147 1.743a.52.52 0 0 1-.355.516Zm-.677-4.414-.031.009a.521.521 0 0 1-.638-.369 20.117 20.117 0 0 0-.496-1.586.521.521 0 0 1 .315-.666.516.516 0 0 1 .667.314 22.434 22.434 0 0 1 .52 1.669.521.521 0 0 1-.337.629Z" fill="#91b3fa" fill-rule="evenodd" data-name="Path 40114"/><path d="M682.885 658.495a.522.522 0 0 1-.313.005c-.27-.081-.544-.17-.814-.262a.521.521 0 0 1 .34-.985c.255.088.515.171.772.248a.522.522 0 0 1 .015.994Z" fill="#91b3fa" fill-rule="evenodd" data-name="Path 40115"/></g><g data-name="Group 178717"><path d="M681.638 652.539c.087.056.201.05.282-.016l2.315-1.852c1.308.454 2.698.703 4.123.715l1.557 2.52c.054.09.16.133.26.11l3.47-.78a.244.244 0 0 0 .188-.212l.328-2.944a12.93 12.93 0 0 0 3.418-2.412l2.886.681c.1.024.206-.018.261-.106l1.901-3.006a.242.242 0 0 0-.015-.282l-1.852-2.315c.454-1.308.702-2.698.715-4.122l2.52-1.557a.244.244 0 0 0 .11-.261l-.781-3.47a.244.244 0 0 0-.21-.188l-2.945-.328a12.913 12.913 0 0 0-2.412-3.418l.681-2.885a.243.243 0 0 0-.107-.262l-3.005-1.902a.244.244 0 0 0-.282.017l-2.315 1.851a12.914 12.914 0 0 0-4.123-.714l-1.557-2.52a.245.245 0 0 0-.26-.11l-3.47.78a.243.243 0 0 0-.188.21l-.327 2.945a12.928 12.928 0 0 0-3.42 2.412l-2.885-.681a.243.243 0 0 0-.261.107l-1.901 3.005a.244.244 0 0 0 .015.282l1.852 2.315a12.925 12.925 0 0 0-.715 4.123l-2.52 1.557a.244.244 0 0 0-.11.26l.781 3.47a.243.243 0 0 0 .211.188l2.945.327a12.9 12.9 0 0 0 2.411 3.42l-.681 2.885a.242.242 0 0 0 .106.261l3.006 1.902Z" fill="#1d9098" fill-rule="evenodd" data-name="Path 40116"/><path d="M1890.343 2519.398a3.58 3.58 0 0 1-4.32-1.777 3.578 3.578 0 0 1 1.575-4.803 3.548 3.548 0 0 1 2.728-.208 3.55 3.55 0 0 1 2.076 1.782 3.579 3.579 0 0 1-2.059 5.006Zm-1.993-5.993a2.744 2.744 0 0 0-1.582 3.84 2.742 2.742 0 0 0 3.683 1.207 2.744 2.744 0 0 0 1.207-3.683 2.724 2.724 0 0 0-1.591-1.366 2.723 2.723 0 0 0-1.717.002Z" fill-rule="evenodd" fill="url(&quot;#d&quot;)" transform="translate(-1200.73 -1877.614)" data-name="Path 40117"/><path d="M1827.93 2458.892a8.906 8.906 0 0 1-.87.242 8.87 8.87 0 0 1-1.699.214h-.055l-.106.002a.207.207 0 0 1-.21-.207.208.208 0 0 1 .207-.21 8.372 8.372 0 0 0 7.81-5.546 8.318 8.318 0 0 0 .29-4.666 8.31 8.31 0 0 0-3.692-5.237 8.317 8.317 0 0 0-6.314-1.092c-4.505 1.014-7.343 5.502-6.33 10.006a8.343 8.343 0 0 0 2.101 3.933.21.21 0 0 1-.006.295.21.21 0 0 1-.295-.007 8.768 8.768 0 0 1-2.206-4.13c-1.064-4.728 1.918-9.44 6.645-10.504a8.732 8.732 0 0 1 6.628 1.147 8.72 8.72 0 0 1 3.876 5.498 8.728 8.728 0 0 1-1.147 6.628 8.72 8.72 0 0 1-4.628 3.634Z" fill-rule="evenodd" fill="url(&quot;#e&quot;)" transform="translate(-1136.612 -1812.234)" data-name="Path 40118"/></g></g><g data-name="Group 178722"><g data-name="Group 178719"><path d="M685.902 520.94a.38.38 0 0 1-.451-.059c-.231-.225-.459-.46-.676-.699a.38.38 0 1 1 .562-.511c.207.227.424.451.644.666a.38.38 0 0 1-.079.603Z" fill="#91b3fa" fill-rule="evenodd" data-name="Path 40119"/><path d="M684.004 518.716a.38.38 0 0 1-.496-.112 16.463 16.463 0 0 1-1.063-1.722c-.099-.185-.016-.414.156-.514a.38.38 0 0 1 .514.155 15.81 15.81 0 0 0 1.013 1.643.38.38 0 0 1-.124.55Zm-1.862-3.478a.38.38 0 0 1-.541-.193 16.52 16.52 0 0 1-.615-1.928.38.38 0 0 1 .737-.186c.156.621.354 1.24.586 1.838a.38.38 0 0 1-.167.469Zm-.964-3.827a.38.38 0 0 1-.563-.285 16.288 16.288 0 0 1-.123-2.02.38.38 0 1 1 .76 0c0 .643.038 1.291.117 1.928a.381.381 0 0 1-.191.377Zm.007-3.946a.38.38 0 0 1-.564-.38c.085-.668.211-1.336.376-1.988a.38.38 0 0 1 .737.188c-.158.62-.278 1.259-.359 1.896a.38.38 0 0 1-.19.284Zm.97-3.825a.38.38 0 0 1-.541-.47c.244-.626.53-1.244.847-1.836a.38.38 0 1 1 .67.36 15.836 15.836 0 0 0-.809 1.752.378.378 0 0 1-.167.194Zm1.869-3.474a.38.38 0 0 1-.497-.55c.389-.55.816-1.08 1.27-1.575a.38.38 0 0 1 .56.513c-.432.473-.839.978-1.21 1.5a.378.378 0 0 1-.123.112Zm2.66-2.91a.38.38 0 0 1-.433-.62c.511-.436 1.055-.844 1.618-1.216a.38.38 0 0 1 .418.635c-.537.354-1.056.744-1.542 1.159a.41.41 0 0 1-.06.042Zm5.118-2.937a.377.377 0 0 1-.06.028 15.825 15.825 0 0 0-1.78.749.38.38 0 0 1-.509-.172.376.376 0 0 1 .172-.51l.24-.115c.53-.252 1.076-.478 1.625-.67a.38.38 0 0 1 .312.69Z" fill="#91b3fa" fill-rule="evenodd" data-name="Path 40120"/></g><g data-name="Group 178720"><path d="M705.157 523.316a.38.38 0 0 1-.377-.66c.547-.317 1.079-.67 1.581-1.05a.38.38 0 1 1 .458.607c-.527.398-1.084.768-1.657 1.1l-.005.003Zm-1.737.873a16.624 16.624 0 0 1-1.909.693.38.38 0 1 1-.214-.73 15.903 15.903 0 0 0 1.786-.643.38.38 0 0 1 .337.68Zm4.833-3.213a.38.38 0 0 1-.45-.604c.453-.44.884-.911 1.28-1.401a.38.38 0 1 1 .59.478 16.361 16.361 0 0 1-1.342 1.469.392.392 0 0 1-.078.058Zm-8.559 4.305a.384.384 0 0 1-.125.044 16.29 16.29 0 0 1-1.98.202.38.38 0 1 1-.031-.759c.63-.026 1.265-.09 1.888-.193a.38.38 0 0 1 .248.706Zm10.998-7.323a.38.38 0 0 1-.51-.532c.335-.535.64-1.096.906-1.668a.38.38 0 1 1 .69.322c-.28.6-.6 1.188-.95 1.749a.38.38 0 0 1-.136.129Zm1.643-3.515a.38.38 0 0 1-.548-.45c.196-.6.358-1.218.481-1.836a.38.38 0 1 1 .745.147 16.52 16.52 0 0 1-.503 1.926.382.382 0 0 1-.175.213Zm.754-3.808a.38.38 0 0 1-.565-.36c.048-.63.056-1.269.026-1.898a.38.38 0 1 1 .759-.036c.031.66.023 1.33-.028 1.99a.38.38 0 0 1-.192.304Z" fill="#91b3fa" fill-rule="evenodd" data-name="Path 40121"/><path d="M695.798 525.439a.378.378 0 0 1-.217.047 16.59 16.59 0 0 1-.966-.108.38.38 0 0 1 .107-.752c.302.042.611.077.92.102a.38.38 0 0 1 .156.71Z" fill="#91b3fa" fill-rule="evenodd" data-name="Path 40122"/></g><g data-name="Group 178721"><path d="M693.664 521.006c.077.03.164.008.217-.055l1.519-1.783c1.082.157 2.198.142 3.305-.062l1.585 1.723c.056.06.143.078.219.046l2.574-1.125a.193.193 0 0 0 .115-.192l-.187-2.333a10.198 10.198 0 0 0 2.292-2.383l2.34.097a.193.193 0 0 0 .187-.122l1.025-2.615a.192.192 0 0 0-.054-.217l-1.783-1.519a10.197 10.197 0 0 0-.063-3.305l1.723-1.585a.193.193 0 0 0 .046-.219l-1.125-2.574a.192.192 0 0 0-.191-.115l-2.334.187a10.201 10.201 0 0 0-2.382-2.292l.097-2.34a.192.192 0 0 0-.122-.187l-2.616-1.025a.193.193 0 0 0-.217.054l-1.519 1.783a10.199 10.199 0 0 0-3.305.062l-1.585-1.722a.193.193 0 0 0-.218-.046l-2.575 1.125a.192.192 0 0 0-.115.191l.187 2.333a10.213 10.213 0 0 0-2.292 2.383l-2.34-.097a.192.192 0 0 0-.187.122l-1.025 2.616a.192.192 0 0 0 .055.216l1.782 1.52a10.204 10.204 0 0 0 .062 3.304l-1.722 1.585a.192.192 0 0 0-.046.22l1.125 2.574c.033.075.11.12.191.115l2.334-.187c.674.901 1.482 1.67 2.382 2.291l-.097 2.34a.193.193 0 0 0 .122.188l2.616 1.025Z" fill="#1d9098" fill-rule="evenodd" data-name="Path 40123"/><path d="M698.263 511.516c-.534.301-1.148.423-1.768.344a2.856 2.856 0 0 1-1.91-1.091 2.878 2.878 0 0 1 .511-4.033 2.88 2.88 0 0 1 4.034.512c.47.607.676 1.36.58 2.122a2.857 2.857 0 0 1-1.447 2.146Zm-2.442-4.351a2.117 2.117 0 0 0 .77 3.941c.56.071 1.115-.08 1.562-.426.446-.346.731-.845.802-1.405a2.1 2.1 0 0 0-.426-1.562 2.118 2.118 0 0 0-2.708-.548Z" fill="#bdd0fb" fill-rule="evenodd" data-name="Path 40124"/><path d="M700.392 515.187a7.295 7.295 0 0 1-2.04.77l-.065.014a.38.38 0 1 1-.15-.745 6.42 6.42 0 0 0 1.3-.411l.067-.03a6.338 6.338 0 0 0 3.307-3.445l.005-.013a6.358 6.358 0 0 0-.078-4.938 6.352 6.352 0 0 0-3.529-3.396 6.357 6.357 0 0 0-4.896.094 6.362 6.362 0 0 0-3.396 3.529 6.36 6.36 0 0 0 .384 5.478 6.373 6.373 0 0 0 1.856 2.067.38.38 0 0 1-.441.619 7.14 7.14 0 0 1-2.402-2.963 7.113 7.113 0 0 1-.105-5.479 7.106 7.106 0 0 1 3.8-3.948 7.11 7.11 0 0 1 5.478-.104 7.103 7.103 0 0 1 3.948 3.799c1.482 3.393.117 7.323-3.043 9.102Z" fill="#bdd0fb" fill-rule="evenodd" data-name="Path 40125"/></g></g><path d="M0 0h33.769v3.533H0V0z" fill-rule="evenodd" fill="url(&quot;#f&quot;)" transform="rotate(-33.746 1341.8 -717.214)" data-name="Rectangle 163297"/><path d="M0 0h3.533v36.034H0V0z" fill-rule="evenodd" fill="url(&quot;#g&quot;)" transform="rotate(-46.35 1064.453 -528.698)" data-name="Rectangle 163298"/><path d="M0 0h43.994v3.533H0V0z" fill-rule="evenodd" fill="url(&quot;#h&quot;)" transform="rotate(-39.617 1121.617 -703.7)" data-name="Rectangle 163299"/><path d="M0 0h3.533v41.054H0V0z" fill-rule="evenodd" fill="url(&quot;#i&quot;)" transform="rotate(-50.907 879.357 -399.85)" data-name="Rectangle 163300"/><g data-name="Group 178729"><g data-name="Group 178723"><path d="M0 48.01a48.11 48.11 0 1 1 0 .1z" fill-rule="evenodd" fill="url(&quot;#j&quot;)" transform="translate(634.743 536.292)" data-name="Ellipse 786"/><path d="M641.692 604.402a.253.253 0 0 1-.228-.144c-2.951-6.195-4.447-12.842-4.447-19.757 0-17.255 9.524-32.912 24.854-40.862a.253.253 0 0 1 .233.448c-15.163 7.863-24.582 23.348-24.582 40.414 0 6.84 1.48 13.413 4.397 19.54a.252.252 0 0 1-.227.36Z" fill="#bdd0fb" fill-rule="evenodd" data-name="Path 40126"/><path d="M658.88 623.623a.25.25 0 0 1-.134-.039 46.532 46.532 0 0 1-14.104-13.709.252.252 0 1 1 .421-.279 46.029 46.029 0 0 0 13.95 13.56.252.252 0 0 1-.134.467Z" fill="#bdd0fb" fill-rule="evenodd" data-name="Path 40127"/><path d="M714.305 551.378a.251.251 0 0 1-.173-.068 45.372 45.372 0 0 0-21.945-11.38.252.252 0 1 1 .1-.494 45.88 45.88 0 0 1 22.19 11.505.252.252 0 0 1-.172.437Z" fill="#bdd0fb" fill-rule="evenodd" data-name="Path 40128"/><path d="M0 42.736a42.836 42.836 0 1 1 0 .1z" fill-rule="evenodd" fill="url(&quot;#k&quot;)" transform="translate(640.181 541.358)" data-name="Ellipse 787"/></g><g data-name="Group 178728"><g data-name="Group 178727" transform="translate(641.162 543.863)" clip-path="url(&quot;#l&quot;)"><g data-name="Group 178726"><g data-name="Group 178725"><path d="m65.203 102.404-5.955-62.398c-14.302-5.286-32.334.622-32.334.622l-2.785 61.776h41.074Z" fill="#fff" fill-rule="evenodd" data-name="Path 40129"/><path d="m1790.241 1689.573-.269 8.857a2.01 2.01 0 0 0 1.344 1.957c2.265.799 6.953 2.013 11.396.423a2.005 2.005 0 0 0 1.297-2.18l-1.332-9.057h-12.436Z" fill-rule="evenodd" fill="url(&quot;#m&quot;)" transform="translate(-1753.378 -1660.138)" data-name="Path 40130"/><path d="M1384.425 1978.014c1.576-1.575 2.452-2.704 2.452-2.704l-1.866-5.285s-15.234 8.705-20.209 4.352c-4.974-4.352 3.42-29.846 3.42-29.846l-12.125-22.075s-10.178 33.932-6.755 52.474a3.766 3.766 0 0 0 3.7 3.084h31.383Z" fill-rule="evenodd" fill="url(&quot;#n&quot;)" transform="translate(-1345.04 -1875.61)" data-name="Path 40131"/><path d="m36.701 34.78 6.922 6.637-4.998 3.409-4.42-5.948 2.496-4.097Z" fill="#fff" fill-rule="evenodd" data-name="Path 40132"/><path d="m49.958 34.78-6.922 6.637 4.998 3.409 4.42-5.948-2.496-4.097Z" fill="#fff" fill-rule="evenodd" data-name="Path 40133"/><g data-name="Group 178724"><path d="M1732.558 1345.664s1.554 15.856 4.974 19.898c0 0 10.26.932 13.991-1.244 0 0 2.643-7.928 2.332-18.499 0 0 .51-9.619-10.105-10.415-12.436-.933-11.192 10.26-11.192 10.26Z" fill-rule="evenodd" fill="url(&quot;#o&quot;)" transform="translate(-1700.224 -1332.396)" data-name="Path 40134"/><path d="M2003.298 1505.231s.933-2.798 2.487-2.798c1.555 0-.31 7.462-2.487 7.462v-4.664Z" fill-rule="evenodd" fill="url(&quot;#p&quot;)" transform="translate(-1950.756 -1486.99)" data-name="Path 40135"/><path d="M1711.323 1519.383s-1.302-2.647-2.842-2.437c-1.54.21 1.314 7.351 3.47 7.058l-.628-4.621Z" fill-rule="evenodd" fill="url(&quot;#q&quot;)" transform="translate(-1677.574 -1500.406)" data-name="Path 40136"/><path d="M1747.342 1579.807s.349 9.471 4.515 14.275c.382.44.935.697 1.518.725 2.126.102 7.562.285 10.626-.326a2.175 2.175 0 0 0 1.642-1.426c.754-2.209 2.062-5.692 1.612-13.686l-2.5 5.958c-1.853 4.924-2.858-1.053-3.718-.983h-5.596c-.59.047-1.244 3.73-3.43 2.651l-4.669-7.188Z" fill-rule="evenodd" fill="url(&quot;#r&quot;)" transform="translate(-1713.935 -1558.174)" data-name="Path 40137"/><path d="M1741.447 1324.665s-7.921 8.147-16.552 8.115c0 0-4.9-13.09 4.737-15.266 9.639-2.176 9.95.622 9.95.622s11.091-2.781 6.078 13.216l-4.213-6.687Z" fill-rule="evenodd" fill="url(&quot;#s&quot;)" transform="translate(-1692.014 -1315.128)" data-name="Path 40138"/></g><path d="M1985.769 1993.405h28.865c1.3 0 2.508-.669 3.196-1.77 12.437-19.899-5.285-52.544-5.285-52.544l-9.327 24.562s8.083 8.083 3.73 20.83c-4.352 12.747-22.074 2.798-22.074 2.798l.622 5.908s.096.079.273.216Z" fill-rule="evenodd" fill="url(&quot;#t&quot;)" transform="translate(-1933.71 -1891.002)" data-name="Path 40139"/><path d="m1838.348 1853.646-2.583 1.758 1.82 3.54h2.969l1.984-3.292-3.381-2.312-.81.306Z" fill-rule="evenodd" fill="url(&quot;#u&quot;)" transform="translate(-1795.748 -1811.662)" data-name="Path 40140"/><path d="m1835.18 1928.292-2.015 33.542 5.123 9.265 5.158-8.931-5.298-33.876h-2.968Z" fill-rule="evenodd" fill="url(&quot;#v&quot;)" transform="translate(-1793.342 -1881.01)" data-name="Path 40141"/><path d="M1457.496 1845.94a41.16 41.16 0 0 1 3.091 16.884l-.482 16.63h23.378l-1.189-23.69-10.741-39.833c-9.95 1.555-23.148 7.964-23.148 7.964l9.091 22.045Z" fill-rule="evenodd" fill="url(&quot;#w&quot;)" transform="translate(-1437.347 -1777.05)" data-name="Path 40142"/><path d="m1924.306 1871.538.713-13.795a62.098 62.098 0 0 1 3.563-20.731l7.008-19.788c-9.016-8.083-26.771-9.847-26.771-9.847l-7.118 40.473v23.688h22.605Z" fill-rule="evenodd" fill="url(&quot;#x&quot;)" transform="translate(-1856.755 -1769.135)" data-name="Path 40143"/><path d="M42.978 77.322a.172.172 0 0 1-.13-.06l-9.571-11.037a.17.17 0 0 1-.04-.085l-.965-5.916-3.542-.713a.172.172 0 0 1-.138-.162L27.83 40.62a.173.173 0 0 1 .345-.014L28.93 59.2l3.527.71c.07.014.124.07.136.14l.976 5.986 9.539 11a.173.173 0 0 1-.13.286Z" fill="#91b3fa" fill-rule="evenodd" data-name="Path 40144"/><path d="M46.187 77.322a.172.172 0 0 1-.113-.043.175.175 0 0 1-.017-.244l9.539-11.095.976-6.036a.173.173 0 0 1 .136-.142l3.526-.716.756-18.752a.169.169 0 0 1 .18-.167.174.174 0 0 1 .164.181l-.761 18.888a.173.173 0 0 1-.138.164l-3.543.718-.964 5.967a.178.178 0 0 1-.04.085l-9.57 11.132a.172.172 0 0 1-.13.06Z" fill="#91b3fa" fill-rule="evenodd" data-name="Path 40145"/></g></g></g></g></g><g data-name="Group 178730"><path d="M0 30.171a30.271 30.271 0 1 1 0 .1z" fill-rule="evenodd" fill="url(&quot;#y&quot;)" transform="translate(580.18 614.098)" data-name="Ellipse 789"/><path d="M584.553 657.048a.252.252 0 0 1-.228-.144 28.778 28.778 0 0 1-2.807-12.472c0-10.892 6.012-20.776 15.69-25.794a.252.252 0 1 1 .232.447c-9.51 4.932-15.417 14.644-15.417 25.347 0 4.289.928 8.412 2.758 12.255a.251.251 0 0 1-.12.335.246.246 0 0 1-.108.026Z" fill="#bdd0fb" fill-rule="evenodd" data-name="Path 40146"/><path d="M595.367 669.142a.25.25 0 0 1-.133-.038 29.376 29.376 0 0 1-8.903-8.654.252.252 0 0 1 .421-.279 28.865 28.865 0 0 0 8.75 8.505.252.252 0 0 1-.135.466Z" fill="#bdd0fb" fill-rule="evenodd" data-name="Path 40147"/><path d="M583.602 644.14a26.954 26.954 0 1 1 0 .1z" fill="#c9fcff" fill-rule="evenodd" data-name="Ellipse 790"/></g><g data-name="Group 178734"><g data-name="Group 178733"><path d="M658.988 2830.405c-1.244 1.329-3.077 2.477-4.366 3.192 1.926 2.38 4.531 4.764 7.98 7.097l.65.562.793.346 2.708-2.483s-5.676-2.825-7.765-8.714Z" fill-rule="evenodd" fill="url(&quot;#z&quot;)" transform="translate(-61.747 -2171.817)" data-name="Path 40148"/><path d="M629.47 2445.183a26.129 26.129 0 0 1-2.66-4.06c-1.044-1.973-.084 1.276-.37-.951-7.816-5.64-19.586-2.786-24.139-2.212a6.079 6.079 0 0 0-3.842 2.063c-3.9 4.515-12.462 16.875-2.385 29.33 1.289-.716 3.121-1.863 4.366-3.191-1.115-3.143-1.206-7.159 1.13-12.084.08.39.179.777.299 1.158 3.22 10.201 3.391 18.69 3.384 20.647 0 .265-.33 1.161-.098 1.29 7.768 4.32 17.004.86 17.004.86-1.934-9.617 4.9-27.941 6.78-32.08a2.66 2.66 0 0 1 .531-.77Z" fill-rule="evenodd" fill="url(&quot;#A&quot;)" transform="translate(-3.198 -1807.573)" data-name="Path 40149"/><path d="m825.792 2340.614-.817 8.346s4.695 1.413 8.109-.996l-2.4-7.584-4.892.234Z" fill-rule="evenodd" fill="url(&quot;#B&quot;)" transform="translate(-219.364 -1718.427)" data-name="Path 40150"/><g data-name="Group 178731"><path d="M831.934 2211.948c.113.106 4.768 9.249 4.768 9.249l-5.276 2.547-5.7-8.01s4.316-5.566 6.208-3.786Z" fill-rule="evenodd" fill="url(&quot;#C&quot;)" transform="translate(-220.059 -1599.271)" data-name="Path 40151"/><path d="M790.112 2169.147a.843.843 0 0 0 .063.739l2.632 4.387c.04.067.088.127.144.18.314.291 1.386 1.14 2.214-.015.706-.984 1.37-1.88 2.08-2.248a.841.841 0 0 1 1.135.373c.433.86 1.273 2.611 1.8 4.273a.837.837 0 0 1-.487 1.027c-1.068.433-3.18 1.216-5.054 1.474a.842.842 0 0 1-.796-.338c-.806-1.104-3.078-4.19-3.853-4.963-.721-.718-2.05-.447-2.65-.275a.845.845 0 0 1-.672-.088c-.608-.367-1.669-1.278-.699-2.822a.843.843 0 0 0-.26-1.145c-.679-.446-1.415-1.284-.714-2.641.71-1.374 1.98-1.498 2.843-1.392.382.047.77-.154.917-.51a.556.556 0 0 1 .434-.342c.453-.092.75-.506.662-.96-.153-.777-.038-1.787 1.203-2.469 2.277-1.252 4.271.788 4.778 2.51.507 1.721-2.038 2.938-3.64 3.14-1.176.15-1.82 1.434-2.08 2.105Z" fill-rule="evenodd" fill="url(&quot;#D&quot;)" transform="translate(-182.11 -1552.462)" data-name="Path 40152"/><path d="M820.993 2321.5s-1.012-2.962-2.308-2.853c-1.296.11-2.316 1.4-.71 2.852 1.998 1.804 3.018.001 3.018.001Z" fill-rule="evenodd" fill="url(&quot;#E&quot;)" transform="translate(-212.126 -1698.316)" data-name="Path 40153"/></g><path d="M707.615 2530.17c-1.708-4.675-1.088-10.32-1.082-10.376l.47.054c-.005.055-.612 5.591 1.058 10.16l-.446.161Z" fill-rule="evenodd" fill="url(&quot;#F&quot;)" transform="translate(-109.671 -1884.427)" data-name="Path 40154"/><g data-name="Group 178732"><path d="M954.953 2455.478c-8.84 1.327-14.602-4.251-18.896-7.635-5.669-4.467-10.08-2.294-10.08-2.294l6.045 11.538c9.029 8.512 18.285 6.621 24.12 3.863a11.253 11.253 0 0 0-1.189-5.472Z" fill-rule="evenodd" fill="url(&quot;#G&quot;)" transform="translate(-312.815 -1815.244)" data-name="Path 40155"/><path d="m1325.984 2514.357-2.932 1.578c-3.516 2.14-6.662 3.271-9.493 3.696a11.249 11.249 0 0 1 1.189 5.472c3.715-1.756 6.044-3.863 6.044-3.863 6.641-3.96 5.192-6.883 5.192-6.883Z" fill-rule="evenodd" fill="url(&quot;#H&quot;)" transform="translate(-671.42 -1879.397)" data-name="Path 40156"/></g><path d="M1442.78 2481.937a2.161 2.161 0 0 0-1.264-1.383l-5.95-2.393s-.09-.763 1.258-1.281c1.347-.519 1.032-2.028 1.032-2.028s-1.84.84-4.534 2.171c-1.541.761-2.405 2.106-2.864 3.118l1.532 2.014c3.667 1.102 7.377 1.312 11.12.875l-.33-1.093Z" fill-rule="evenodd" fill="url(&quot;#I&quot;)" transform="translate(-779.58 -1842.845)" data-name="Path 40157"/></g></g><g data-name="Group 178736"><path d="M0 32.064a32.164 32.164 0 1 1 0 .1z" fill-rule="evenodd" fill="url(&quot;#J&quot;)" transform="translate(722.907 626.004)" data-name="Ellipse 791"/><path d="M782.589 671.623a.252.252 0 0 1-.228-.36 30.056 30.056 0 0 0 2.932-13.028c0-11.379-6.28-21.703-16.39-26.945a.253.253 0 0 1 .233-.448c10.277 5.329 16.662 15.825 16.662 27.393 0 4.635-1.003 9.09-2.981 13.244a.253.253 0 0 1-.228.144Z" fill="#bdd0fb" fill-rule="evenodd" data-name="Path 40158"/><path d="M771.099 684.473a.251.251 0 0 1-.215-.12.25.25 0 0 1 .08-.346 30.695 30.695 0 0 0 9.301-9.04.252.252 0 1 1 .421.278 31.191 31.191 0 0 1-9.455 9.19.25.25 0 0 1-.132.038Z" fill="#bdd0fb" fill-rule="evenodd" data-name="Path 40159"/><path d="M726.322 657.93a28.638 28.638 0 1 1 0 .1z" fill="#c9fcff" fill-rule="evenodd" data-name="Ellipse 792"/></g><g data-name="Group 178739"><path d="M0 30.309a30.409 30.409 0 1 1 0 .1z" fill-rule="evenodd" fill="url(&quot;#K&quot;)" transform="translate(720.45 487.912)" data-name="Ellipse 793"/><path d="M776.874 531.055a.253.253 0 0 1-.228-.36 28.401 28.401 0 0 0 2.77-12.311c0-10.752-5.934-20.51-15.487-25.463a.252.252 0 0 1 .232-.448c9.722 5.04 15.76 14.97 15.76 25.91 0 4.385-.949 8.6-2.82 12.528a.252.252 0 0 1-.227.144Z" fill="#bdd0fb" fill-rule="evenodd" data-name="Path 40168"/><path d="M766.01 543.204a.253.253 0 0 1-.133-.467 28.978 28.978 0 0 0 8.789-8.543.253.253 0 0 1 .42.28 29.498 29.498 0 0 1-8.942 8.692.25.25 0 0 1-.133.038Z" fill="#bdd0fb" fill-rule="evenodd" data-name="Path 40169"/><path d="M723.677 518.09a27.076 27.076 0 1 1 0 .1z" fill="#c9fcff" fill-rule="evenodd" data-name="Ellipse 794"/></g><g data-name="Group 178748"><g data-name="Group 178744"><path d="M0 29.106a29.206 29.206 0 1 1 0 .1z" fill-rule="evenodd" fill="url(&quot;#L&quot;)" transform="translate(590.355 493.139)" data-name="Ellipse 795"/><path d="M594.574 534.585a.253.253 0 0 1-.228-.144 27.773 27.773 0 0 1-2.71-12.036c0-10.513 5.803-20.052 15.143-24.895a.253.253 0 0 1 .232.448c-9.172 4.756-14.87 14.123-14.87 24.447 0 4.136.895 8.113 2.66 11.819a.252.252 0 0 1-.227.36Z" fill="#bdd0fb" fill-rule="evenodd" data-name="Path 40184"/><path d="M605.007 546.253a.25.25 0 0 1-.133-.038 28.35 28.35 0 0 1-8.592-8.352.252.252 0 0 1 .42-.279 27.842 27.842 0 0 0 8.439 8.202.252.252 0 0 1-.134.467Z" fill="#fff" fill-rule="evenodd" data-name="Path 40185"/><path d="M593.656 522.118a26.004 26.004 0 1 1 0 .1z" fill="#c9fcff" fill-rule="evenodd" data-name="Ellipse 796"/></g><g data-name="Group 178747"><path d="M728.071 917.134s-10.492-2.632-21.577-1.045a10.778 10.778 0 0 0-7.564 4.925c-3.033 4.799-7.32 13.351-6.414 22.27l4.76 1.178s3.29-10.585 6.992-14.893c0 0 4.385 9.994 4.163 15.483a8.73 8.73 0 0 1-.03.454c-.503 5.37 21.049 1.002 21.049 1.002l-1.379-29.374Z" fill-rule="evenodd" fill="url(&quot;#M&quot;)" transform="translate(-96.694 -400.146)" data-name="Path 40186"/><path d="m943.948 767.265-.479 7.442c-.045.692-.493 1.279-1.12 1.465-1.448.428-4.18.944-6.859-.135-.49-.197-.742-.778-.577-1.307l3.543-11.38 5.492 3.915Z" fill-rule="evenodd" fill="url(&quot;#N&quot;)" transform="translate(-321.036 -259.297)" data-name="Path 40187"/><g data-name="Group 178745"><path d="M960.065 671.552s2.263 5.199 2.415 7.927c.152 2.729.74 4.5-2.415 5.05-3.155.548-5.813-1.023-7.253-3.741 0 0-2.255-4.188-1.75-5.904.506-1.715 9.003-3.332 9.003-3.332Z" fill-rule="evenodd" fill="url(&quot;#O&quot;)" transform="translate(-335.956 -174.362)" data-name="Path 40188"/><path d="M903.64 608.565h.4s-1.644-3.37-.2-3.963c1.444-.592 7.164-1.759 8.398-3.788 1.19-1.957.128-4.484-1.459-5.192a.212.212 0 0 0-.27.1l-.132.25a.214.214 0 0 1-.395-.042c-.05-.175-.288-.213-.384-.058-.378.607-1.4 1.594-4.144 2.1-3.893.718-6.467 2.294-6.53 4.984a.214.214 0 0 1-.332.176c-.287-.175-.747-.257-1.362.26-1.069.898-.631 3.23 1.712 5.148.111.09.11.265-.01.343-.425.277-1.058.935.583 1.812 1.678.897 2.672.8 3.047.703a.215.215 0 0 0 .162-.221l-.148-2.385a.214.214 0 0 1 .215-.227h.85Z" fill-rule="evenodd" fill="url(&quot;#P&quot;)" transform="translate(-285.706 -104.093)" data-name="Path 40189"/><path d="M955.932 744.008s-.864-3.321-2.352-2.39c-1.49.931.772 3.72 1.97 3.845l.382-1.455Z" fill-rule="evenodd" fill="url(&quot;#Q&quot;)" transform="translate(-337.9 -239.037)" data-name="Path 40190"/></g><g data-name="Group 178746"><path d="M1107.206 957.76c.465-3.283-2.934-8.107-4.34-9.937a3.041 3.041 0 0 1-.632-1.824c-.041-4.648 1.91-7.633 5.037-9.637 0 0 11.349 13.221 8.46 23.391a8.553 8.553 0 0 1-1.408 2.85c-.456-3.831-4.885-4.667-7.117-4.844Z" fill-rule="evenodd" fill="url(&quot;#R&quot;)" transform="translate(-475.894 -419.374)" data-name="Path 40191"/><path d="m1112.696 1096.688.432-.049c-.367-3.218-3.19-7.191-4.388-8.75l-.345.265c1.175 1.53 3.946 5.425 4.3 8.534Z" fill-rule="evenodd" fill="url(&quot;#S&quot;)" transform="translate(-481.595 -559.573)" data-name="Path 40192"/><path d="M1021.295 1223.022c.04-.147.068-.3.09-.454 2.231.177 6.66 1.013 7.116 4.845-5.065 6.698-19.024 4.281-19.024 4.281v-2.606s10.72-1.992 11.818-6.066Z" fill-rule="evenodd" fill="url(&quot;#T&quot;)" transform="translate(-390.072 -684.183)" data-name="Path 40193"/></g><path d="M915.494 1291.592s-2.061-4.863-5.693-3.138c-3.632 1.725-3.346 2.854-3.346 2.854l9.04.284Z" fill-rule="evenodd" fill="url(&quot;#U&quot;)" transform="translate(-294.747 -744.8)" data-name="Path 40194"/><path d="M776.907 1305.043a.69.69 0 0 1-.711.635l-18.82-.657a.69.69 0 0 1-.634-.483l-.546-1.748a.69.69 0 0 1 .621-.894l6.863-.365a.689.689 0 0 1 .186.016l12.503 2.769a.69.69 0 0 1 .538.727Z" fill-rule="evenodd" fill="url(&quot;#V&quot;)" transform="translate(-155.697 -757.242)" data-name="Path 40195"/><path d="m771.229 1309.462-.518-2.413-7.05.336.464 2.002 7.104.075Z" fill-rule="evenodd" fill="url(&quot;#W&quot;)" transform="translate(-162.634 -762.348)" data-name="Path 40196"/><path d="M489.86 958.925c.4 3.26 2.194 16.505 2.708 20.29.072.532-.35 1-.888.984l-30.446-.871a.87.87 0 0 1-.825-.681l-4.736-21.33a.87.87 0 0 1 .9-1.057l32.474 1.902a.87.87 0 0 1 .813.763Z" fill-rule="evenodd" fill="url(&quot;#X&quot;)" transform="translate(122.348 -437.783)" data-name="Path 40197"/><path d="m664.907 1158.524 4.5 12.772-10.463.222-.872-12.917a1.004 1.004 0 0 1 1.068-1.069l4.887.324c.4.027.747.29.88.668Z" fill-rule="evenodd" fill="url(&quot;#Y&quot;)" transform="translate(-64.937 -624.008)" data-name="Path 40198"/><path d="M650.543 1330.78a.543.543 0 0 1-.517.712H633.64a.543.543 0 0 1-.543-.544v-.702c0-.31.258-.557.567-.543l16.386.702c.226.01.422.159.493.374Z" fill-rule="evenodd" fill="url(&quot;#Z&quot;)" transform="translate(-41.831 -783.308)" data-name="Path 40199"/></g></g><g data-name="Group 178749"><g data-name="Group 178733"><path d="M662.387 2830.405c1.244 1.329 3.077 2.477 4.366 3.192-1.926 2.38-4.531 4.764-7.98 7.097l-.65.562-.793.346-2.708-2.483s5.676-2.825 7.765-8.714Z" fill-rule="evenodd" fill="url(&quot;#aa&quot;)" transform="translate(103.53 -2298)" data-name="Path 40148"/><path d="M591.343 2445.183a26.129 26.129 0 0 0 2.66-4.06c1.044-1.973.085 1.276.37-.951 7.816-5.64 19.586-2.786 24.139-2.212a6.078 6.078 0 0 1 3.842 2.063c3.901 4.515 12.462 16.875 2.386 29.33-1.29-.716-3.122-1.863-4.367-3.191 1.115-3.143 1.206-7.159-1.13-12.084-.08.39-.178.777-.298 1.158-3.22 10.201-3.392 18.69-3.385 20.647.001.265.33 1.161.099 1.29-7.769 4.32-17.005.86-17.005.86 1.934-9.617-4.9-27.941-6.78-32.08a2.663 2.663 0 0 0-.531-.77Z" fill-rule="evenodd" fill="url(&quot;#ab&quot;)" transform="translate(145.543 -1933.756)" data-name="Path 40149"/><path d="m832.267 2340.614.817 8.346s-4.694 1.413-8.109-.996l2.4-7.584 4.892.234Z" fill-rule="evenodd" fill="url(&quot;#ac&quot;)" transform="translate(-75.537 -1844.61)" data-name="Path 40150"/><g data-name="Group 178731"><path d="M830.494 2211.948c-.113.106-4.768 9.249-4.768 9.249l5.276 2.547 5.7-8.01s-4.316-5.566-6.208-3.786Z" fill-rule="evenodd" fill="url(&quot;#ad&quot;)" transform="translate(-79.211 -1725.455)" data-name="Path 40151"/><path d="M794.819 2169.147a.843.843 0 0 1-.064.739l-2.631 4.387a.798.798 0 0 1-.145.18c-.313.291-1.385 1.14-2.213-.015-.707-.984-1.37-1.88-2.08-2.248a.84.84 0 0 0-1.135.373c-.433.86-1.273 2.611-1.8 4.273a.837.837 0 0 0 .487 1.027c1.068.433 3.18 1.216 5.054 1.474a.841.841 0 0 0 .795-.338c.807-1.104 3.079-4.19 3.854-4.963.72-.718 2.05-.447 2.65-.275.227.065.47.034.672-.088.608-.367 1.669-1.278.698-2.822a.843.843 0 0 1 .261-1.145c.679-.446 1.415-1.284.713-2.641-.71-1.374-1.978-1.498-2.842-1.392-.383.047-.77-.154-.917-.51a.556.556 0 0 0-.435-.342c-.452-.092-.75-.506-.66-.96.151-.777.037-1.787-1.204-2.469-2.277-1.252-4.271.788-4.778 2.51-.508 1.721 2.038 2.938 3.64 3.14 1.175.15 1.82 1.434 2.08 2.105Z" fill-rule="evenodd" fill="url(&quot;#ae&quot;)" transform="translate(-39.662 -1678.646)" data-name="Path 40152"/><path d="M817.152 2321.5s1.012-2.962 2.308-2.853c1.296.11 2.316 1.4.71 2.852-1.998 1.804-3.018.001-3.018.001Z" fill-rule="evenodd" fill="url(&quot;#af&quot;)" transform="translate(-62.861 -1824.499)" data-name="Path 40153"/></g><path d="M706.864 2530.17c1.708-4.675 1.088-10.32 1.082-10.376l-.47.054c.005.055.612 5.591-1.057 10.16l.445.161Z" fill-rule="evenodd" fill="url(&quot;#ag&quot;)" transform="translate(58.35 -2010.61)" data-name="Path 40154"/><g data-name="Group 178732"><path d="M927.175 2455.478c8.84 1.327 14.603-4.251 18.896-7.635 5.67-4.467 10.08-2.294 10.08-2.294l-6.045 11.538c-9.028 8.512-18.284 6.621-24.12 3.863a11.253 11.253 0 0 1 1.19-5.472Z" fill-rule="evenodd" fill="url(&quot;#ah&quot;)" transform="translate(-206.155 -1941.427)" data-name="Path 40155"/><path d="m1313.693 2514.357 2.932 1.578c3.515 2.14 6.662 3.271 9.493 3.696a11.246 11.246 0 0 0-1.19 5.472c-3.714-1.756-6.043-3.863-6.043-3.863-6.641-3.96-5.192-6.883-5.192-6.883Z" fill-rule="evenodd" fill="url(&quot;#ai&quot;)" transform="translate(-605.098 -2005.58)" data-name="Path 40156"/></g><path d="M1430.787 2481.937a2.162 2.162 0 0 1 1.265-1.383l5.95-2.393s.09-.763-1.258-1.281c-1.347-.519-1.032-2.028-1.032-2.028s1.84.84 4.534 2.171c1.54.761 2.405 2.106 2.864 3.118l-1.532 2.014c-3.667 1.102-7.378 1.312-11.12.875l.33-1.093Z" fill-rule="evenodd" fill="url(&quot;#aj&quot;)" transform="translate(-730.83 -1969.029)" data-name="Path 40157"/></g></g><g data-name="Group 178750"><g data-name="Group 178733"><path d="M662.387 2830.405c1.244 1.329 3.077 2.477 4.366 3.192-1.926 2.38-4.531 4.764-7.98 7.097l-.65.562-.793.346-2.708-2.483s5.676-2.825 7.765-8.714Z" fill-rule="evenodd" fill="url(&quot;#ak&quot;)" transform="translate(107.201 -2156.623)" data-name="Path 40148"/><path d="M591.343 2445.183a26.129 26.129 0 0 0 2.66-4.06c1.044-1.973.085 1.276.37-.951 7.816-5.64 19.586-2.786 24.139-2.212a6.078 6.078 0 0 1 3.842 2.063c3.901 4.515 12.462 16.875 2.386 29.33-1.29-.716-3.122-1.863-4.367-3.191 1.115-3.143 1.206-7.159-1.13-12.084-.08.39-.178.777-.298 1.158-3.22 10.201-3.392 18.69-3.385 20.647.001.265.33 1.161.099 1.29-7.769 4.32-17.005.86-17.005.86 1.934-9.617-4.9-27.941-6.78-32.08a2.663 2.663 0 0 0-.531-.77Z" fill-rule="evenodd" fill="url(&quot;#al&quot;)" transform="translate(149.215 -1792.379)" data-name="Path 40149"/><path d="m832.267 2340.614.817 8.346s-4.694 1.413-8.109-.996l2.4-7.584 4.892.234Z" fill-rule="evenodd" fill="url(&quot;#am&quot;)" transform="translate(-71.866 -1703.233)" data-name="Path 40150"/><g data-name="Group 178731"><path d="M830.494 2211.948c-.113.106-4.768 9.249-4.768 9.249l5.276 2.547 5.7-8.01s-4.316-5.566-6.208-3.786Z" fill-rule="evenodd" fill="url(&quot;#an&quot;)" transform="translate(-75.54 -1584.077)" data-name="Path 40151"/><path d="M794.819 2169.147a.843.843 0 0 1-.064.739l-2.631 4.387a.798.798 0 0 1-.145.18c-.313.291-1.385 1.14-2.213-.015-.707-.984-1.37-1.88-2.08-2.248a.84.84 0 0 0-1.135.373c-.433.86-1.273 2.611-1.8 4.273a.837.837 0 0 0 .487 1.027c1.068.433 3.18 1.216 5.054 1.474a.841.841 0 0 0 .795-.338c.807-1.104 3.079-4.19 3.854-4.963.72-.718 2.05-.447 2.65-.275.227.065.47.034.672-.088.608-.367 1.669-1.278.698-2.822a.843.843 0 0 1 .261-1.145c.679-.446 1.415-1.284.713-2.641-.71-1.374-1.978-1.498-2.842-1.392-.383.047-.77-.154-.917-.51a.556.556 0 0 0-.435-.342c-.452-.092-.75-.506-.66-.96.151-.777.037-1.787-1.204-2.469-2.277-1.252-4.271.788-4.778 2.51-.508 1.721 2.038 2.938 3.64 3.14 1.175.15 1.82 1.434 2.08 2.105Z" fill-rule="evenodd" fill="url(&quot;#ao&quot;)" transform="translate(-35.991 -1537.268)" data-name="Path 40152"/><path d="M817.152 2321.5s1.012-2.962 2.308-2.853c1.296.11 2.316 1.4.71 2.852-1.998 1.804-3.018.001-3.018.001Z" fill-rule="evenodd" fill="url(&quot;#ap&quot;)" transform="translate(-59.19 -1683.122)" data-name="Path 40153"/></g><path d="M706.864 2530.17c1.708-4.675 1.088-10.32 1.082-10.376l-.47.054c.005.055.612 5.591-1.057 10.16l.445.161Z" fill-rule="evenodd" fill="url(&quot;#aq&quot;)" transform="translate(62.021 -1869.233)" data-name="Path 40154"/><g data-name="Group 178732"><path d="M927.175 2455.478c8.84 1.327 14.603-4.251 18.896-7.635 5.67-4.467 10.08-2.294 10.08-2.294l-6.045 11.538c-9.028 8.512-18.284 6.621-24.12 3.863a11.253 11.253 0 0 1 1.19-5.472Z" fill-rule="evenodd" fill="url(&quot;#ar&quot;)" transform="translate(-202.484 -1800.05)" data-name="Path 40155"/><path d="m1313.693 2514.357 2.932 1.578c3.515 2.14 6.662 3.271 9.493 3.696a11.246 11.246 0 0 0-1.19 5.472c-3.714-1.756-6.043-3.863-6.043-3.863-6.641-3.96-5.192-6.883-5.192-6.883Z" fill-rule="evenodd" fill="url(&quot;#as&quot;)" transform="translate(-601.427 -1864.202)" data-name="Path 40156"/></g><path d="M1430.787 2481.937a2.162 2.162 0 0 1 1.265-1.383l5.95-2.393s.09-.763-1.258-1.281c-1.347-.519-1.032-2.028-1.032-2.028s1.84.84 4.534 2.171c1.54.761 2.405 2.106 2.864 3.118l-1.532 2.014c-3.667 1.102-7.378 1.312-11.12.875l.33-1.093Z" fill-rule="evenodd" fill="url(&quot;#at&quot;)" transform="translate(-727.158 -1827.651)" data-name="Path 40157"/></g></g></g><defs><linearGradient x1=".178" y1="1.716" x2=".236" y2=".19" id="a"><stop stop-color="rgba(29,144,152,0.35 )" offset="0"/><stop stop-color="#dffdff" offset="1"/></linearGradient><linearGradient x1="0" y1=".5" x2="1" y2=".5" id="b"><stop stop-color="#dae3fe" offset="0"/><stop stop-color="#e9effd" offset="1"/></linearGradient><linearGradient x1="0" y1=".5" x2="1" y2=".5" id="c"><stop stop-color="#dae3fe" offset="0"/><stop stop-color="#e9effd" offset="1"/></linearGradient><linearGradient x1="0" y1=".5" x2="1" y2=".5" id="d"><stop stop-color="#dae3fe" offset="0"/><stop stop-color="#e9effd" offset="1"/></linearGradient><linearGradient x1="0" y1=".5" x2="1" y2=".5" id="e"><stop stop-color="#dae3fe" offset="0"/><stop stop-color="#e9effd" offset="1"/></linearGradient><linearGradient x1=".055" y1=".5" x2=".945" y2=".5" id="f"><stop stop-color="#1d9098" offset="0"/><stop stop-color="#4042e2" offset="1"/></linearGradient><linearGradient x1=".055" y1=".5" x2=".945" y2=".5" id="g"><stop stop-color="#1d9098" offset="0"/><stop stop-color="#4042e2" offset="1"/></linearGradient><linearGradient x1=".089" y1=".5" x2=".911" y2=".5" id="h"><stop stop-color="#1d9098" offset="0"/><stop stop-color="#4042e2" offset="1"/></linearGradient><linearGradient x1=".055" y1=".5" x2=".945" y2=".5" id="i"><stop stop-color="#1d9098" offset="0"/><stop stop-color="#4042e2" offset="1"/></linearGradient><linearGradient x1="1.134" y1="-.631" x2="-.366" y2="2.044" id="j"><stop stop-color="#1d9098" offset="0"/><stop stop-color="#1d9098" offset="1"/></linearGradient><linearGradient x1="0" y1=".5" x2="1" y2=".5" id="k"><stop stop-color="#dae3fe" offset="0"/><stop stop-color="#e9effd" offset="1"/></linearGradient><linearGradient x1=".361" y1="1.881" x2=".51" y2=".385" id="m"><stop stop-color="#febbba" offset="0"/><stop stop-color="#ff928e" offset="1"/></linearGradient><linearGradient x1="1.504" y1="-.425" x2=".633" y2=".44" id="n"><stop stop-color="#09005d" offset="0"/><stop stop-color="#1a0f91" offset="1"/></linearGradient><linearGradient x1=".53" y1=".952" x2=".493" y2=".191" id="o"><stop stop-color="#febbba" offset="0"/><stop stop-color="#ff928e" offset="1"/></linearGradient><linearGradient x1=".634" y1="2.157" x2=".371" y2="-.947" id="p"><stop stop-color="#febbba" offset="0"/><stop stop-color="#ff928e" offset="1"/></linearGradient><linearGradient x1=".605" y1="2.226" x2=".399" y2="-1.045" id="q"><stop stop-color="#febbba" offset="0"/><stop stop-color="#ff928e" offset="1"/></linearGradient><linearGradient x1="-.382" y1="-2.02" x2="1.066" y2="1.655" id="r"><stop stop-color="#09005d" offset="0"/><stop stop-color="#1a0f91" offset="1"/></linearGradient><linearGradient x1="-.022" y1="-.9" x2="1.22" y2="2.65" id="s"><stop stop-color="#09005d" offset="0"/><stop stop-color="#1a0f91" offset="1"/></linearGradient><linearGradient x1="1.274" y1=".023" x2=".383" y2=".908" id="t"><stop stop-color="#09005d" offset="0"/><stop stop-color="#1a0f91" offset="1"/></linearGradient><linearGradient x1="24.024" y1="-32.011" x2="17.765" y2="-23.365" id="u"><stop stop-color="#ff928e" offset="0"/><stop stop-color="#fe7062" offset="1"/></linearGradient><linearGradient x1="17.015" y1="-4.075" x2="12.892" y2="-2.943" id="v"><stop stop-color="#ff928e" offset="0"/><stop stop-color="#fe7062" offset="1"/></linearGradient><linearGradient x1="1.486" y1="-.223" x2=".537" y2=".533" id="w"><stop stop-color="#09005d" offset="0"/><stop stop-color="#1a0f91" offset="1"/></linearGradient><linearGradient x1="1.101" y1="-.005" x2=".119" y2=".744" id="x"><stop stop-color="#09005d" offset="0"/><stop stop-color="#1a0f91" offset="1"/></linearGradient><linearGradient x1="1.134" y1="-.631" x2="-.366" y2="2.044" id="y"><stop stop-color="#1d9098" offset="0"/><stop stop-color="#4042e2" offset="1"/></linearGradient><linearGradient x1="-43.014" y1=".5" x2="-42.014" y2=".5" id="z"><stop stop-color="#febbba" offset="0"/><stop stop-color="#ff928e" offset="1"/></linearGradient><linearGradient x1="13.42" y1="-28.224" x2="12.309" y2="-27.087" id="A"><stop stop-color="#a8d04c" offset="0"/><stop stop-color="#94d500" offset="1"/></linearGradient><linearGradient x1="-63.63" y1="-.222" x2="-64.448" y2="2.966" id="B"><stop stop-color="#febbba" offset="0"/><stop stop-color="#ff928e" offset="1"/></linearGradient><linearGradient x1="-44.937" y1="-43.081" x2="-46.009" y2="-41.799" id="C"><stop stop-color="#febbba" offset="0"/><stop stop-color="#ff928e" offset="1"/></linearGradient><linearGradient x1=".33" y1=".152" x2=".965" y2="2.043" id="D"><stop stop-color="#09005d" offset="0"/><stop stop-color="#1a0f91" offset="1"/></linearGradient><linearGradient x1="-132.724" y1="-141.924" x2="-130.267" y2="-144.573" id="E"><stop stop-color="#febbba" offset="0"/><stop stop-color="#ff928e" offset="1"/></linearGradient><linearGradient x1="136.287" y1="-24.059" x2="110.469" y2="-19.39" id="F"><stop stop-color="#a8d04c" offset="0"/><stop stop-color="#4e6a0d" offset="1"/></linearGradient><linearGradient x1="16.304" y1="-65.656" x2="14.899" y2="-63.003" id="G"><stop stop-color="#94d500" offset="0"/><stop stop-color="#a8d04c" offset="1"/></linearGradient><linearGradient x1="-44.414" y1="-1.461" x2="-47.646" y2="3.372" id="H"><stop stop-color="#febbba" offset="0"/><stop stop-color="#ff928e" offset="1"/></linearGradient><linearGradient x1="-44.35" y1="-1.014" x2="-47.559" y2="5.177" id="I"><stop stop-color="#febbba" offset="0"/><stop stop-color="#ff928e" offset="1"/></linearGradient><linearGradient x1="-.836" y1="-.631" x2="-2.336" y2="2.044" id="J"><stop stop-color="#1d9098" offset="0"/><stop stop-color="#1d9098" offset="1"/></linearGradient><linearGradient x1="-.811" y1="-.631" x2="-2.311" y2="2.044" id="K"><stop stop-color="#1d9098" offset="0"/><stop stop-color="#1d9098" offset="1"/></linearGradient><linearGradient x1="1.134" y1="-.631" x2="-.366" y2="2.044" id="L"><stop stop-color="#1d9098" offset="0"/><stop stop-color="#1d9098" offset="1"/></linearGradient><linearGradient x1="32.392" y1="-53.855" x2="31.248" y2="-52.369" id="M"><stop stop-color="#ff928e" offset="0"/><stop stop-color="#fe7062" offset="1"/></linearGradient><linearGradient x1=".016" y1="1.099" x2="1.007" y2=".106" id="N"><stop stop-color="#febbba" offset="0"/><stop stop-color="#ff928e" offset="1"/></linearGradient><linearGradient x1=".261" y1=".662" x2=".91" y2=".408" id="O"><stop stop-color="#febbba" offset="0"/><stop stop-color="#ff928e" offset="1"/></linearGradient><linearGradient x1="-.514" y1="1.226" x2="1.024" y2=".11" id="P"><stop stop-color="#09005d" offset="0"/><stop stop-color="#1a0f91" offset="1"/></linearGradient><linearGradient x1=".756" y1=".445" x2="3.415" y2="-.385" id="Q"><stop stop-color="#febbba" offset="0"/><stop stop-color="#ff928e" offset="1"/></linearGradient><linearGradient x1="82.938" y1="-67.345" x2="79.903" y2="-65.498" id="R"><stop stop-color="#ff928e" offset="0"/><stop stop-color="#fe7062" offset="1"/></linearGradient><linearGradient x1="33.433" y1="-19.732" x2="24.477" y2="-14.226" id="S"><stop stop-color="#ff928e" offset="0"/><stop stop-color="#fe7062" offset="1"/></linearGradient><linearGradient x1="-20.577" y1="-.394" x2="-20.143" y2="1.885" id="T"><stop stop-color="#febbba" offset="0"/><stop stop-color="#ff928e" offset="1"/></linearGradient><linearGradient x1="-41.295" y1="-3.58" x2="-40.381" y2="2.625" id="U"><stop stop-color="#febbba" offset="0"/><stop stop-color="#ff928e" offset="1"/></linearGradient><linearGradient x1="-16.597" y1="-1.365" x2="-16.803" y2="-.035" id="V"><stop stop-color="#09005d" offset="0"/><stop stop-color="#1a0f91" offset="1"/></linearGradient><linearGradient x1="-45.149" y1="-1.488" x2="-45.715" y2=".798" id="W"><stop stop-color="#09005d" offset="0"/><stop stop-color="#1a0f91" offset="1"/></linearGradient><linearGradient x1="-.038" y1="-.676" x2=".567" y2=".605" id="X"><stop stop-color="#09005d" offset="0"/><stop stop-color="#1a0f91" offset="1"/></linearGradient><linearGradient x1="-29.394" y1="-.247" x2="-29.01" y2="1.667" id="Y"><stop stop-color="#09005d" offset="0"/><stop stop-color="#1a0f91" offset="1"/></linearGradient><linearGradient x1="-19.077" y1="-.421" x2="-18.342" y2="4.282" id="Z"><stop stop-color="#09005d" offset="0"/><stop stop-color="#1a0f91" offset="1"/></linearGradient><linearGradient x1="44.014" y1=".5" x2="43.014" y2=".5" id="aa"><stop stop-color="#febbba" offset="0"/><stop stop-color="#ff928e" offset="1"/></linearGradient><linearGradient x1="-12.42" y1="-28.224" x2="-11.309" y2="-27.087" id="ab"><stop stop-color="#affaff" offset="0"/><stop stop-color="#1d9098" offset="1"/></linearGradient><linearGradient x1="64.63" y1="-.222" x2="65.448" y2="2.966" id="ac"><stop stop-color="#febbba" offset="0"/><stop stop-color="#ff928e" offset="1"/></linearGradient><linearGradient x1="45.937" y1="-43.081" x2="47.009" y2="-41.799" id="ad"><stop stop-color="#febbba" offset="0"/><stop stop-color="#ff928e" offset="1"/></linearGradient><linearGradient x1=".67" y1=".152" x2=".035" y2="2.043" id="ae"><stop stop-color="#09005d" offset="0"/><stop stop-color="#1a0f91" offset="1"/></linearGradient><linearGradient x1="133.724" y1="-141.924" x2="131.267" y2="-144.573" id="af"><stop stop-color="#febbba" offset="0"/><stop stop-color="#ff928e" offset="1"/></linearGradient><linearGradient x1="-135.287" y1="-24.059" x2="-109.469" y2="-19.39" id="ag"><stop stop-color="#1d9098" offset="0"/><stop stop-color="#007078" offset="1"/></linearGradient><linearGradient x1="-15.304" y1="-65.656" x2="-13.899" y2="-63.003" id="ah"><stop stop-color="#c1f8fc" offset="0"/><stop stop-color="#1d9098" offset="1"/></linearGradient><linearGradient x1="45.414" y1="-1.461" x2="48.646" y2="3.372" id="ai"><stop stop-color="#febbba" offset="0"/><stop stop-color="#ff928e" offset="1"/></linearGradient><linearGradient x1="45.35" y1="-1.014" x2="48.559" y2="5.177" id="aj"><stop stop-color="#febbba" offset="0"/><stop stop-color="#ff928e" offset="1"/></linearGradient><linearGradient x1="44.014" y1=".5" x2="43.014" y2=".5" id="ak"><stop stop-color="#febbba" offset="0"/><stop stop-color="#ff928e" offset="1"/></linearGradient><linearGradient x1="-12.42" y1="-28.224" x2="-11.309" y2="-27.087" id="al"><stop stop-color="#b7bff8" offset="0"/><stop stop-color="#212c80" offset="1"/></linearGradient><linearGradient x1="64.63" y1="-.222" x2="65.448" y2="2.966" id="am"><stop stop-color="#febbba" offset="0"/><stop stop-color="#ff928e" offset="1"/></linearGradient><linearGradient x1="45.937" y1="-43.081" x2="47.009" y2="-41.799" id="an"><stop stop-color="#febbba" offset="0"/><stop stop-color="#ff928e" offset="1"/></linearGradient><linearGradient x1=".67" y1=".152" x2=".035" y2="2.043" id="ao"><stop stop-color="#09005d" offset="0"/><stop stop-color="#1a0f91" offset="1"/></linearGradient><linearGradient x1="133.724" y1="-141.924" x2="131.267" y2="-144.573" id="ap"><stop stop-color="#febbba" offset="0"/><stop stop-color="#ff928e" offset="1"/></linearGradient><linearGradient x1="-135.287" y1="-24.059" x2="-109.469" y2="-19.39" id="aq"><stop stop-color="#212c80" offset="0"/><stop stop-color="#000846" offset="1"/></linearGradient><linearGradient x1="-15.304" y1="-65.656" x2="-13.899" y2="-63.003" id="ar"><stop stop-color="#b7bff8" offset="0"/><stop stop-color="#212c80" offset="1"/></linearGradient><linearGradient x1="45.414" y1="-1.461" x2="48.646" y2="3.372" id="as"><stop stop-color="#febbba" offset="0"/><stop stop-color="#ff928e" offset="1"/></linearGradient><linearGradient x1="45.35" y1="-1.014" x2="48.559" y2="5.177" id="at"><stop stop-color="#febbba" offset="0"/><stop stop-color="#ff928e" offset="1"/></linearGradient><clipPath id="l"><path d="M0 41.924a42.024 42.024 0 1 1 0 .1z" data-name="Ellipse 788"/></clipPath></defs></svg>