<svg xmlns="http://www.w3.org/2000/svg" width="25.182" height="17.312" viewBox="1071.909 465.844 25.182 17.312"><g data-name="email"><g data-name="Group 177235"><g data-name="Group 177234"><path d="m1088.601 474.629 8.49 5.367v-10.96l-8.49 5.593Z" fill="#1d9098" fill-rule="evenodd" data-name="Path 41015"/></g></g><g data-name="Group 177237"><g data-name="Group 177236"><path d="M1071.91 469.036v10.96l8.489-5.367-8.49-5.593Z" fill="#1d9098" fill-rule="evenodd" data-name="Path 41016"/></g></g><g data-name="Group 177239"><g data-name="Group 177238"><path d="M1095.517 465.844h-22.034c-.785 0-1.409.585-1.527 1.34l12.544 8.263 12.544-8.264c-.118-.754-.742-1.34-1.527-1.34Z" fill="#1d9098" fill-rule="evenodd" data-name="Path 41017"/></g></g><g data-name="Group 177241"><g data-name="Group 177240"><path d="m1087.16 475.58-2.227 1.466a.786.786 0 0 1-.866 0l-2.227-1.468-9.88 6.25c.12.747.74 1.328 1.523 1.328h22.034c.782 0 1.402-.58 1.523-1.328l-9.88-6.248Z" fill="#1d9098" fill-rule="evenodd" data-name="Path 41018"/></g></g></g></svg>