<svg xmlns="http://www.w3.org/2000/svg" width="363.039" height="289.557" viewBox="0 0 363.039 289.557">
  <g id="Group_176443" data-name="Group 176443" transform="translate(-220.496 -591.056)">
    <path id="Path_38697" data-name="Path 38697" d="M2884.656,1372.466c13.567-8.41,17.706,18.084,26.116,31.651s28.829,19.153,15.261,27.563-36.473-2.617-47.66-14C2862.106,1401.124,2871.089,1380.877,2884.656,1372.466Z" transform="translate(-2383.497 -701.601)" fill="#f8f0e3"/>
    <path id="Path_38698" data-name="Path 38698" d="M363.947,973.1c-16.809-19.783-6.221-31.162,18.112-36.991,25.175-6.031,12.166-70.432,28.62-58.186,20.79,15.474,17.937,54.977,11.464,74.439C412.683,980.8,392.641,1006.873,363.947,973.1Z" transform="translate(-121.704 -256.714)" fill="#f8f0e3"/>
    <g id="Group_176385" data-name="Group 176385" transform="translate(220.496 591.056)" opacity="0.1">
      <path id="Path_38699" data-name="Path 38699" d="M583.535,824.311a52.566,52.566,0,0,1-3.3,18.418,38.885,38.885,0,0,1-5.455,9.865,29.035,29.035,0,0,1-8.287,7.476,58.232,58.232,0,0,1-19.147,6.588,171.84,171.84,0,0,1-20.494,2.065q-4.488.258-9,.414t-9.017.156c-3.9,0-7.8-.1-11.693-.316s-7.772-.568-11.632-1.07q-3.932-.51-7.842-1.155t-7.807-1.378c-3.311-.624-6.616-1.293-9.917-1.983s-6.6-1.4-9.9-2.113-6.6-1.423-9.9-2.115-6.608-1.357-9.918-1.983c-1.065-.2-2.134-.409-3.218-.619-3.072-.6-6.212-1.21-9.358-1.672a64.977,64.977,0,0,0-9.4-.775,37.759,37.759,0,0,0-6.3.5,28.024,28.024,0,0,0-6.021,1.7c-.818.337-1.62.712-2.413,1.107s-1.58.81-2.366,1.224c-.964.509-1.93,1.017-2.912,1.49a30.519,30.519,0,0,1-3.007,1.279c-2.57.915-7.874,2.216-7.874,2.216s-7.456,1.876-11.147,2.939c-1.062.3-2.108.613-3.167.926-1.71.507-3.406,1.017-5.115,1.531s-3.413,1.028-5.113,1.532l-.343.1c-7.245,2.147-14.545,4.308-21.919,6.074a141.24,141.24,0,0,1-22.359,3.7q-2.515.188-5.041.185a83.744,83.744,0,0,1-17.177-1.888,118.815,118.815,0,0,1-16.625-4.86A107.225,107.225,0,0,1,251.6,865.52a69.931,69.931,0,0,1-15.3-12.071,49.411,49.411,0,0,1-10.04-17.051,92,92,0,0,1-4.542-19.633c-.526-4.1-.9-8.242-1.083-12.4q-.14-3.059-.14-6.122a116.218,116.218,0,0,1,1.94-21.593,64.53,64.53,0,0,1,3.164-11.808,22.267,22.267,0,0,1,6.746-9.634,26.167,26.167,0,0,1,10.823-4.6,89.082,89.082,0,0,1,12.044-1.389l.146-.01.14-.01c2.533-.173,5.2-.284,7.918-.4,7.359-.3,15.155-.629,22.1-2.275s13.028-4.611,16.97-10.2a46.424,46.424,0,0,0,4.76-8.638,66.853,66.853,0,0,0,3.137-9.4c.785-3.029,1.417-6.129,1.969-9.265s1.03-6.31,1.5-9.484.95-6.341,1.5-9.474,1.181-6.23,1.965-9.253c.767-2.957,1.7-5.862,2.729-8.736s2.169-5.713,3.352-8.535c.942-2.248,1.911-4.481,2.88-6.716s1.935-4.463,2.872-6.7c2.588-6.18,5.2-12.418,8.171-18.46q.517-1.054,1.049-2.1a107.705,107.705,0,0,1,9.212-15.182,58.766,58.766,0,0,1,3.78-4.617,53.843,53.843,0,0,1,3.976-3.96,44.1,44.1,0,0,1,9.471-6.551A74.026,74.026,0,0,1,383.04,593a95.66,95.66,0,0,1,19.5-1.941c3.076,0,6.146.135,9.188.391s6.052.639,9.009,1.131a65.479,65.479,0,0,1,25.59,10.632,82.712,82.712,0,0,1,20.177,19.419A79.171,79.171,0,0,1,473.651,634a35.7,35.7,0,0,1,3.835,12.633c.1,1.093.143,2.182.143,3.268a44.553,44.553,0,0,1-.6,7.079,73.4,73.4,0,0,1-2.147,9.1c-.9,3.019-1.925,6.029-2.955,9.042-1.035,3.031-2.073,6.063-2.974,9.11a73.9,73.9,0,0,0-2.171,9.2,31.352,31.352,0,0,0-.391,4.982,32.554,32.554,0,0,0,6.443,19.7,62.987,62.987,0,0,0,8.988,9.171,123.807,123.807,0,0,0,10.409,7.768c2.217,1.507,4.467,2.978,6.706,4.443s4.451,2.91,6.629,4.39c.852.579,1.7,1.171,2.546,1.765,2.418,1.705,4.8,3.469,7.157,5.261s4.7,3.61,7.035,5.428,4.677,3.637,7.035,5.428,4.738,3.554,7.157,5.261,4.866,3.388,7.311,5.07c4.406,3.031,8.819,6.065,13.1,9.259a136.273,136.273,0,0,1,12.3,10.221,55.7,55.7,0,0,1,6.963,7.878,39.619,39.619,0,0,1,3.027,4.916,32.124,32.124,0,0,1,1.843,4.311A48.617,48.617,0,0,1,583.535,824.311Z" transform="translate(-220.496 -591.056)" fill="#fe0000"/>
    </g>
    <rect id="Rectangle_162449" data-name="Rectangle 162449" width="46.35" height="19.799" transform="translate(251.88 775.404)" fill="#f4e5ce"/>
    <rect id="Rectangle_162450" data-name="Rectangle 162450" width="46.35" height="19.799" transform="translate(320.334 746.048)" fill="#f4e5ce"/>
    <rect id="Rectangle_162451" data-name="Rectangle 162451" width="46.35" height="19.799" transform="translate(457.517 761.159)" fill="#f4e5ce"/>
    <rect id="Rectangle_162452" data-name="Rectangle 162452" width="46.35" height="19.799" transform="translate(393.748 637.029)" fill="#f4e5ce"/>
    <path id="Path_38700" data-name="Path 38700" d="M1424.359,777.648v19.8h-28.311a107.694,107.694,0,0,1,9.213-15.182,58.745,58.745,0,0,1,3.78-4.617Z" transform="translate(-1057.675 -167.882)" fill="#f4e5ce"/>
    <path id="Path_38701" data-name="Path 38701" d="M584.787,2738.295c0,.452-.006.906-.018,1.358-.011.429-.027.855-.048,1.284a52.219,52.219,0,0,1-3.236,15.776,39.629,39.629,0,0,1-2.811,5.911q-.387.674-.81,1.332c-.573.9-1.184,1.778-1.834,2.623a29.03,29.03,0,0,1-8.287,7.476,47.53,47.53,0,0,1-7,3.316c-.411.159-.821.31-1.237.456a69.475,69.475,0,0,1-10.91,2.816,171.93,171.93,0,0,1-20.494,2.065q-4.488.257-9,.414t-9.017.156c-3.9,0-7.8-.1-11.693-.316s-7.772-.568-11.632-1.07q-3.932-.51-7.842-1.155t-7.807-1.378c-3.311-.624-6.616-1.293-9.917-1.983s-6.6-1.4-9.9-2.113-6.6-1.423-9.9-2.115-6.608-1.357-9.918-1.983c-1.065-.2-2.134-.409-3.218-.619-3.072-.6-6.212-1.21-9.358-1.672a65,65,0,0,0-9.4-.775,37.74,37.74,0,0,0-6.3.5,28.006,28.006,0,0,0-6.021,1.7c-.818.337-1.62.712-2.413,1.107s-1.58.81-2.366,1.224c-.964.509-1.93,1.017-2.912,1.49a30.638,30.638,0,0,1-3.007,1.279c-2.57.915-7.874,2.215-7.874,2.215s-7.456,1.875-11.147,2.939c-1.062.3-2.108.613-3.167.926-1.71.507-3.406,1.017-5.115,1.531s-3.413,1.028-5.113,1.532l-.343.1q-1.694.5-3.395,1-2.192.645-4.394,1.284c-4.682,1.353-9.391,2.65-14.13,3.786a141.2,141.2,0,0,1-22.359,3.7q-2.515.188-5.041.185a83.752,83.752,0,0,1-17.177-1.888,118.826,118.826,0,0,1-16.625-4.86q-1.213-.448-2.424-.922-1.576-.619-3.146-1.284a100.8,100.8,0,0,1-12.193-6.138,69.93,69.93,0,0,1-15.3-12.072,40.035,40.035,0,0,1-2.922-3.5q-.474-.633-.923-1.284a54.315,54.315,0,0,1-6.2-12.267,79.159,79.159,0,0,1-2.755-9.443c-.1-.428-.191-.855-.282-1.284-.637-2.978-1.128-5.966-1.5-8.906-.526-4.1-.9-8.242-1.083-12.4h358.56a32.146,32.146,0,0,1,1.843,4.311A48.617,48.617,0,0,1,584.787,2738.295Z" transform="translate(-1.252 -1913.983)" fill="#ffdbdb"/>
    <g id="Group_176389" data-name="Group 176389" transform="translate(241.17 683.405)">
      <path id="Path_38702" data-name="Path 38702" d="M684.285,1512.535s-5.041,3.781-3.6,15.357,9.938,22.522,10.658,24.683,3.457,10.658,1.44,17.571,1.3,15.411,5.041,17,8.642-4.177,7.777-12.818-.231-16.364,1.729-20.74c6.481-14.475-4.753-26.069-9.074-30.966S689.9,1509.943,684.285,1512.535Z" transform="translate(-654.98 -1512.02)" fill="#6dc6af"/>
      <path id="Path_38703" data-name="Path 38703" d="M934.324,1729.331s-2.3-4.465-9.218-1.728-14.474,16.851-16.167,27.941-5.005,10.658-6.3,17.859,3.529,11.81,6.3,11.522,11.27-5.329,10.262-17.571.576-15.843,6.193-19.732S937.2,1735.668,934.324,1729.331Z" transform="translate(-854.716 -1705.187)" fill="#89efd2"/>
      <path id="Path_38704" data-name="Path 38704" d="M431.129,1661.147c-4.417,2.325-7.778,8.21,1.152,19.156s8.066,8.642,9.218,16.131,1.584,12.1,6.625,16.419,9.362,4.177,11.378,9.074,7.057,1.152,6.625-1.3,3.6-8.642-6.769-23.909-8.583-14.4-9.477-20.02S442.075,1655.386,431.129,1661.147Z" transform="translate(-426.667 -1645.069)" fill="#89efd2"/>
      <g id="Group_176386" data-name="Group 176386" transform="translate(8.953 21.689)">
        <path id="Path_38705" data-name="Path 38705" d="M552.942,1815.711a.9.9,0,0,1-.9-.867c-.943-25.8-33.146-81.161-35.738-84.879a.9.9,0,0,1-.288-.4.908.908,0,0,1,1.179-1.185c.323.13.4.161,2.1,3.011,1.151,1.928,2.6,4.438,4.074,7.068,2.947,5.251,7.452,13.53,12.171,23.156,8.062,16.444,17.781,39.016,18.3,53.162a.9.9,0,0,1-.867.932Zm-35.232-86.76v0Z" transform="translate(-515.953 -1728.316)" fill="#6dc6af"/>
      </g>
      <g id="Group_176387" data-name="Group 176387" transform="translate(47.851 26.7)">
        <path id="Path_38706" data-name="Path 38706" d="M904.766,1858.518q-.044,0-.088,0a.9.9,0,0,1-.809-.983c3.359-34.708,9.2-54.28,13.514-64.587,4.741-11.333,8.718-14.351,8.885-14.474a.9.9,0,0,1,1.072,1.447c-.053.041-3.877,3.035-8.435,14.059-4.214,10.192-9.932,29.521-13.243,63.729A.9.9,0,0,1,904.766,1858.518Z" transform="translate(-903.865 -1778.295)" fill="#6dc6af"/>
      </g>
      <g id="Group_176388" data-name="Group 176388" transform="translate(36.401 13.09)">
        <path id="Path_38707" data-name="Path 38707" d="M800.388,1738.555a.9.9,0,0,1-.829-.55c-.866-2.046-2.464-11.074-3.212-22.7-.641-9.962-.815-24.393,2-36.571a39.1,39.1,0,0,0-2.282-25.492,32.154,32.154,0,0,0-6.1-9.127.9.9,0,0,1,1.237-1.308,33.24,33.24,0,0,1,6.464,9.6,40.867,40.867,0,0,1,2.437,26.728c-5.206,22.515-.308,54.8,1.115,58.165a.9.9,0,0,1-.829,1.251Z" transform="translate(-789.683 -1642.561)" fill="#89efd2"/>
      </g>
    </g>
    <g id="Group_176390" data-name="Group 176390" transform="translate(223.223 825.67)">
      <path id="Path_38708" data-name="Path 38708" d="M364.932,2930.784v1.283H247.978c-.1-.428-.191-.855-.282-1.283Z" transform="translate(-247.696 -2930.784)" fill="#e5b5a3"/>
    </g>
    <g id="Group_176391" data-name="Group 176391" transform="translate(232.457 848.664)">
      <path id="Path_38709" data-name="Path 38709" d="M453.529,3160.1v1.284H340.7q-.474-.633-.923-1.284Z" transform="translate(-339.776 -3160.096)" fill="#e5b5a3"/>
    </g>
    <g id="Group_176392" data-name="Group 176392" transform="translate(461.706 825.67)">
      <path id="Path_38710" data-name="Path 38710" d="M2747.812,2930.784c-.011.428-.027.855-.048,1.283H2626v-1.283Z" transform="translate(-2626 -2930.784)" fill="#e5b5a3"/>
    </g>
    <g id="Group_176393" data-name="Group 176393" transform="translate(449.928 848.64)">
      <path id="Path_38711" data-name="Path 38711" d="M2636.038,3159.856q-.387.674-.81,1.332H2508.544v-1.332Z" transform="translate(-2508.544 -3159.856)" fill="#e5b5a3"/>
    </g>
    <g id="Group_176394" data-name="Group 176394" transform="translate(304.811 804.018)">
      <rect id="Rectangle_162453" data-name="Rectangle 162453" width="1.284" height="27.463" transform="translate(0 0.702) rotate(-33.148)" fill="#e5b5a3"/>
    </g>
    <g id="Group_176395" data-name="Group 176395" transform="translate(271.324 783.285)">
      <path id="Path_38712" data-name="Path 38712" d="M765,2508.094v21.625a12.842,12.842,0,0,1-12.842,12.842h-12.01a12.846,12.846,0,0,1-12.763-12.842v-21.625Z" transform="translate(-727.383 -2508.094)" fill="#d2dfff"/>
      <path id="Path_38713" data-name="Path 38713" d="M801.79,2542.561a13.758,13.758,0,0,1-6.635-11.779v-22.688h-6.628v22.688a13.771,13.771,0,0,0,6.632,11.779Z" transform="translate(-782.396 -2508.094)" fill="#f8f0e3"/>
    </g>
    <g id="Group_176396" data-name="Group 176396" transform="translate(353.271 640.209)">
      <path id="Path_38714" data-name="Path 38714" d="M1566.168,1093.655c-.083-.025-5.745-12.468-5.926-12.408-7.132,2.358-11.9,5.461-15.622,11.032-.04.028.473,5.516.461,5.553a28.834,28.834,0,0,0,4.038,1.49C1555.364,1101.451,1561.2,1097.208,1566.168,1093.655Zm-5.864-12.31-.055.035-.029-.059Zm5.76,12.36-.021-.047.04-.027Z" transform="translate(-1544.617 -1081.247)" fill="#fbaf83"/>
    </g>
    <g id="Group_176397" data-name="Group 176397" transform="translate(363.254 684.625)">
      <path id="Path_38715" data-name="Path 38715" d="M1679.734,1529.492a.059.059,0,0,0-.038-.037l-19.232-5.266a.057.057,0,0,0-.069.035c-.9,2.416-1.807,4.831-2.814,7.157q-.161.375-.327.746a45.379,45.379,0,0,1-3.106,5.895,44.265,44.265,0,0,1-4.473,5.787c-1.63,1.816-3.366,3.549-5.1,5.281a.057.057,0,0,0-.018.034l0,.021a33.64,33.64,0,0,0-.377,4.236,8.817,8.817,0,0,0,.425,2.918,7.9,7.9,0,0,0,1.734,2.716,28.02,28.02,0,0,0,2.511,2.293.05.05,0,0,0,.035.014l10.228.3a.051.051,0,0,0,.026-.007l10.363-4.759a.063.063,0,0,0,.034-.056c-.024-.663-.048-1.325-.048-2.03a25.747,25.747,0,0,1,.428-4.719,41.239,41.239,0,0,1,1.234-4.948,41.7,41.7,0,0,1,1.686-4.473c.148-.327.3-.655.456-.979a45.657,45.657,0,0,1,2.987-5.173c1.1-1.67,2.275-3.3,3.451-4.933A.058.058,0,0,0,1679.734,1529.492Zm-35.067,19.668-.013.013.016-.034Zm4.218,12.047h.022l.014.013Zm11.617-36.943-.019.051-.05-.014Zm-1.415,37.244.015-.006h.011Zm10.328-4.706c0-.013,0-.024,0-.037l.037-.018Zm10.17-27.259.048-.067.032.09Z" transform="translate(-1644.176 -1524.187)" fill="#fbaf83"/>
    </g>
    <path id="Path_38716" data-name="Path 38716" d="M1797.065,1529.545c-1.176,1.632-2.354,3.263-3.451,4.933a45.62,45.62,0,0,0-2.987,5.173c-.157.324-.308.651-.456.979-9.567.74-13.758-3.9-15.579-8.5q.166-.371.327-.746c1.008-2.326,1.909-4.741,2.814-7.157a.058.058,0,0,1,.069-.035l19.232,5.266a.059.059,0,0,1,.039.037A.057.057,0,0,1,1797.065,1529.545Z" transform="translate(-1398.26 -839.562)" fill="#da8d5e"/>
    <g id="Group_176398" data-name="Group 176398" transform="translate(362.84 623.891)">
      <path id="Path_38717" data-name="Path 38717" d="M2207.672,1082.757l-.008,0,.028.058c0-.013,0-.026,0-.038Z" transform="translate(-2150.747 -1066.283)"/>
      <path id="Path_38718" data-name="Path 38718" d="M1703.322,944.988a13.006,13.006,0,0,1-.884,4.362c-.383,1.081-.874,2.241-1.418,3.441s-1.134,2.432-1.729,3.668c.072,4.99.14,10.027-8.255,11.089-.6.075-1.255.132-1.944.168s-1.42.055-2.188.055a128.78,128.78,0,0,1-16.915-1.54c-6.517-.924-13.692-2.156-20.864-3.387a.064.064,0,0,1-.038-.026,113.026,113.026,0,0,1-5.866-9.662c-1.664-3.182-3.172-6.711-3.172-10.307q0-.525.043-1.049a15.879,15.879,0,0,1,1.734-5.75,18.321,18.321,0,0,1,3.217-4.523,10.971,10.971,0,0,1,3.429-2.386,11.213,11.213,0,0,1,3.138-.82,15.643,15.643,0,0,1,1.879-.112,26.176,26.176,0,0,1,3.061.221,13.523,13.523,0,0,1,1.521-4.933,8.347,8.347,0,0,1,2.05-2.328,10.943,10.943,0,0,1,3.567-1.8,19.2,19.2,0,0,1,2.891-.634,22.246,22.246,0,0,1,3.128-.228,17.021,17.021,0,0,1,2.119.125,10.364,10.364,0,0,1,1.859.4,6.366,6.366,0,0,1,3.016,2.025,14.94,14.94,0,0,1,1.734,2.808,11.324,11.324,0,0,1,3.393-2.487,7.981,7.981,0,0,1,1.789-.493,12.668,12.668,0,0,1,2.03-.152q.556,0,1.133.039a13.462,13.462,0,0,1,2.864.465,9.465,9.465,0,0,1,2.877,1.372,12.041,12.041,0,0,1,2.594,2.565,11.369,11.369,0,0,1,1.733,3.242,9.943,9.943,0,0,1,.453,3.095A26.824,26.824,0,0,1,1697,935l-.024-.014-.008,0,.027.058L1697,935a20.749,20.749,0,0,1,1.8,1.186,10.022,10.022,0,0,1,1.773,1.705,13.489,13.489,0,0,1,1.6,2.533,11.958,11.958,0,0,1,1.009,2.946A8.721,8.721,0,0,1,1703.322,944.988Z" transform="translate(-1640.048 -918.512)" fill="#0f2149"/>
    </g>
    <g id="Group_176399" data-name="Group 176399" transform="translate(372.717 638.96)">
      <path id="Path_38719" data-name="Path 38719" d="M1786.021,1088.717c0,7.268-1.908,16.763-5.509,23.386a27.144,27.144,0,0,1-7.031,8.413,25.093,25.093,0,0,1-7.874,4.21,19.333,19.333,0,0,1-5.9.958,17.85,17.85,0,0,1-3.643-.379,21.65,21.65,0,0,1-3.451-1.035,21.043,21.043,0,0,1-5.282-2.93,17.285,17.285,0,0,1-4.2-4.677,27.166,27.166,0,0,1-2.742-6.474,46.83,46.83,0,0,1-1.423-6.819,47.757,47.757,0,0,1-.422-6.48c0-1.492.056-2.9.112-4.314v0l0-.013a62.238,62.238,0,0,1,.943-8.4,17.514,17.514,0,0,1,3.141-7.323,18.7,18.7,0,0,1,6.862-5.245,30.1,30.1,0,0,1,9.432-2.6,34.467,34.467,0,0,1,3.844-.212,36.213,36.213,0,0,1,7.282.74,31.16,31.16,0,0,1,4.167,1.158,23.9,23.9,0,0,1,3.66,1.649,14.43,14.43,0,0,1,5.718,5.513,19.993,19.993,0,0,1,2.269,9Q1786.022,1087.753,1786.021,1088.717Z" transform="translate(-1738.544 -1068.784)" fill="#fbaf83"/>
    </g>
    <g id="Group_176400" data-name="Group 176400" transform="translate(370.178 635.937)">
      <path id="Path_38720" data-name="Path 38720" d="M1860.574,1192.4l.024.014c.011.008.024.014.035.022.008-.022.018-.043.026-.066Zm-12.761.512.054-.035-.083-.024Zm-10.923.414c.04.027.079.054.119.08-.01-.046-.021-.093-.031-.14Zm-7.8,8.806c.039,0,.075.01.114.016-.019-.034-.037-.067-.056-.1Z" transform="translate(-1817.47 -1176.953)"/>
      <path id="Path_38721" data-name="Path 38721" d="M1765.366,1061.544a15.054,15.054,0,0,1-1.2,3.883c-.587,1.344-.837,3.451-1.561,4.828a.058.058,0,0,1-.068.029.059.059,0,0,1-.042-.059c.14-2.411-.2-5.548-.2-7.459,0-.207,0-.406,0-.6a11.151,11.151,0,0,0-.268-2.546,4.879,4.879,0,0,0-1.008-1.973,11.163,11.163,0,0,0-2.028-1.8c-.8-.579-1.7-1.152-2.606-1.725a12.085,12.085,0,0,1-1.786,3.445,4.146,4.146,0,0,1-1.412,1.064,5.9,5.9,0,0,1-1.97.481c-.266.022-.547.035-.836.035a10.093,10.093,0,0,1-2.124-.223,6.421,6.421,0,0,1-1.943-.735,5.409,5.409,0,0,1-1.638-1.611,16.639,16.639,0,0,1-1.112-1.981,13.345,13.345,0,0,1-4.467,2.2,5.9,5.9,0,0,1-1.054.093,7.649,7.649,0,0,1-1.677-.2,10.326,10.326,0,0,1-1.426-.436,9.323,9.323,0,0,1-1.325-.621c-.316-.18-.59-.359-.855-.541a9.881,9.881,0,0,1,.236,2.021c.006.173.01.361.01.56a7.587,7.587,0,0,1-.751,3.627,4.924,4.924,0,0,1-1.54,1.62,6.417,6.417,0,0,1-2,.894,6.762,6.762,0,0,1-1.681.2,15.725,15.725,0,0,1-2.084-.18,7.909,7.909,0,0,1,1.33,4.539,11.368,11.368,0,0,1-.712,3.252,10.889,10.889,0,0,1-1.616,2.984,7.111,7.111,0,0,1-2.182,1.808,17.585,17.585,0,0,1-2.444,1.041.057.057,0,0,1-.074-.031c-.446-.991-.89-1.986-1.288-3a22.831,22.831,0,0,1-1-3.124,13.286,13.286,0,0,1-.372-3.071c0-1.364-3.891-3.544-3.321-5.4a39.348,39.348,0,0,1,1.7-5.642c.937-2.07,2.889-8.758,2.889-8.758s9.488-6.764,9.5-6.766l19.33-3.005c2.086-.24,9.164,2.1,9.922,2.2,1.272.178,4.568,7.621,5.612,8.144a.059.059,0,0,1,.029.034l1.855,5.752C1764.907,1056.928,1765.7,1059.079,1765.366,1061.544Z" transform="translate(-1713.224 -1038.643)" fill="#0f2149"/>
    </g>
    <g id="Group_176403" data-name="Group 176403" transform="translate(277.065 647.717)">
      <path id="Path_38724" data-name="Path 38724" d="M967.054,1295.121a23.643,23.643,0,0,1-.172,2.925,20.6,20.6,0,0,1-6.7,12.573c-3.515,3.371-8.011,6.106-12.582,8.761l-1.588.918-1.583.918c-.8.465-1.592.927-2.387,1.394a130.074,130.074,0,0,1-14.271,7.581,53.028,53.028,0,0,1-16.634,4.3c-1.635.143-3.328.212-5.059.212-12.593,0-27.2-3.687-36.246-9.777a33.85,33.85,0,0,1-2.949-2.225,32.862,32.862,0,0,1-2.536-2.384,36.277,36.277,0,0,1-6.305-9.166c-.14-.282-.274-.566-.406-.849a76.115,76.115,0,0,1-3.151-8.155q-.132-.392-.262-.775c-.087-.26-.164-.488-.249-.741-.345-1.024-.675-1.991-.995-2.912s-.624-1.8-.919-2.643c-.759-2.177-1.431-4.1-2.007-5.906s-1.056-3.488-1.428-5.176c-.369-1.669-.635-3.345-.847-5.091s-.366-3.56-.513-5.506c-.056-.751-.114-1.545-.172-2.341-.061-.846-.127-1.742-.2-2.647a62.847,62.847,0,0,0-1.386-10.095,31.156,31.156,0,0,0-4.749-10.762c-.534-.764-1.118-1.521-1.744-2.27s-1.3-1.494-2-2.227a79.3,79.3,0,0,0-8.654-7.627l-.308-.237c-3-2.313-6.079-4.481-8.911-6.464l-1.014-.709c-3.472-2.427-6.565-4.592-9.41-6.794a70.56,70.56,0,0,1-7.916-7.035l-.074-.077a78.931,78.931,0,0,1-7.276-8.978,94.653,94.653,0,0,1-5.636-9.057c-1.925-3.549-3.185-6.527-3.185-9.451a10.45,10.45,0,0,1,1.332-5.036,27.437,27.437,0,0,1,6.308-7.292,57.611,57.611,0,0,1,9.565-6.584,67.208,67.208,0,0,1,10.692-4.693,109.527,109.527,0,0,1,11.489-3.19c.191-.043.382-.087.573-.128,1.71-.382,3.446-.738,5.182-1.07,2.121-.406,4.24-.772,6.31-1.089q.645-.1,1.28-.191h0c1.954-.287,3.854-.528,5.66-.719,1.418-.149,2.779-.268,4.061-.353,1.842-.122,3.522-.172,5.084-.172a96.985,96.985,0,0,1,10.449.659.063.063,0,0,1,.047.031c.57,1.088,1.142,2.179,1.611,3.239a12.929,12.929,0,0,1,1,3.055,7.42,7.42,0,0,1,.1,1.216,13.646,13.646,0,0,1-.794,4.033l-.006.018a.056.056,0,0,1-.022.032h0c-1.482,1.009-2.965,2.02-4.487,3.005s-3.087,1.944-4.73,2.853c-.769.425-1.556.839-2.357,1.243q-1.367.691-2.785,1.349-1.461.681-2.968,1.341-1.239.544-2.5,1.08c-1.11.473-2.232.943-3.345,1.4-.751.308-1.5.61-2.237.9-1.189.469-2.352.91-3.462,1.306q-.9.322-1.749.6c-1.614.533-3.074.943-4.457,1.292s-2.687.634-3.992.921h0l-7.48,1.55c2.419,1.317,4.84,2.638,7.106,4.049.63.393,1.251.794,1.888,1.215.765.507,1.552,1.038,2.418,1.624.525.355,1.077.729,1.669,1.126s1.223.818,1.9,1.267c1.709,1.13,3.738,2.442,5.846,3.793s4.3,2.74,6.328,4.029l0,0,.961.61c1.823,1.157,3.522,2.233,5.14,3.271s3.161,2.039,4.672,3.045c.254.168.5.334.754.5,1.507,1.006,2.973,1.985,4.374,2.772a13.739,13.739,0,0,0,3.971,1.622,7.012,7.012,0,0,0,1.322.127,8.126,8.126,0,0,0,2.495-.417,22.45,22.45,0,0,0,3.365-1.506.058.058,0,0,1,.074.019c1.155,1.681,2.309,3.363,3.539,5.015a28.134,28.134,0,0,0,2.2,2.681,12.8,12.8,0,0,0,2.037,1.75,9.85,9.85,0,0,0,5.493,1.736c.177,0,.355,0,.534-.016a10.347,10.347,0,0,0,3.3-.781,11.312,11.312,0,0,0,2.976-1.8,14,14,0,0,0,2.32-2.572c.685-.948,1.3-1.962,1.924-2.981a.061.061,0,0,1,.029-.024,14.93,14.93,0,0,1,2.01-.63c.16-.037.33-.074.512-.111a31.5,31.5,0,0,1,3.191-.428c.778-.071,1.673-.135,2.644-.194.812-.051,1.677-.1,2.57-.146s1.813-.091,2.742-.138c.947-.047,1.9-.093,2.828-.143s1.84-.1,2.7-.152c.17-.01.377-.024.542-.034,1.08-.069,2.092-.135,3.064-.135a11.512,11.512,0,0,1,8.154,2.97,25.971,25.971,0,0,1,2.029,1.925,69.786,69.786,0,0,1,5.23,6.345c1.778,2.379,3.558,4.93,5.254,7.369l.414.6.408.586.337.486c2.071,2.981,4,5.76,6.121,9.169s4.415,7.449,7.226,12.952C959.931,1268.063,967.054,1283.672,967.054,1295.121Z" transform="translate(-784.64 -1156.112)"/>
    </g>
    <path id="Path_38725" data-name="Path 38725" d="M1715.475,2237.815c1.181.56,16.7,2.142,33.186-11.826s5-33.176,22.31-40.325,37.977,4.091,37.977,4.091l8,22.446-44.965,32.25-36.386,2.383Z" transform="translate(-1345.071 -1432.57)" fill="#fe0000"/>
    <path id="Path_38726" data-name="Path 38726" d="M1855.141,2405.389l-19.621-3.646v-4.328l18.891,3.708Z" transform="translate(-1453.079 -1625.228)" fill="#80a0d8"/>
    <path id="Path_38727" data-name="Path 38727" d="M1855.141,2356.606l-19.621-3.987,24.165-4.992-1.716,5.6Z" transform="translate(-1453.079 -1580.432)" fill="#d2dfff"/>
    <g id="Group_176404" data-name="Group 176404" transform="translate(451.342 825.412)">
      <path id="Path_38728" data-name="Path 38728" d="M2522.758,2928.275h0a.058.058,0,0,1-.114-.023h0a.058.058,0,1,1,.114.024Z" transform="translate(-2522.643 -2928.205)"/>
    </g>
    <g id="Group_176405" data-name="Group 176405" transform="translate(328.749 773.525)">
      <path id="Path_38729" data-name="Path 38729" d="M1462.93,2451.252a66.191,66.191,0,0,0-3.676-17.071c-2-6.02-4.569-12.287-7.139-18.55a.055.055,0,0,0-.037-.034l-16.4-4.836a.056.056,0,0,0-.059.018l-.059.068c-14.544,17.093-29.065,34.124-45.364,34.124-.3,0-.6-.006-.9-.018a26.552,26.552,0,0,1-4.08-.492,49.4,49.4,0,0,1-12.951-4.917c-4.353-2.269-8.708-5-12.984-7.674-3.562-2.23-7.066-4.425-10.464-6.289a49.566,49.566,0,0,0-9.819-4.3q-1.148-.33-2.269-.55a24.435,24.435,0,0,0-4.738-.472c-11.545,0-20.347,8.588-25.552,17.785a49.261,49.261,0,0,0-6.374,24.109,42.949,42.949,0,0,0,.656,7.587,35.7,35.7,0,0,0,4.175,11.47,78.221,78.221,0,0,0,6.751,9.65,72,72,0,0,0,8.415,9.44,27.611,27.611,0,0,0,11.367,6.411q.8.214,1.643.378a36.7,36.7,0,0,0,7.082.626c7.4,0,15.843-1.666,24.095-3.485,2.851-.629,5.671-1.275,8.457-1.913,2.7-.618,5.355-1.226,7.951-1.8,2.882-.635,5.689-1.228,8.394-1.739s5.307-.945,7.778-1.261c1.563-.2,3.072-.355,4.548-.485s2.915-.236,4.338-.342c1.353-.1,2.691-.2,4.027-.316s2.671-.252,4.017-.425c1.529-.2,3.073-.44,4.654-.76s1.014-3.575,2.692-4.075c4.71-1.407,3.183-11.357,12.588-15.133,5.279-2.119,29.282-13.2,29.282-22.952C1462.975,2452.448,1462.96,2451.852,1462.93,2451.252Zm-10.884-35.542-.029-.008-.01-.026Zm-16.341-4.855-.024.029-.037-.011Z" transform="translate(-1300.064 -2410.76)" fill="#616161"/>
    </g>
    <g id="Group_176406" data-name="Group 176406" transform="translate(421.139 784.65)">
      <path id="Path_38730" data-name="Path 38730" d="M2302.72,2527.381a12.9,12.9,0,0,0-4.71-4.024,15.6,15.6,0,0,0-6.3-1.635,17.851,17.851,0,0,0-2.543.061,28.247,28.247,0,0,0-8.5,2.463c-2.893,1.274-5.838,2.9-8.8,4.573s-5.938,3.4-9.055,5.424a111.532,111.532,0,0,0-9.9,7.228,139.482,139.482,0,0,0-10.894,9.936,103.029,103.029,0,0,0-9.674,11.189c-5.424,7.422-8.167,14.308-10.9,21.188a.057.057,0,0,0,.027.074,41.308,41.308,0,0,0,5.659,2.426,29.594,29.594,0,0,0,7.839,1.367c.562.027,1.146.045,1.753.05.14,0,.281,0,.422,0a68.918,68.918,0,0,0,28.054-6.315,65.829,65.829,0,0,0,13.2-8.659,136.347,136.347,0,0,0,10.959-10.292,125.526,125.526,0,0,0,8.758-9.777,38.009,38.009,0,0,0,5.59-9.208,20.617,20.617,0,0,0,1.515-7.579A14.614,14.614,0,0,0,2302.72,2527.381Zm-81.163,56.446-.029-.074.048.024Z" transform="translate(-2221.445 -2521.703)" fill="#616161"/>
    </g>
    <g id="Group_176407" data-name="Group 176407" transform="translate(422.958 789.743)">
      <path id="Path_38731" data-name="Path 38731" d="M2240.3,2615.93a.723.723,0,0,1-.682-.96c2.278-6.538,11.49-15.665,27.382-27.127,11.773-8.491,23.036-15.182,23.148-15.249a.722.722,0,0,1,.736,1.242c-.446.265-44.679,26.611-49.9,41.608A.723.723,0,0,1,2240.3,2615.93Z" transform="translate(-2239.582 -2572.494)" fill="#0f2149"/>
    </g>
    <g id="Group_176408" data-name="Group 176408" transform="translate(390.245 769.815)">
      <path id="Path_38732" data-name="Path 38732" d="M1960.492,2383.749c-.167-.053-.34-.1-.518-.151-4.33-1.171-12.277-1.362-20.917-1.362-2.076,0-4.192.011-6.307.022a.042.042,0,0,0-.014,0,26.4,26.4,0,0,1-5,1.022,1.9,1.9,0,0,1-.484-.051c-.214-.058-.323-.161-.323-.331a.518.518,0,0,1,.021-.141c.006-.019.011-.039.019-.06a4.265,4.265,0,0,1,.733-1.088c.367-.44.834-.943,1.324-1.474.581-.627,1.194-1.288,1.7-1.913a6.419,6.419,0,0,0,1.089-1.7c.021-.061.039-.119.053-.176a1.291,1.291,0,0,0,.038-.3c0-.663-.61-1.041-1.5-1.28a11.927,11.927,0,0,0-1.589-.287c-.59-.074-1.229-.132-1.882-.191-.354-.032-.717-.064-1.077-.1-.446-.045-.892-.093-1.335-.143s-.87-.1-1.3-.138c-.854-.085-1.689-.147-2.489-.147a8.05,8.05,0,0,0-3.444.634,6.346,6.346,0,0,0-2.777,2.711,9.694,9.694,0,0,0-1.165,4.226q-.014.284-.015.573a11.38,11.38,0,0,0,3.18,8.06,7.768,7.768,0,0,0,1.739,1.221,10.1,10.1,0,0,0,2.053.786,16.292,16.292,0,0,0,2.524.454c.89.093,1.829.135,2.808.141l.281,0a67.477,67.477,0,0,0,11.826-1.208c.849-.159,1.68-.327,2.5-.494s1.6-.327,2.4-.475a34.09,34.09,0,0,1,6.376-.672c.138,0,.277,0,.417,0a43.852,43.852,0,0,1,6.817.75c2.4.423,4.884.975,7.375,1.529a.058.058,0,0,0,.067-.04,13.973,13.973,0,0,0,.8-3.843C1964.5,2386.3,1963.609,2384.72,1960.492,2383.749Zm3.1,8.178.015-.05.053.011Z" transform="translate(-1913.344 -2373.76)" fill="#fbaf83"/>
    </g>
    <g id="Group_176409" data-name="Group 176409" transform="translate(389.519 768.79)">
      <path id="Path_38733" data-name="Path 38733" d="M1923.342,2384.542c-4.712,0-10.811-.758-13.211-2.725-3.477-2.85-4-8.8-4.022-9.048,0-.006,0-.012,0-.018a9.919,9.919,0,0,1,3.449-7.663c3.681-3.1,12.574-.605,12.951-.5a.722.722,0,1,1-.4,1.388c-2.362-.673-9.056-1.947-11.625.214a8.541,8.541,0,0,0-2.937,6.468c.025.265.557,5.63,3.5,8.039s13.891,2.9,17.163,1.979a.722.722,0,1,1,.391,1.39A22.426,22.426,0,0,1,1923.342,2384.542Z" transform="translate(-1906.103 -2363.541)" fill="#e39d2d"/>
    </g>
    <g id="Group_176410" data-name="Group 176410" transform="translate(426.296 751.041)">
      <path id="Path_38734" data-name="Path 38734" d="M2342.921,2208.585q-.216-.118-.452-.226a17.357,17.357,0,0,0-3.167-1.036c-1.21-.3-2.552-.557-3.969-.833-1.813-.353-3.748-.728-5.684-1.229a33.143,33.143,0,0,1-5.7-1.977c-.626-.292-1.239-.611-1.833-.961a18.633,18.633,0,0,1-1.72-1.144,23.658,23.658,0,0,1-3.517-3.352c-1.078-1.23-2.079-2.54-3.053-3.813-.874-1.144-1.728-2.261-2.6-3.268a17.827,17.827,0,0,0-2.692-2.61,7.171,7.171,0,0,0-4.38-1.608c-.153,0-.3,0-.461.016-.18.013-.362.032-.547.059-3.6.534-8.179,3.958-13.252,8.824S2279.26,2206.6,2273.7,2212.9a.066.066,0,0,0-.013.051,22.776,22.776,0,0,1,.9,5.291c0,.209-.008.416-.022.621a9.848,9.848,0,0,1-.6,2.633c-.31.847-.7,1.67-1.091,2.5a.055.055,0,0,0,0,.05.059.059,0,0,0,.039.032c1.32.337,2.641.674,4.013,1.046s2.8.781,4.324,1.262,3.159,1.035,4.88,1.656,3.536,1.308,5.428,2.057l1.006.4c.2.08.406.162.611.242l.428.17c1.608.637,3.286,1.282,5.063,1.847.191.061.382.12.574.178a38.262,38.262,0,0,0,5.091,1.2q1.059.171,2.168.281h0c1.36.136,2.766.2,4.2.2q1.331,0,2.686-.079c.2-.01.4-.022.6-.037,1.052-.072,2.11-.18,3.166-.323s2.11-.318,3.153-.528a50.143,50.143,0,0,0,7.831-2.258,45.231,45.231,0,0,0,6.875-3.27,28.967,28.967,0,0,0,5.439-4.038,20.378,20.378,0,0,0,3.859-5.033,12.177,12.177,0,0,0,1.664-5.533A5.306,5.306,0,0,0,2342.921,2208.585Zm-69.131,4.386.013-.051c0,.01,0,.019.007.029Zm-.812,11.069-.037-.08.067.018C2273,2224,2272.988,2224.02,2272.979,2224.04Z" transform="translate(-2272.868 -2186.528)"/>
    </g>
    <g id="Group_176411" data-name="Group 176411" transform="translate(439.068 849.171)">
      <path id="Path_38735" data-name="Path 38735" d="M2422.967,3172.535l-17.9-7.379a.055.055,0,0,0-.045,0,.064.064,0,0,0-.032.032l-4.747,11.824a.058.058,0,0,0,.029.075l12.832,5.781a.052.052,0,0,0,.032,0l8.248-1.279a.054.054,0,0,0,.048-.046L2423,3172.6A.062.062,0,0,0,2422.967,3172.535Zm-17.866-7.3-.023.054-.053-.022Zm-4.748,11.824-.031-.074.052.022Zm12.768,5.7.016,0,.016.008Zm8.2-1.231.006-.04.042-.006Zm1.558-8.9.008-.046.035.064Z" transform="translate(-2400.241 -3165.152)" fill="#fbaf83"/>
    </g>
    <g id="Group_176412" data-name="Group 176412" transform="translate(449.79 847.644)">
      <path id="Path_38736" data-name="Path 38736" d="M2551.374,3154.323c-1.107-2.959-4.509-4.4-9.4-4.4-.493,0-1,.015-1.52.043a44.376,44.376,0,0,0-4.654.544c-1.622.265-3.287.6-4.934.959s-3.284.746-4.829,1.11c-1.385.327-2.7.637-3.887.9-2.581.563-4.6.894-6.329,1.107s-3.182.31-4.632.406a.057.057,0,0,0-.046.029.058.058,0,0,0,0,.054c1.187,2.4,2.361,4.768,2.361,6.891a4.934,4.934,0,0,1-.165,1.3c-.011.042-.022.083-.035.124a7.928,7.928,0,0,1-2.3,3.31,40.54,40.54,0,0,1-3.8,3.021l-.016.011a.057.057,0,0,0-.013.08,3.718,3.718,0,0,0,.762.831,14.763,14.763,0,0,0,2.182,1.381,38.356,38.356,0,0,0,4.656,2.158,33.327,33.327,0,0,0,6.729,1.831,35,35,0,0,0,15.686-1.2,22.547,22.547,0,0,0,6.4-3.288,20.581,20.581,0,0,0,4.784-5.02,22.74,22.74,0,0,0,1.625-2.825,20.2,20.2,0,0,0,1.162-2.963,13.511,13.511,0,0,0,.623-3.833A7.285,7.285,0,0,0,2551.374,3154.323Zm-40.172.78.048-.083.039.078Zm-3.926,14.7-.014.011.013-.08c.011.016.022.03.032.046C2507.3,3169.791,2507.286,3169.8,2507.276,3169.8Z" transform="translate(-2507.169 -3149.92)" fill="#0f2149"/>
    </g>
    <g id="Group_176413" data-name="Group 176413" transform="translate(383.482 856.274)">
      <path id="Path_38737" data-name="Path 38737" d="M1895.727,3241.222a3.145,3.145,0,0,1-.122.884,12.6,12.6,0,0,1-2.644,4.675,13.112,13.112,0,0,1-4.29,3.25c-.3.14-.608.265-.919.381a18.945,18.945,0,0,1-2.314.67c-.786.18-1.582.327-2.378.475s-1.595.3-2.381.477a18.973,18.973,0,0,0-2.313.671c-.931.345-1.855.736-2.774,1.153s-1.837.86-2.755,1.3a60.772,60.772,0,0,1-5.862,2.577,18.708,18.708,0,0,1-6.119,1.208h-.132a16.75,16.75,0,0,1-13.466-7.4,8.84,8.84,0,0,1-.871-1.874,9.1,9.1,0,0,1-.483-2.849,5.659,5.659,0,0,1,.876-3.193,15.521,15.521,0,0,1,5.859-4.941,26.188,26.188,0,0,1,7.467-2.427,21.2,21.2,0,0,1,3.583-.275c1.269,0,2.54.08,3.8.166.683.046,1.709.119,2.562.178l1.537.107c-.006,0,3.844.189,5.756.274l1.282.058c2.013.088,4.033.175,6.047.327s4.017.364,6.007.7l.3.052a19.447,19.447,0,0,1,1.97.4,6.174,6.174,0,0,1,1.823.79,1.81,1.81,0,0,1,.478.479,2.556,2.556,0,0,1,.31.634A3.393,3.393,0,0,1,1895.727,3241.222Z" transform="translate(-1845.904 -3235.984)" fill="#0f2149"/>
    </g>
    <g id="Group_176414" data-name="Group 176414" transform="translate(450.623 604.096)">
      <path id="Path_38738" data-name="Path 38738" d="M2688.795,1213.632l-.047.066.055-.011Z" transform="translate(-2671.373 -1164.244)" fill="#feba00"/>
      <path id="Path_38739" data-name="Path 38739" d="M2559.934,740.788a23.2,23.2,0,0,0-2.5-7.565,18.936,18.936,0,0,0-5.336-5.919,33.027,33.027,0,0,0-13.124-5.782,23.425,23.425,0,0,0-4.3-.419q-.7,0-1.385.05a23.218,23.218,0,0,0-9.252,2.925,80.171,80.171,0,0,0-8.54,5.564.057.057,0,0,0-.023.058l3.246,17.9a.056.056,0,0,0,.039.045.058.058,0,0,0,.056-.011,32.971,32.971,0,0,1,4.4-3.472,18.858,18.858,0,0,1,6.214-2.484,29.807,29.807,0,0,1,6.1-.623,24.422,24.422,0,0,1,4.433.379,13.522,13.522,0,0,1,2.893.852,6.552,6.552,0,0,1,2.116,1.4,4.719,4.719,0,0,1,1.272,3.358c0,2.336-1.339,5.075-3.72,7.359a16.063,16.063,0,0,1-1.686,1.409,30.14,30.14,0,0,1-9.328,4.138c-3.612,1.04-7.6,1.826-11.595,2.612a.06.06,0,0,0-.037.026.062.062,0,0,0-.008.045l.042.178c.407,1.747.814,3.5,1.226,5.315s.828,3.7,1.253,5.723c.431,2.054.874,4.247,1.322,6.507s.9,4.593,1.351,6.923a.056.056,0,0,0,.064.047l9.844-1.462a.058.058,0,0,0,.048-.066l-2.106-15.25-.055.011.047-.066.008.055c1.747-.363,3.494-.725,5.379-1.184,1.906-.462,3.952-1.024,6.28-1.779a38.972,38.972,0,0,0,7.337-3.079,16.265,16.265,0,0,0,6.045-5.607c1.874-3.12,2.574-7.292,2.574-11.406A39.91,39.91,0,0,0,2559.934,740.788Zm-44.371-11.051.024-.058.006.035Zm3.173,17.809.079-.069.018.1Zm1.189,15.128.045-.071.014.059Zm5.174,24.536.055-.008c0,.018.008.037.011.055Zm9.843-1.463-.048.066-.008-.058Z" transform="translate(-2515.471 -721.104)" fill="#feba00"/>
    </g>
    <g id="Group_176415" data-name="Group 176415" transform="translate(458.684 678.574)">
      <path id="Path_38740" data-name="Path 38740" d="M2609.9,1471.538a6.931,6.931,0,0,1-.9,3.645,4.7,4.7,0,0,1-1.247,1.3,8.867,8.867,0,0,1-1.583.9,8.432,8.432,0,0,1-3.4.833h-.143a6.555,6.555,0,0,1-.785-.069,7.755,7.755,0,0,1-2.92-1.091,6.381,6.381,0,0,1-2.156-2.16,7.412,7.412,0,0,1-.91-3.692,9.035,9.035,0,0,1,.324-2.4,5.6,5.6,0,0,1,1.744-2.61,10.653,10.653,0,0,1,2.739-1.734,7.07,7.07,0,0,1,1.818-.565c.092-.015.228-.026.342-.034l.205-.013s0,0,.006,0,.108.008.262.022.353.035.536.063c.115.018.224.037.313.058a7.677,7.677,0,0,1,1.773.7,8.336,8.336,0,0,1,2.413,1.953,5.946,5.946,0,0,1,1.359,2.73A12.333,12.333,0,0,1,2609.9,1471.538Z" transform="translate(-2595.868 -1463.84)" fill="#fbaf83"/>
    </g>
    <g id="Group_176416" data-name="Group 176416" transform="translate(430.282 674.895)">
      <path id="Path_38741" data-name="Path 38741" d="M2394.929,1609.859l-.033.057.041-.012Z" transform="translate(-2386.646 -1591.538)" fill="#3a6beb"/>
      <path id="Path_38742" data-name="Path 38742" d="M2331.726,1433.413a6.027,6.027,0,0,0-1.606-3.28,8.558,8.558,0,0,0-3.206-2.08c-.084-.033-.171-.065-.259-.1a16.689,16.689,0,0,0-5.462-.806,27.094,27.094,0,0,0-2.8.151,25.223,25.223,0,0,0-3.16.53c-.923.216-1.75.461-2.575.706a.049.049,0,0,0-.035.056l1.194,7.021a.047.047,0,0,0,.023.034.044.044,0,0,0,.041,0c.491-.166.983-.333,1.584-.495a20.67,20.67,0,0,1,2.243-.458,22.531,22.531,0,0,1,3.286-.284,6.793,6.793,0,0,1,2.309.316,2.676,2.676,0,0,1,.282.128,2.007,2.007,0,0,1,.2.124,1.727,1.727,0,0,1,.724,1.475,3.091,3.091,0,0,1-.582,1.727,4.336,4.336,0,0,1-1.512,1.271,16.786,16.786,0,0,1-2.084.9c-.754.286-1.551.582-2.367.881s-1.653.605-2.491.91a.05.05,0,0,0-.031.054l2,11.067a.05.05,0,0,0,.02.031.046.046,0,0,0,.037.008l4.729-.866a.048.048,0,0,0,.031-.02.05.05,0,0,0,.007-.037l-1.354-6.871-.041.012.032-.057.008.045a37.216,37.216,0,0,0,4.189-1.5,11.644,11.644,0,0,0,3.637-2.442,10.994,10.994,0,0,0,3.056-7.2A6.805,6.805,0,0,0,2331.726,1433.413Zm-19.042-4.781h0l.034-.054.007.042Zm1.163,6.928.054-.019.009.057Zm1.657,6.683.031-.056.008.042Zm1.976,10.972.049-.01.008.049Zm4.729-.866-.04.058-.01-.049Z" transform="translate(-2312.62 -1427.152)" fill="#3a6beb"/>
    </g>
    <g id="Group_176417" data-name="Group 176417" transform="translate(436.574 704.057)">
      <path id="Path_38743" data-name="Path 38743" d="M2379.645,1719.807a.763.763,0,0,1-.026.2,1.966,1.966,0,0,1-.322.632,4.2,4.2,0,0,1-.478.528,3.709,3.709,0,0,1-.439.369,1.6,1.6,0,0,1-.515.249,1.51,1.51,0,0,1-.151.031,1.588,1.588,0,0,1-.213.015,2.942,2.942,0,0,1-1.357-.426,2.31,2.31,0,0,1-.39-.258.981.981,0,0,1-.288-.37,1.326,1.326,0,0,1-.1-.525,2.624,2.624,0,0,1,.279-1.139,2.714,2.714,0,0,1,.191-.288l.007-.008a4.956,4.956,0,0,1,.616-.458,3.109,3.109,0,0,1,1.016-.363,2,2,0,0,1,.269-.021c.046,0,.094,0,.14.007a1.423,1.423,0,0,1,.674.267,3.2,3.2,0,0,1,.544.495A1.775,1.775,0,0,1,2379.645,1719.807Z" transform="translate(-2375.369 -1717.972)" fill="#3a6beb"/>
    </g>
    <g id="Group_176418" data-name="Group 176418" transform="translate(491.154 666.105)">
      <path id="Path_38744" data-name="Path 38744" d="M3016.8,1555.08l-.04.068c.016,0,.034-.01.05-.016Z" transform="translate(-3007.026 -1533.463)" fill="#fe0000"/>
      <path id="Path_38745" data-name="Path 38745" d="M2942.224,1346.884a7.087,7.087,0,0,0-1.895-3.87,10.11,10.11,0,0,0-3.783-2.455c-.1-.038-.2-.077-.3-.112a19.709,19.709,0,0,0-6.447-.951,31.947,31.947,0,0,0-3.306.178,29.723,29.723,0,0,0-3.727.626c-1.091.255-2.066.544-3.04.833a.058.058,0,0,0-.042.066l1.409,8.283a.056.056,0,0,0,.027.04.051.051,0,0,0,.048,0c.581-.2,1.158-.393,1.868-.584a24.489,24.489,0,0,1,2.649-.541,26.556,26.556,0,0,1,3.877-.335,8.025,8.025,0,0,1,2.726.372,3.193,3.193,0,0,1,.332.151,2.391,2.391,0,0,1,.236.146,2.038,2.038,0,0,1,.854,1.741,3.647,3.647,0,0,1-.687,2.037,5.119,5.119,0,0,1-1.784,1.5,19.832,19.832,0,0,1-2.459,1.067c-.892.337-1.831.687-2.793,1.04s-1.951.714-2.938,1.073a.058.058,0,0,0-.039.064l2.362,13.058a.058.058,0,0,0,.024.037.054.054,0,0,0,.043.01l5.58-1.022a.052.052,0,0,0,.037-.024.066.066,0,0,0,.01-.043l-1.6-8.109c-.016.006-.034.011-.05.016l.04-.067.01.051a43.283,43.283,0,0,0,4.941-1.766,13.71,13.71,0,0,0,4.292-2.881,12.972,12.972,0,0,0,3.607-8.489A7.833,7.833,0,0,0,2942.224,1346.884Zm-22.468-5.641h0l.042-.064.008.05Zm1.372,8.174.064-.023.011.067Zm1.956,7.885.037-.066.01.05Zm2.331,12.946.058-.011.01.058Zm5.58-1.022-.046.069-.011-.058Z" transform="translate(-2919.68 -1339.496)" fill="#fe0000"/>
    </g>
    <g id="Group_176419" data-name="Group 176419" transform="translate(497.861 698.854)">
      <path id="Path_38746" data-name="Path 38746" d="M2990.977,1666.995a3.8,3.8,0,0,0-.644-.584,1.649,1.649,0,0,0-.794-.314c-.058,0-.114-.008-.172-.008a2.023,2.023,0,0,0-.311.024,3.675,3.675,0,0,0-1.2.428,5.713,5.713,0,0,0-.727.541l-.01.01a3.8,3.8,0,0,0-.226.34,2.952,2.952,0,0,0-.287.882,2.882,2.882,0,0,0-.04.462,1.59,1.59,0,0,0,.113.619,1.184,1.184,0,0,0,.34.435,2.854,2.854,0,0,0,.462.306,3.457,3.457,0,0,0,1.6.5,1.714,1.714,0,0,0,.255-.018,1.42,1.42,0,0,0,.178-.035,1.927,1.927,0,0,0,.608-.294,4.386,4.386,0,0,0,.516-.435,4.982,4.982,0,0,0,.565-.623,2.294,2.294,0,0,0,.379-.746.9.9,0,0,0,.03-.234A2.1,2.1,0,0,0,2990.977,1666.995Zm-3.767.172,0,0s0,0,0,0l0,0s0,0,0,0h0Z" transform="translate(-2986.568 -1666.088)" fill="#fe0000"/>
    </g>
    <g id="Group_176420" data-name="Group 176420" transform="translate(366.654 661.986)">
      <path id="Path_38747" data-name="Path 38747" d="M1690.415,1306.045a15.84,15.84,0,0,1-.265,2.9,8.007,8.007,0,0,1-.375,1.4,3.737,3.737,0,0,1-.736,1.231,5.473,5.473,0,0,1-3.91,1.535,5.547,5.547,0,0,1-.635-.035l-.024,0a6.931,6.931,0,0,1-2.8-1.032,8.106,8.106,0,0,1-2.208-2.038,5.91,5.91,0,0,1-.783-1.5,9.983,9.983,0,0,1-.427-1.646,10.489,10.489,0,0,1-.172-1.813,6.635,6.635,0,0,1,.223-1.771,6.246,6.246,0,0,1,1.539-2.585,9.1,9.1,0,0,1,2.463-1.815,4,4,0,0,1,1.754-.46,2.735,2.735,0,0,1,.281.015l.064.008a6.143,6.143,0,0,1,2.052.645,9.232,9.232,0,0,1,1.8,1.213,6.582,6.582,0,0,1,1.269,1.415c.106.165.282.51.284.51s0,0,0,0,.154.372.215.566a6.758,6.758,0,0,1,.165.658,11.04,11.04,0,0,1,.193,1.5Q1690.414,1305.5,1690.415,1306.045Z" transform="translate(-1678.08 -1298.416)" fill="#fbaf83"/>
    </g>
    <path id="Path_38748" data-name="Path 38748" d="M1814.243,886.4c-.062-.258-.125-.493-.188-.733h0c-.509-1.629-.852-3.177-1.94-4.141.842-2.4-2.482-3.9-4.29-2.407,1.41-.016,3.292.061,3.2,1.991-3.911.194-3.868,4.255.21,1.446a2.128,2.128,0,0,1,.462,1,15.675,15.675,0,0,1,.276,4.228Zm-4.557-3.674c-.4-.122.369-.518.481-.51.01-.01.221-.029.343-.059A1.871,1.871,0,0,1,1809.687,882.729Z" transform="translate(-1428.16 -258.644)" fill="#0f2149"/>
    <path id="Path_38749" data-name="Path 38749" d="M2165.426,986.823c.246-.1.469-.2.7-.295v0c1.535-.745,3.014-1.316,3.806-2.535,2.5.475,3.489-3.036,1.74-4.6.226,1.392.43,3.265-1.492,3.459-.775-3.839-4.784-3.191-1.4.423a2.13,2.13,0,0,1-.918.606,15.666,15.666,0,0,1-4.139.9Zm2.954-5.053c.06-.418.567.288.576.4.011.008.062.215.11.331A1.869,1.869,0,0,1,2168.38,981.769Z" transform="translate(-1748.37 -349.394)" fill="#0f2149"/>
    <path id="Path_38750" data-name="Path 38750" d="M1659.337,1024.828a10.021,10.021,0,0,1-2.647-.577,1.359,1.359,0,0,1-.587-.387c2.165-2.311-.4-2.726-.894-.271-1.23-.124-1.1-1.322-.955-2.212-1.118,1-.484,3.246,1.113,2.943a5.608,5.608,0,0,0,2.434,1.621h0c.146.063.289.125.446.189Zm-3.418-1.458c.031-.074.063-.206.07-.211.006-.072.33-.523.369-.256A1.2,1.2,0,0,1,1655.918,1023.37Z" transform="translate(-1289.482 -387.174)" fill="#0f2149"/>
    <g id="Group_176421" data-name="Group 176421" transform="translate(369.457 666.325)">
      <path id="Path_38751" data-name="Path 38751" d="M1708.119,1348.456a.722.722,0,0,1-.629-1.075,4.017,4.017,0,0,1,2.425-2.057,3.811,3.811,0,0,1,1.616-.075,3.268,3.268,0,0,0-1.444-1.786,4,4,0,0,0-3.05-.026.722.722,0,0,1-.569-1.327,4.76,4.76,0,0,1,6.827,4.1.722.722,0,0,1-1.069.762,3.084,3.084,0,0,0-1.312-.334,2.391,2.391,0,0,0-2.165,1.447A.722.722,0,0,1,1708.119,1348.456Z" transform="translate(-1706.033 -1341.688)" fill="#da8d5e"/>
    </g>
    <circle id="Ellipse_632" data-name="Ellipse 632" cx="2.294" cy="2.294" r="2.294" transform="translate(392.568 664.747)" fill="#0f2149"/>
    <circle id="Ellipse_633" data-name="Ellipse 633" cx="2.294" cy="2.294" r="2.294" transform="translate(409.376 667.041)" fill="#0f2149"/>
    <path id="Path_38752" data-name="Path 38752" d="M1913.072,1272.389s1.79-3.639,5.025-3.234l1.213,1.6s-4.938.593-5.545,2.528Z" transform="translate(-1522.854 -610.075)" fill="#0f2149"/>
    <path id="Path_38753" data-name="Path 38753" d="M2126.287,1290.952s-1.219-3.868-4.477-3.958l-1.441,1.4s4.791,1.335,5.1,3.339Z" transform="translate(-1709.365 -626.154)" fill="#0f2149"/>
    <g id="Group_176422" data-name="Group 176422" transform="translate(367.45 637.259)">
      <path id="Path_38754" data-name="Path 38754" d="M1686.624,1063.872a9.582,9.582,0,0,1-.541-2.357,11.063,11.063,0,0,1,.007-2.455,9.312,9.312,0,0,1,.614-2.435,5.476,5.476,0,0,1,.265-.583c.1-.189.19-.385.311-.564a8.243,8.243,0,0,1,.766-1.046l.451-.47.493-.426c.168-.136.354-.25.53-.375a4.573,4.573,0,0,1,.555-.329l.284-.152c.095-.051.2-.086.293-.129.2-.081.392-.167.593-.236l.606-.181a5.708,5.708,0,0,1,.613-.134,10.893,10.893,0,0,1,4.843.211q-.6.091-1.185.149l-1.159.182a15.7,15.7,0,0,0-2.214.556c-.36.1-.694.265-1.035.4-.166.077-.323.169-.487.248-.08.043-.164.078-.24.126l-.228.145a7.165,7.165,0,0,0-.87.624l-.4.354-.363.389a9.3,9.3,0,0,0-1.927,3.878A20.734,20.734,0,0,0,1686.624,1063.872Z" transform="translate(-1686.018 -1051.822)" fill="#1a3d70"/>
    </g>
    <g id="Group_176423" data-name="Group 176423" transform="translate(386.083 629.937)">
      <path id="Path_38755" data-name="Path 38755" d="M1871.84,982.576a7.2,7.2,0,0,1,1.14-1.288,9.947,9.947,0,0,1,1.375-1.045,9.476,9.476,0,0,1,3.252-1.3l.442-.07c.148-.018.3-.032.447-.046s.3-.013.45-.018a3.764,3.764,0,0,1,.451.006,6.653,6.653,0,0,1,2.6.653c.132.068.262.141.39.214l.19.112.182.126c.119.087.24.168.353.26s.22.192.326.291c.052.05.108.1.157.149l.146.162c.093.111.189.217.277.331a11.912,11.912,0,0,0-3.105-.871,3.432,3.432,0,0,0-.383-.038c-.128-.007-.254-.021-.381-.026s-.255,0-.382,0-.254.008-.381.011l-.19.007-.19.016c-.127.012-.253.016-.379.039l-.38.048-.378.067a17.232,17.232,0,0,0-3.007.894C1873.868,981.639,1872.878,982.093,1871.84,982.576Z" transform="translate(-1871.84 -978.801)" fill="#1a3d70"/>
    </g>
    <g id="Group_176424" data-name="Group 176424" transform="translate(416.454 642.338)">
      <path id="Path_38756" data-name="Path 38756" d="M2174.716,1102.478a7.2,7.2,0,0,1,1.671.406,9.956,9.956,0,0,1,1.567.727,9.473,9.473,0,0,1,2.673,2.266l.269.358c.086.123.168.249.25.374s.152.259.226.39a3.769,3.769,0,0,1,.206.4,6.458,6.458,0,0,1,.546,1.717,6.529,6.529,0,0,1,.094.89c0,.149,0,.3-.008.445l-.01.221-.026.22c-.022.146-.037.291-.064.434s-.067.284-.1.424c-.02.07-.033.14-.058.208l-.075.2c-.055.135-.1.269-.163.4a11.9,11.9,0,0,0-.681-3.152,3.5,3.5,0,0,0-.145-.356c-.054-.116-.1-.235-.156-.349s-.119-.225-.174-.339-.126-.221-.188-.331l-.095-.165-.1-.161c-.07-.106-.133-.216-.212-.317l-.22-.313-.236-.3a17.248,17.248,0,0,0-2.2-2.24C2176.492,1103.833,2175.628,1103.17,2174.716,1102.478Z" transform="translate(-2174.716 -1102.478)" fill="#1a3d70"/>
    </g>
    <g id="Group_176425" data-name="Group 176425" transform="translate(402.845 646.929)">
      <path id="Path_38757" data-name="Path 38757" d="M2039.231,1148.255a17.584,17.584,0,0,0,1.026,2.714,7,7,0,0,0,1.538,2.118l.24.209.256.188c.083.067.177.117.266.177a2.948,2.948,0,0,0,.278.162c.184.115.389.19.586.291l.312.119a2.489,2.489,0,0,0,.319.112,19.554,19.554,0,0,0,2.835.61,6.024,6.024,0,0,1-3.058.5,5.686,5.686,0,0,1-.8-.133,5.59,5.59,0,0,1-.784-.267,4.984,4.984,0,0,1-1.414-.9,5.6,5.6,0,0,1-1.635-2.808,6.507,6.507,0,0,1-.186-1.562A5.14,5.14,0,0,1,2039.231,1148.255Z" transform="translate(-2039.006 -1148.255)" fill="#1a3d70"/>
    </g>
    <g id="Group_176426" data-name="Group 176426" transform="translate(377.788 655.347)">
      <path id="Path_38758" data-name="Path 38758" d="M1789.119,1232.213a17.538,17.538,0,0,0,2.53,1.42,7,7,0,0,0,2.54.635l.318.006.317-.021c.106,0,.211-.025.317-.035a2.984,2.984,0,0,0,.317-.054c.214-.03.42-.1.635-.153l.315-.11a2.5,2.5,0,0,0,.317-.12,19.579,19.579,0,0,0,2.564-1.354,6.026,6.026,0,0,1-2.02,2.351,5.022,5.022,0,0,1-1.472.713,4.991,4.991,0,0,1-1.662.219,5.6,5.6,0,0,1-3.057-1.1,6.511,6.511,0,0,1-1.147-1.078A5.13,5.13,0,0,1,1789.119,1232.213Z" transform="translate(-1789.119 -1232.213)" fill="#1a3d70"/>
    </g>
    <g id="Group_176427" data-name="Group 176427" transform="translate(390.628 644.858)">
      <path id="Path_38759" data-name="Path 38759" d="M1917.168,1133.243a17.549,17.549,0,0,0,2.888-.281,7,7,0,0,0,2.446-.931l.264-.177.249-.2c.086-.063.159-.141.24-.21a2.977,2.977,0,0,0,.229-.226c.159-.147.285-.325.434-.489l.2-.27a2.528,2.528,0,0,0,.191-.279,19.53,19.53,0,0,0,1.33-2.577,6.025,6.025,0,0,1-.314,3.084,5.754,5.754,0,0,1-.338.74,5.609,5.609,0,0,1-.462.687,4.984,4.984,0,0,1-1.239,1.13,5.6,5.6,0,0,1-3.138.844,6.49,6.49,0,0,1-1.557-.229A5.126,5.126,0,0,1,1917.168,1133.243Z" transform="translate(-1917.168 -1127.605)" fill="#1a3d70"/>
    </g>
    <path id="Path_38760" data-name="Path 38760" d="M1637.438,1180.7s11.885-4.74,10.267-7.786-9.357,2.437-9.357,2.437l-4.428-.242Z" transform="translate(-1271.694 -522.687)" fill="#fbaf83"/>
    <path id="Path_38761" data-name="Path 38761" d="M1700.256,1156.266c0,2.99-3.16,6.031-5.455,6.031s-.144-4.971-3.234-7.509c-2.311-1.9,2.239-3.937,4.534-3.937S1700.256,1153.276,1700.256,1156.266Z" transform="translate(-1322.987 -503.663)" fill="#0f2149"/>
    <g id="Group_176445" data-name="Group 176445">
      <path id="Path_38762" data-name="Path 38762" d="M1028.9,1452.073a8.434,8.434,0,0,1-2.555,1.026,10.124,10.124,0,0,1-2.756.266c-.234-.01-.47-.036-.7-.06s-.47-.071-.7-.129a5.784,5.784,0,0,1-1.37-.495,3.921,3.921,0,0,1-1.167-.916,2.575,2.575,0,0,1-.6-1.3,4.574,4.574,0,0,0,2.186,1.16,13.217,13.217,0,0,0,2.431.3c.835.042,1.689.042,2.559.052S1027.97,1451.99,1028.9,1452.073Z" transform="translate(-718.471 -773.232)" fill="#585353"/>
      <path id="Path_38763" data-name="Path 38763" d="M1039.488,1473.458c.764-.314,1.469-.582,2.156-.87s1.341-.582,1.974-.911a17.452,17.452,0,0,0,1.841-1.106c.606-.409,1.179-.882,1.839-1.387a4.173,4.173,0,0,1-.387,1.174,5.284,5.284,0,0,1-.678,1.043,6.294,6.294,0,0,1-1.949,1.556,6.963,6.963,0,0,1-2.361.727,6.371,6.371,0,0,1-1.228.027A4.249,4.249,0,0,1,1039.488,1473.458Z" transform="translate(-736.868 -790.075)" fill="#585353"/>
      <path id="Path_38764" data-name="Path 38764" d="M1199.92,1203.31c-.751.308-1.5.61-2.236.9-1.189.469-2.352.91-3.462,1.306,1.831-8.348-7-18.842-11.085-23.166,1.71-.382,3.446-.738,5.182-1.07C1200.022,1192.594,1200.727,1199.795,1199.92,1203.31Z" transform="translate(-866.112 -531.04)" fill="#585353"/>
      <path id="Path_38765" data-name="Path 38765" d="M1326.137,1180.2c.29-3.618-1.2-9.822-9.949-18.86-1.806.191-3.706.432-5.66.719,4.234,4.751,10.844,13.491,9.856,20.831Z" transform="translate(-980.73 -513.104)" fill="#585353"/>
      <path id="Path_38766" data-name="Path 38766" d="M1654.8,1739.3a28.293,28.293,0,0,1-5.46,8.983c-2.772,2.784-7.508,3.223-13.421,1.721-4.505-1.144-9.375-8.194-11.438-11.484a22.421,22.421,0,0,0,3.365-1.507.058.058,0,0,1,.074.019c1.155,1.681,2.309,3.363,3.539,5.015a28.166,28.166,0,0,0,2.2,2.681,12.791,12.791,0,0,0,2.037,1.75,9.851,9.851,0,0,0,5.493,1.736c.177,0,.355,0,.534-.016a10.336,10.336,0,0,0,3.3-.781,11.307,11.307,0,0,0,2.976-1.8,14.007,14.007,0,0,0,2.32-2.572c.685-.948,1.3-1.962,1.924-2.981a.06.06,0,0,1,.029-.024,14.9,14.9,0,0,1,2.01-.631C1654.447,1739.378,1654.617,1739.341,1654.8,1739.3Z" transform="translate(-1263.201 -1031.046)" fill="#585353"/>
      <path id="Path_38767" data-name="Path 38767" d="M1926.832,1923.386s10.5-7.518,20.127-6.238l2.079,3.046s-12.3.94-19.58,7.524Z" transform="translate(-1535.235 -1192.987)" fill="#585353"/>
      <path id="Path_38768" data-name="Path 38768" d="M1387.968,1910.1c.953-.413,1.867-.868,2.758-1.355s1.757-1,2.591-1.557a29.6,29.6,0,0,0,4.624-3.755l.52-.53c.169-.18.331-.368.5-.55s.328-.37.487-.56.324-.375.472-.573c.626-.769,1.182-1.593,1.733-2.427a39.839,39.839,0,0,0,2.777-5.418,17.671,17.671,0,0,1-1.673,6.029c-.247.466-.47.949-.755,1.4-.138.226-.268.458-.416.678l-.45.657a19.719,19.719,0,0,1-2.059,2.431,20.164,20.164,0,0,1-5.129,3.708,19.218,19.218,0,0,1-2.915,1.191c-.5.158-1.005.293-1.517.4A10.806,10.806,0,0,1,1387.968,1910.1Z" transform="translate(-1050.405 -1171.731)" fill="#585353"/>
      <path id="Path_38769" data-name="Path 38769" d="M2179.392,1866.624a16.744,16.744,0,0,1,1.514,1c.49.354.965.728,1.43,1.115a32.946,32.946,0,0,1,2.65,2.481,36.69,36.69,0,0,1,4.482,5.727c.318.519.637,1.036.933,1.567.15.265.3.53.436.8s.285.537.42.809c.258.551.533,1.093.762,1.657.116.281.244.556.351.841l.323.852a27.247,27.247,0,0,1,1.593,7.065c-.849-2.258-1.727-4.454-2.755-6.576-.511-1.062-1.056-2.1-1.62-3.132-.3-.508-.57-1.026-.881-1.525-.292-.509-.606-1-.917-1.5a70.068,70.068,0,0,0-4.076-5.759q-1.092-1.394-2.252-2.747C2181.012,1868.391,2180.22,1867.5,2179.392,1866.624Z" transform="translate(-1762.47 -1147.662)" fill="#585353"/>
    </g>
    <g id="Group_176428" data-name="Group 176428" transform="translate(400.529 716.392)">
      <path id="Path_38770" data-name="Path 38770" d="M2120.1,1843.517l-.885,2.071-23.143,54.151a.06.06,0,0,1-.056.037l-78.535,5.065-1.527-2.525a.058.058,0,0,1-.048-.027.06.06,0,0,1,0-.055l26.965-58.775a.056.056,0,0,1,.053-.034l75.653-2.434a.06.06,0,0,1,.047.027.053.053,0,0,1,0,.053Z" transform="translate(-2015.901 -1840.992)" fill="#80a0d8"/>
    </g>
    <path id="Path_38771" data-name="Path 38771" d="M2456.313,2380.939q-.289-.086-.574-.178c-1.778-.565-3.456-1.21-5.063-1.847-.143-.056-.286-.113-.428-.17,10.737-8.365-.05-24.062-.05-24.062s-8.727-9.264,4.9,1.721C2466,2365.186,2459.4,2376.681,2456.313,2380.939Z" transform="translate(-2003.644 -1583.495)" fill="#585353"/>
    <path id="Path_38772" data-name="Path 38772" d="M2579.919,2424.275q-1.353.079-2.686.079c-1.431,0-2.836-.067-4.2-.2,8.808-8.553-1.176-23.084-1.176-23.084s-8.726-9.264,4.9,1.721C2585.644,2409.943,2582.907,2418.9,2579.919,2424.275Z" transform="translate(-2113.108 -1625.228)" fill="#585353"/>
    <path id="Path_38773" data-name="Path 38773" d="M2362.573,1843.517l-.886,2.071-74.236,1.343-2.059-3.506,75.653-2.434a.059.059,0,0,1,.046.027.052.052,0,0,1,0,.053Z" transform="translate(-1857.84 -1124.6)" fill="#a2bdf4"/>
    <g id="Group_176429" data-name="Group 176429" transform="translate(402.057 718.918)">
      <path id="Path_38774" data-name="Path 38774" d="M2133.866,1866.261l-22.553,58.668a.06.06,0,0,1-.056.037l-80.062,2.54a.058.058,0,0,1-.048-.027.06.06,0,0,1,0-.055l26.965-58.775a.056.056,0,0,1,.053-.034l75.653-2.434a.06.06,0,0,1,.046.027A.053.053,0,0,1,2133.866,1866.261Z" transform="translate(-2031.139 -1866.181)" fill="#d2dfff"/>
    </g>
    <path id="Path_38775" data-name="Path 38775" d="M2556.242,2055.8c0,3.636-7.277,10.4-13.169,9.01-3.836-.9-3.452-6.86-1.8-10.916,1.375-3.366,6.519-7.246,10.459-7.246S2556.242,2052.164,2556.242,2055.8Z" transform="translate(-2086.99 -1309.634)" fill="none" stroke="#f8f0e3" stroke-miterlimit="10" stroke-width="24"/>
    <g id="Group_176430" data-name="Group 176430" transform="translate(340.459 783.205)">
      <path id="Path_38776" data-name="Path 38776" d="M1529.027,2572.726l-.016-.011c-9.342-7.536-17.773-15.455-26.285-22.312s-17.1-12.651-23.1-17.458-10.332-8.258-13.836-10.988-6.183-4.746-8.883-6.7a70.148,70.148,0,0,0-8.181-5.28,21.411,21.411,0,0,0-8.37-2.65c-.1-.007-.191-.011-.287-.016-.252-.013-.5-.02-.754-.02-5.313,0-10.658,2.761-14.682,6.609a28.355,28.355,0,0,0-5.222,6.8,20.633,20.633,0,0,0-2.445,6.96,12.708,12.708,0,0,0-.117,1.715c0,3.521,1.527,6.485,3.772,10.239a53.706,53.706,0,0,0,5.264,7.491,75.453,75.453,0,0,0,10.507,10.032,179.99,179.99,0,0,0,18.021,12.583,175.314,175.314,0,0,0,21.768,11.518,139.039,139.039,0,0,0,21.247,7.143c6.912,1.76,13.7,3.052,20.477,4.343a.058.058,0,0,0,.048-.013c1.46-1.248,2.923-2.5,4.252-3.85a21.051,21.051,0,0,0,3.451-4.475c1.851-3.326,2.623-7.472,3.393-11.606A.063.063,0,0,0,1529.027,2572.726Zm-11.151,19.9c.006-.006.014-.011.021-.018l.029,0Zm11.062-19.821-.013-.01c0-.011,0-.022.006-.034l.021.056Z" transform="translate(-1416.848 -2507.296)" fill="#616161"/>
    </g>
    <g id="Group_176431" data-name="Group 176431" transform="translate(343.509 814.803)">
      <path id="Path_38777" data-name="Path 38777" d="M1501.437,2864.88a.717.717,0,0,1-.332-.082c-.1-.05-9.725-5.07-20.712-11.969-14.79-9.287-24.867-17.372-29.953-24.032a21.174,21.174,0,0,1-3.133-5.415.722.722,0,1,1,1.356-.5,19.763,19.763,0,0,0,2.925,5.034c11.9,15.581,49.8,35.4,50.184,35.6a.722.722,0,0,1-.334,1.363Z" transform="translate(-1447.262 -2822.413)" fill="#0f2149"/>
    </g>
    <g id="Group_176432" data-name="Group 176432" transform="translate(340.191 818.913)">
      <path id="Path_38778" data-name="Path 38778" d="M1420.606,2867.131c-2.559,0-5.7-2.128-6.122-2.424a.722.722,0,0,1,.826-1.184h0c1.694,1.18,4.889,2.753,6.248,1.949a.722.722,0,0,1,.735,1.243A3.269,3.269,0,0,1,1420.606,2867.131Z" transform="translate(-1414.175 -2863.393)" fill="#0f2149"/>
    </g>
    <g id="Group_176433" data-name="Group 176433" transform="translate(371.188 785.624)">
      <path id="Path_38779" data-name="Path 38779" d="M1804.643,2595.862a.718.718,0,0,1-.5-.2c-.143-.135-14.448-13.635-31.446-28.069-22.452-19.066-39.377-31.092-48.945-34.779a.722.722,0,1,1,.519-1.348c9.857,3.8,26.466,15.584,49.365,35.03,17.026,14.458,31.355,27.981,31.5,28.116a.722.722,0,0,1-.5,1.247Z" transform="translate(-1723.294 -2531.42)" fill="#0f2149"/>
    </g>
    <path id="Path_38780" data-name="Path 38780" d="M1998.7,2431.523s3.237-3.1,7.241-1.637,7.465,4.7,9.778,5.16-8.51,2.85-8.51,2.85l-8.51-3.157Z" transform="translate(-1599.894 -1654.091)" fill="#fbaf83"/>
    <path id="Path_38781" data-name="Path 38781" d="M2695.3,2418.285s9.78-5.837,17.481-4.451l-2.31,5.194Z" transform="translate(-2226.641 -1639.809)" fill="#fe0000"/>
    <g id="Group_176434" data-name="Group 176434" transform="translate(462.218 854.203)">
      <path id="Path_38782" data-name="Path 38782" d="M2632.881,3229.348a.722.722,0,0,1-.68-.479c-.129-.361-3.106-8.9,1.325-13.328a.722.722,0,0,1,1.021,1.021c-3.784,3.784-1.014,11.742-.985,11.823a.723.723,0,0,1-.68.964Z" transform="translate(-2631.103 -3215.328)" fill="#1a3d70"/>
    </g>
    <g id="Group_176435" data-name="Group 176435" transform="translate(470.784 853.086)">
      <path id="Path_38783" data-name="Path 38783" d="M2718.312,3218.215a.722.722,0,0,1-.68-.479c-.129-.361-3.106-8.9,1.324-13.329a.722.722,0,0,1,1.021,1.021c-3.784,3.784-1.014,11.743-.986,11.823a.722.722,0,0,1-.68.964Z" transform="translate(-2716.534 -3204.195)" fill="#1a3d70"/>
    </g>
    <g id="Group_176436" data-name="Group 176436" transform="translate(396.485 858.772)">
      <path id="Path_38784" data-name="Path 38784" d="M1983.564,3272.675l-.059,0a.722.722,0,0,1-.661-.778c.433-5.333-6.831-9.6-6.9-9.647a.722.722,0,0,1,.722-1.25c.332.191,8.128,4.769,7.621,11.014A.722.722,0,0,1,1983.564,3272.675Z" transform="translate(-1975.578 -3260.9)" fill="#1a3d70"/>
    </g>
    <g id="Group_176437" data-name="Group 176437" transform="translate(263.792 871.658)">
      <path id="Path_38785" data-name="Path 38785" d="M737.568,3389.408q-2.193.645-4.394,1.283H655.418q-1.576-.619-3.146-1.283Z" transform="translate(-652.272 -3389.408)" fill="#e5b5a3"/>
    </g>
    <g id="Group_176438" data-name="Group 176438" transform="translate(252.411 825.961)">
      <rect id="Rectangle_162454" data-name="Rectangle 162454" width="1.284" height="27.463" transform="matrix(0.837, -0.547, 0.547, 0.837, 0, 0.702)" fill="#e5b5a3"/>
    </g>
    <g id="Group_176439" data-name="Group 176439" transform="translate(300.401 848.955)">
      <rect id="Rectangle_162455" data-name="Rectangle 162455" width="1.284" height="27.463" transform="matrix(0.837, -0.547, 0.547, 0.837, 0, 0.702)" fill="#e5b5a3"/>
    </g>
    <g id="Group_176440" data-name="Group 176440" transform="translate(501.177 825.826)">
      <rect id="Rectangle_162456" data-name="Rectangle 162456" width="1.283" height="27.463" transform="translate(0 0.702) rotate(-33.148)" fill="#e5b5a3"/>
    </g>
    <g id="Group_176441" data-name="Group 176441" transform="translate(546.997 804.369)">
      <path id="Path_38786" data-name="Path 38786" d="M3478.107,2718.352l13.911,21.3.183.279-1.073.7-.642-.982-13.91-21.3Z" transform="translate(-3476.576 -2718.352)" fill="#e5b5a3"/>
    </g>
    <g id="Group_176442" data-name="Group 176442" transform="translate(548.522 848.238)">
      <path id="Path_38787" data-name="Path 38787" d="M3502.761,3170.99c-.411.159-.821.31-1.237.456l-9.059-13.872-.674-1.032.459-.3.616-.4.263.4.869,1.332Z" transform="translate(-3491.792 -3155.84)" fill="#e5b5a3"/>
    </g>
    <ellipse id="Ellipse_634" data-name="Ellipse 634" cx="10.285" cy="7.372" rx="10.285" ry="7.372" transform="translate(306.739 617.139)" fill="#f8f0e3"/>
    <ellipse id="Ellipse_635" data-name="Ellipse 635" cx="10.904" cy="9.387" rx="10.904" ry="9.387" transform="translate(532.199 741.653)" fill="#f8f0e3"/>
  </g>
</svg>
