<svg xmlns="http://www.w3.org/2000/svg" width="26.795" height="22.185" viewBox="1060.674 630 26.795 22.185"><g data-name="Group 178538"><g data-name="Group 178525"><g data-name="Group 178524"><path d="M1073.998 640.622c-.73-4.422-3.082-7.914-5.773-9.027l-.117-.712-2.38.391c-3.616.597-5.78 5.749-4.83 11.507.95 5.759 4.651 9.944 8.269 9.348l2.379-.393-.118-.712c2.191-1.919 3.298-5.98 2.57-10.402Z" fill="#6b1c1c" fill-rule="evenodd" data-name="Path 39749"/><path d="M1076.377 640.23c.949 5.758-1.214 10.91-4.831 11.506-3.618.597-7.32-3.588-8.27-9.347-.948-5.759 1.215-10.91 4.832-11.506 3.617-.597 7.32 3.588 8.269 9.347Z" fill="#f74343" fill-rule="evenodd" data-name="Path 39750"/><path d="M1064.39 642.104a5.495 8.747-9.36 1 1 .015.099z" fill="#fff" fill-rule="evenodd" data-name="Ellipse 766"/><path d="M1074.42 640.633c.674 4.09-.862 7.749-3.431 8.173-2.57.423-5.199-2.55-5.873-6.64-.674-4.09.862-7.748 3.432-8.171 2.569-.424 5.198 2.548 5.872 6.638Z" fill="#f74343" fill-rule="evenodd" data-name="Path 39751"/><path d="M1073.595 640.77c.555 3.364-.71 6.374-2.823 6.722-2.113.348-4.276-2.097-4.83-5.461-.555-3.365.709-6.375 2.822-6.723 2.113-.348 4.276 2.097 4.83 5.461Z" fill="#fff" fill-rule="evenodd" data-name="Path 39752"/><path d="M1072.695 640.917c.424 2.574-.542 4.877-2.159 5.143-1.616.266-3.27-1.604-3.695-4.177-.424-2.574.543-4.876 2.16-5.143 1.616-.266 3.27 1.604 3.694 4.177Z" fill="#f74343" fill-rule="evenodd" data-name="Path 39753"/><path d="M1071.802 641.065c.294 1.787-.377 3.387-1.5 3.572-1.123.185-2.273-1.114-2.567-2.902-.295-1.788.377-3.387 1.5-3.572 1.123-.185 2.272 1.114 2.567 2.902Z" fill="#fff" fill-rule="evenodd" data-name="Path 39754"/><path d="M1070.884 641.216c.162.981-.207 1.859-.823 1.96-.616.102-1.247-.61-1.409-1.592-.161-.98.207-1.859.823-1.96.617-.102 1.247.611 1.41 1.592Z" fill="#f74343" fill-rule="evenodd" data-name="Path 39755"/><path d="M1070.277 641.386c.04.242-.051.458-.203.484-.153.025-.308-.151-.348-.393-.04-.243.05-.46.203-.485.152-.025.308.151.348.394Z" fill="#3b1010" fill-rule="evenodd" data-name="Path 39756"/><path d="M1067.687 635.41c.04.242-.051.458-.203.484-.153.025-.308-.151-.348-.394-.04-.242.05-.459.203-.484.152-.025.308.151.348.394Z" fill="#3b1010" fill-rule="evenodd" data-name="Path 39757"/><path d="M1067.662 644.732c-.026.244-.17.429-.324.413-.154-.016-.257-.227-.232-.471.026-.244.17-.43.324-.413.154.016.257.227.232.471Z" fill="#3b1010" fill-rule="evenodd" data-name="Path 39758"/></g></g><g data-name="Group 178529"><g data-name="Group 178526"><path d="m1087.144 640.23-16.986 1.55a.357.357 0 1 1-.065-.711l16.986-1.551a.357.357 0 1 1 .065.711Z" fill="#e39d46" fill-rule="evenodd" data-name="Path 39759"/><path d="m1087.144 640.23-16.986 1.55a.357.357 0 0 1-.388-.323l17.697-1.616a.357.357 0 0 1-.323.388Z" fill="#b87f39" fill-rule="evenodd" data-name="Path 39760"/></g><g data-name="Group 178527"><path d="m1086.91 637.912-3.946.36-1.01 1.714 4.058-.37.898-1.704Z" fill="#ed3030" fill-rule="evenodd" data-name="Path 39761"/><path d="m1086.002 638.502-2.711.248-.694 1.177 2.788-.255.617-1.17Z" fill="#fff" fill-rule="evenodd" data-name="Path 39762"/></g><g data-name="Group 178528"><path d="m1087.269 641.839-3.947.36-1.303-1.502 4.058-.37 1.192 1.512Z" fill="#ed3030" fill-rule="evenodd" data-name="Path 39763"/><path d="m1086.269 641.423-2.712.247-.895-1.031 2.788-.255.819 1.039Z" fill="#fff" fill-rule="evenodd" data-name="Path 39764"/></g></g><g data-name="Group 178533"><g data-name="Group 178530"><path d="m1084.3 647.67-16.86-2.587a.357.357 0 1 1 .108-.707l16.86 2.587a.357.357 0 1 1-.109.706Z" fill="#e39d46" fill-rule="evenodd" data-name="Path 39765"/><path d="m1084.3 647.67-16.86-2.587a.357.357 0 0 1-.3-.408l17.567 2.695a.357.357 0 0 1-.408.3Z" fill="#b87f39" fill-rule="evenodd" data-name="Path 39766"/></g><g data-name="Group 178531"><path d="m1084.63 645.364-3.916-.601-1.393 1.42 4.028.617 1.282-1.436Z" fill="#30b1ed" fill-rule="evenodd" data-name="Path 39767"/><path d="m1083.607 645.718-2.691-.413-.957.975 2.767.425.881-.987Z" fill="#fff" fill-rule="evenodd" data-name="Path 39768"/></g><g data-name="Group 178532"><path d="m1084.033 649.261-3.917-.6-.903-1.772 4.027.618.793 1.754Z" fill="#30b1ed" fill-rule="evenodd" data-name="Path 39769"/><path d="m1083.162 648.617-2.69-.413-.621-1.218 2.767.425.544 1.206Z" fill="#fff" fill-rule="evenodd" data-name="Path 39770"/></g></g><g data-name="Group 178537"><g data-name="Group 178534"><path d="m1084.333 632.275-16.696 3.492a.357.357 0 1 1-.147-.7l16.696-3.491a.357.357 0 0 1 .147.7Z" fill="#e39d46" fill-rule="evenodd" data-name="Path 39771"/><path d="m1084.333 632.275-16.696 3.492a.357.357 0 0 1-.423-.276l17.395-3.639a.357.357 0 0 1-.276.423Z" fill="#b87f39" fill-rule="evenodd" data-name="Path 39772"/></g><g data-name="Group 178535"><path d="m1083.834 630-3.879.812-.806 1.817 3.988-.834.697-1.795Z" fill="#8eed30" fill-rule="evenodd" data-name="Path 39773"/><path d="m1083 630.691-2.665.557-.554 1.25 2.74-.574.479-1.233Z" fill="#fff" fill-rule="evenodd" data-name="Path 39774"/></g><g data-name="Group 178536"><path d="m1084.641 633.86-3.879.811-1.467-1.342 3.989-.834 1.357 1.365Z" fill="#8eed30" fill-rule="evenodd" data-name="Path 39775"/><path d="m1083.6 633.561-2.665.558-1.008-.922 2.74-.574.933.938Z" fill="#fff" fill-rule="evenodd" data-name="Path 39776"/></g></g></g></svg>