<svg xmlns="http://www.w3.org/2000/svg" xmlns:xlink="http://www.w3.org/1999/xlink" width="283.839" height="279.669" viewBox="0 0 283.839 279.669">
  <defs>
    <linearGradient id="linear-gradient" x1="1.13" y1="1.295" x2="0.236" y2="0.19" gradientUnits="objectBoundingBox">
      <stop offset="0" stop-color="#b37cff"/>
      <stop offset="1" stop-color="#f895e7"/>
    </linearGradient>
    <linearGradient id="linear-gradient-2" x1="-17.498" y1="-0.228" x2="-18.702" y2="0.468" gradientUnits="objectBoundingBox">
      <stop offset="0" stop-color="#a737d5"/>
      <stop offset="1" stop-color="#ef497a"/>
    </linearGradient>
    <linearGradient id="linear-gradient-3" x1="-27.046" y1="0.212" x2="-32.752" y2="1.858" gradientUnits="objectBoundingBox">
      <stop offset="0" stop-color="#cb236d"/>
      <stop offset="1" stop-color="#4c246d"/>
    </linearGradient>
    <linearGradient id="linear-gradient-4" x1="-14.693" y1="-0.2" x2="-15.401" y2="0.452" xlink:href="#linear-gradient-2"/>
    <linearGradient id="linear-gradient-5" x1="-27.43" y1="0.114" x2="-30.671" y2="2.456" xlink:href="#linear-gradient-3"/>
    <linearGradient id="linear-gradient-6" x1="0.503" y1="0.004" x2="0.486" y2="1.249" gradientUnits="objectBoundingBox">
      <stop offset="0" stop-color="#2b3582"/>
      <stop offset="1" stop-color="#150e42"/>
    </linearGradient>
    <linearGradient id="linear-gradient-7" x1="0.526" y1="0.436" x2="-0.088" y2="1.934" gradientUnits="objectBoundingBox">
      <stop offset="0" stop-color="#fdf53f"/>
      <stop offset="0.665" stop-color="#e57a58"/>
      <stop offset="1" stop-color="#d93c65"/>
    </linearGradient>
    <linearGradient id="linear-gradient-8" x1="0.501" y1="-0.174" x2="0.515" y2="-11.353" xlink:href="#linear-gradient-6"/>
    <linearGradient id="linear-gradient-9" x1="0.521" y1="-0.148" x2="0.373" y2="5.137" xlink:href="#linear-gradient-7"/>
    <linearGradient id="linear-gradient-10" x1="0.63" y1="-0.542" x2="0.144" y2="3.354" xlink:href="#linear-gradient-7"/>
    <linearGradient id="linear-gradient-11" x1="0.869" y1="-1.512" x2="-0.488" y2="5.883" xlink:href="#linear-gradient-7"/>
    <linearGradient id="linear-gradient-12" x1="0.539" y1="-1.385" x2="0.455" y2="2.717" xlink:href="#linear-gradient-7"/>
    <linearGradient id="linear-gradient-13" x1="6.849" y1="-13.933" x2="0.421" y2="0.846" gradientUnits="objectBoundingBox">
      <stop offset="0" stop-color="#53d8ff"/>
      <stop offset="1" stop-color="#3840f7"/>
    </linearGradient>
    <linearGradient id="linear-gradient-14" y1="0.5" x2="1" y2="0.5" gradientUnits="objectBoundingBox">
      <stop offset="0" stop-color="#f9b776"/>
      <stop offset="1" stop-color="#f47960"/>
    </linearGradient>
    <linearGradient id="linear-gradient-15" x1="4.187" y1="-13.195" x2="0.09" y2="2.204" xlink:href="#linear-gradient-13"/>
    <linearGradient id="linear-gradient-17" x1="2.926" y1="-0.64" x2="-0.552" y2="1.035" gradientUnits="objectBoundingBox">
      <stop offset="0"/>
      <stop offset="1" stop-color="#4c246d"/>
    </linearGradient>
    <linearGradient id="linear-gradient-18" x1="10.842" y1="-12.094" x2="-0.373" y2="1.563" gradientUnits="objectBoundingBox">
      <stop offset="0"/>
      <stop offset="1"/>
    </linearGradient>
    <linearGradient id="linear-gradient-19" x1="1.306" y1="-6.054" x2="0.19" y2="2.781" xlink:href="#linear-gradient-13"/>
    <linearGradient id="linear-gradient-20" x1="5.847" y1="-1.355" x2="1.559" y2="0.163" xlink:href="#linear-gradient-14"/>
    <linearGradient id="linear-gradient-21" x1="0.812" y1="0.1" x2="-0.174" y2="1.426" xlink:href="#linear-gradient-13"/>
    <linearGradient id="linear-gradient-22" x1="1.838" y1="-1.615" x2="-0.446" y2="1.548" xlink:href="#linear-gradient-14"/>
    <linearGradient id="linear-gradient-23" x1="1.134" y1="-2.795" x2="-0.705" y2="5.663" xlink:href="#linear-gradient-14"/>
    <linearGradient id="linear-gradient-24" x1="1.697" y1="-1.142" x2="-0.953" y2="2.815" xlink:href="#linear-gradient-14"/>
    <linearGradient id="linear-gradient-25" x1="-8.861" y1="35.825" x2="-10.079" y2="37.121" xlink:href="#linear-gradient-14"/>
    <linearGradient id="linear-gradient-26" x1="-6.815" y1="23.716" x2="-5.771" y2="23.716" xlink:href="#linear-gradient-6"/>
    <linearGradient id="linear-gradient-27" x1="-28.959" y1="114.22" x2="-26.257" y2="111.682" xlink:href="#linear-gradient-14"/>
    <linearGradient id="linear-gradient-28" x1="0.491" y1="1.374" x2="0.507" y2="-0.925" xlink:href="#linear-gradient-13"/>
    <linearGradient id="linear-gradient-29" x1="0.423" y1="1.076" x2="0.592" y2="-1.089" xlink:href="#linear-gradient-13"/>
    <linearGradient id="linear-gradient-30" x1="0.821" y1="-1.109" x2="-0.065" y2="3.333" xlink:href="#linear-gradient-2"/>
    <linearGradient id="linear-gradient-31" x1="2.486" y1="-0.957" x2="-0.099" y2="0.94" xlink:href="#linear-gradient-2"/>
  </defs>
  <g id="Group_176301" data-name="Group 176301" transform="translate(-4527.406 -455)">
    <path id="Path_38595" data-name="Path 38595" d="M4797.6,695.33a100.636,100.636,0,0,1-15.4,12.964c-50.229,36.041-109.665,25.535-122.3,22.969-18.654-3.789-54.709-11.112-80.777-41.767-39.438-46.379-33.3-119.447-2.706-167.68,5.6-8.823,35.153-57.791,95.228-65.644,36.357-4.753,78.738,4.833,109.429,30.546C4845.5,540.692,4840.914,649.728,4797.6,695.33Z" transform="translate(-21.685)" opacity="0.3" fill="url(#linear-gradient)"/>
    <g id="Group_176289" data-name="Group 176289" transform="translate(4555.04 460.979)">
      <g id="Group_176287" data-name="Group 176287" transform="translate(7.148)">
        <path id="Path_38596" data-name="Path 38596" d="M4925.965,639.584s.644-27.054-11.817-34.294-36.152-11.768-37.041-50.614c-.52-22.742-1.083-32.686-1.46-37.021a2.561,2.561,0,0,1,3.025-2.742c11.8,2.223,50.138,11.374,58.176,37.541C4946.377,583.473,4925.965,639.584,4925.965,639.584Z" transform="translate(-4875.638 -514.866)" fill="url(#linear-gradient-2)"/>
        <path id="Path_38597" data-name="Path 38597" d="M4989.861,622.413c12.955,11.553,27.934,32,35.917,52.447a96.153,96.153,0,0,1,5.325,23.268,107.2,107.2,0,0,1-.825,29.268.866.866,0,0,1-1.012.689.878.878,0,0,1-.692-.994,118.675,118.675,0,0,0-2.748-42.739c-4.713-17.5-15.227-34.467-26.1-48.858l-1.119-1.417c-8.425-10.819-10.2-10.9-9.411-11.653A.492.492,0,0,1,4989.861,622.413Z" transform="translate(-4977.701 -611.559)" fill="url(#linear-gradient-3)"/>
      </g>
      <g id="Group_176288" data-name="Group 176288" transform="translate(0 71.981)">
        <path id="Path_38598" data-name="Path 38598" d="M4881.569,1340.274c1.686.827-15.96-21.363-21.488-56.214-2.6-16.423-2.639-37-11.994-44.928-7.786-6.6-34.28-2.433-42.949-.85a1.3,1.3,0,0,0-.6,2.274c4.158,3.491,13.051,11.727,15.368,20.026,3.054,10.939,13.455,17.9,22.766,19.781s14.491,3.71,19.027,18.6S4876.779,1337.925,4881.569,1340.274Z" transform="translate(-4804.069 -1235.524)" fill="url(#linear-gradient-4)"/>
        <path id="Path_38599" data-name="Path 38599" d="M4934.61,1309.415c11.061.463,22.933,5.509,28.957,14.973l.569.9a212.116,212.116,0,0,1,12.891,29.649.3.3,0,0,1-.188.375.3.3,0,0,1-.371-.177c-2.88-7.049-7.018-15.987-10.312-22.67-3.533-7.293-6.006-12.232-14.065-16.963a44.872,44.872,0,0,0-17.514-5.614.238.238,0,0,1,.034-.475Z" transform="translate(-4921.348 -1302.035)" fill="url(#linear-gradient-5)"/>
      </g>
    </g>
    <g id="Group_176291" data-name="Group 176291" transform="translate(4527.406 553.658)">
      <path id="Path_38600" data-name="Path 38600" d="M4693.123,1594.061a4.463,4.463,0,0,0,4.452,4.448h240.753a4.464,4.464,0,0,0,4.453-4.448l2-138.354a7.753,7.753,0,0,0-8.164-6.863l-235.291-6.088a11.218,11.218,0,0,0-11.512,11.475Z" transform="translate(-4673.592 -1442.751)" fill="url(#linear-gradient-6)"/>
      <path id="Path_38601" data-name="Path 38601" d="M4736.706,1637.339a4.225,4.225,0,0,0,4.212,4.212h230.792a4.225,4.225,0,0,0,4.212-4.212l1.89-125.6c-.222-7.558-6.849-10.275-10.866-10.114l-225.5-6.05a7.885,7.885,0,0,0-8.09,8.069Z" transform="translate(-4712.78 -1490.297)" fill="url(#linear-gradient-7)"/>
      <rect id="Rectangle_162400" data-name="Rectangle 162400" width="283.839" height="12.156" rx="5.654" transform="translate(283.839 167.242) rotate(180)" fill="url(#linear-gradient-8)"/>
      <path id="Path_38602" data-name="Path 38602" d="M4977.625,1524.588l.188-12.584c-.222-7.558-6.849-10.315-10.866-10.155l-225.5-6.07a7.871,7.871,0,0,0-5.774,2.288,8.052,8.052,0,0,0-2.315,5.847l.517,20.675Z" transform="translate(-4712.78 -1490.479)" fill="url(#linear-gradient-9)"/>
      <g id="Group_176290" data-name="Group 176290" transform="translate(179.381 11.791)">
        <path id="Path_38603" data-name="Path 38603" d="M7131.409,2214.6h-.009a.618.618,0,0,1-.608-.626l.15-10.186a.617.617,0,0,1,.617-.608h.009a.618.618,0,0,1,.608.627l-.15,10.186A.617.617,0,0,1,7131.409,2214.6Z" transform="translate(-7050.141 -2139.019)" fill="#fff"/>
        <path id="Path_38604" data-name="Path 38604" d="M6404.97,1611.421h-.009a.618.618,0,0,1-.608-.627l.573-39.012a7.326,7.326,0,0,0-2.091-5.487c-2.57-2.462-6.649-2.336-6.822-2.328l-72.076-1.933a.618.618,0,0,1-.6-.634.591.591,0,0,1,.634-.6l72.033,1.933c.448-.026,4.792-.1,7.685,2.67a8.518,8.518,0,0,1,2.471,6.384l-.573,39.025A.617.617,0,0,1,6404.97,1611.421Z" transform="translate(-6323.336 -1560.799)" fill="#fff"/>
      </g>
      <rect id="Rectangle_162401" data-name="Rectangle 162401" width="137.788" height="57.85" rx="11.167" transform="translate(30.797 40.244)" fill="url(#linear-gradient-10)"/>
      <rect id="Rectangle_162402" data-name="Rectangle 162402" width="82.392" height="57.85" rx="8" transform="translate(175.773 40.244)" fill="url(#linear-gradient-11)"/>
      <rect id="Rectangle_162403" data-name="Rectangle 162403" width="227.368" height="39.268" rx="9.833" transform="translate(30.797 106.509)" fill="url(#linear-gradient-12)"/>
      <rect id="Rectangle_162404" data-name="Rectangle 162404" width="149.383" height="7.169" rx="3.585" transform="translate(35.331 133.826)" fill="#fff" opacity="0.25"/>
      <rect id="Rectangle_162405" data-name="Rectangle 162405" width="75.743" height="20.583" rx="10.291" transform="translate(179.381 73.739)" fill="#fff" opacity="0.25"/>
      <rect id="Rectangle_162406" data-name="Rectangle 162406" width="74.378" height="25.545" rx="12" transform="translate(179.381 44.913)" fill="#fff" opacity="0.25"/>
      <rect id="Rectangle_162407" data-name="Rectangle 162407" width="150.361" height="20.484" rx="10.242" transform="translate(34.353 109.928)" fill="#fff" opacity="0.25"/>
      <rect id="Rectangle_162408" data-name="Rectangle 162408" width="64.867" height="31.068" rx="12" transform="translate(190.257 109.928)" fill="#fff" opacity="0.25"/>
      <rect id="Rectangle_162409" data-name="Rectangle 162409" width="125.512" height="46.64" rx="12" transform="translate(36.75 45.975)" fill="#fff" opacity="0.25"/>
    </g>
    <g id="Group_176293" data-name="Group 176293" transform="translate(4558.115 565.787)">
      <path id="Path_38605" data-name="Path 38605" d="M4851.28,2940.881s-1.108,1.747-1.387,6.636a.8.8,0,0,0,.792.844h8.666a.511.511,0,0,0,.486-.672,13.869,13.869,0,0,0-5.469-7.261Z" transform="translate(-4848.39 -2802.966)" fill="url(#linear-gradient-13)"/>
      <path id="Path_38606" data-name="Path 38606" d="M4860.019,2907.685l.49,4.11a.773.773,0,0,0,.675.679,6.847,6.847,0,0,0,1.833-.017,1.269,1.269,0,0,0,1.046-1.259v-3.968Z" transform="translate(-4857.506 -2773.083)" fill="url(#linear-gradient-14)"/>
      <path id="Path_38607" data-name="Path 38607" d="M5063.817,2940.428a12.1,12.1,0,0,0-1.624,6.117,1.532,1.532,0,0,0,1.541,1.5h13.458a.644.644,0,0,0,.37-1.172c-2.546-1.788-7.552-5.129-11.173-6.442Z" transform="translate(-5039.487 -2802.966)" fill="url(#linear-gradient-15)"/>
      <path id="Path_38608" data-name="Path 38608" d="M5064.573,2878.224l1.045,5.076a1.046,1.046,0,0,0,1.238.823,3.8,3.8,0,0,0,1.184-.495,1.2,1.2,0,0,0,.537-1.226l-1.082-6.149Z" transform="translate(-5041.629 -2745.201)" fill="url(#linear-gradient-14)"/>
      <path id="Path_38609" data-name="Path 38609" d="M4839.3,2189.451s-3.635,3.2-4.319,7.06,1.938,66.524,1.938,66.524,3.635.6,5.509-.531c0,0,2.223-40.671,3.912-50.069,0,0,8.858,42.13,11.313,49.743,0,0,3.5.426,4.631-.24,0,0-2.32-54.613-5.236-64.322Z" transform="translate(-4834.863 -2126.998)" fill="url(#linear-gradient-17)"/>
      <path id="Path_38610" data-name="Path 38610" d="M4901.132,2326.555a.393.393,0,0,1-.381-.295l-1.505-5.774-3.206-2.056a.395.395,0,0,1,.427-.664l3.335,2.14a.392.392,0,0,1,.168.233l1.544,5.923a.4.4,0,0,1-.283.481A.387.387,0,0,1,4901.132,2326.555Z" transform="translate(-4889.766 -2242.44)" fill="url(#linear-gradient-18)"/>
      <path id="Path_38611" data-name="Path 38611" d="M5064.443,1813.079c-15.3-1.27-19.3,1.9-19.3,1.9l7.354,11.609s15.037-.3,25.81-8.6a26.273,26.273,0,0,1-4.314-6.44A20.265,20.265,0,0,1,5064.443,1813.079Z" transform="translate(-5024.138 -1786.837)" fill="url(#linear-gradient-19)"/>
      <path id="Path_38612" data-name="Path 38612" d="M5348.386,1597.977a.469.469,0,0,0-.893-.179l-1.953,4.167a4.342,4.342,0,0,0-.346,2.583l.685,2.425a4.186,4.186,0,0,1-.854,3.332,29.127,29.127,0,0,1-11.055,8.6,7.951,7.951,0,1,0,13.5-6.315,2.049,2.049,0,0,0,1.445-2.036Z" transform="translate(-5284.119 -1594.196)" fill="url(#linear-gradient-20)"/>
      <path id="Path_38613" data-name="Path 38613" d="M4907.134,1807.849c-5.387-5.8-15.648-8.427-21.589-9.5a5.449,5.449,0,0,0-6.09,3.455c-2.673,7.187-9.945,25.884-11.354,29.1-1.156,2.636-2.363,5.211-3.13,6.821a1.931,1.931,0,0,0,.9,2.575c5,2.409,13.992,5.135,17.638,6.2a1.251,1.251,0,0,0,1.6-1.2,3.911,3.911,0,0,1,.557-2.011l13.809-23.012c8.607,9.543,16.145,10.416,21.935,8.327a43.556,43.556,0,0,1-1.916-9.044C4910.941,1818.083,4907.134,1807.849,4907.134,1807.849Z" transform="translate(-4861.792 -1774.876)" fill="url(#linear-gradient-21)"/>
      <path id="Path_38614" data-name="Path 38614" d="M5426.72,1976.849l-1.544-2.058c-5,3.432-9.175,4.246-12.595,3.66a43.522,43.522,0,0,0,1.916,9.044C5422.125,1984.743,5426.72,1976.849,5426.72,1976.849Z" transform="translate(-5354.877 -1933.778)" fill="url(#linear-gradient-22)"/>
      <path id="Path_38615" data-name="Path 38615" d="M5535.547,1956.018l8.7.339,8.007-4.472c-1.149-.721-7.649.752-7.649.752s-6.795-1.028-8.634-1.03c-1.528,0-1.31,2.195-1.192,2.939.024.152.044.243.044.243Z" transform="translate(-5464.793 -1912.91)" fill="url(#linear-gradient-23)"/>
      <path id="Path_38616" data-name="Path 38616" d="M5113.131,1692.411l-4.589,11.2s5.272,3.649,9.514,3.3l2.29-10.069Z" transform="translate(-5081.206 -1679.603)" fill="url(#linear-gradient-24)"/>
      <g id="Group_176292" data-name="Group 176292" transform="translate(28.267)">
        <path id="Path_38617" data-name="Path 38617" d="M5159.7,1610.055c.1.149,3.32,11.762,3.32,11.762l-6.67,1.695-4.682-10.554S5157.945,1607.562,5159.7,1610.055Z" transform="translate(-5148.295 -1604.881)" fill="url(#linear-gradient-25)"/>
        <path id="Path_38618" data-name="Path 38618" d="M5123.758,1573.86l2.03,5.749a.842.842,0,0,0,.106.206c.275.391,1.322,1.668,2.563.518a7.657,7.657,0,0,1,3.133-2.149.851.851,0,0,1,.969.611,36.774,36.774,0,0,1,1.122,5.6.849.849,0,0,1-.69.916,27.447,27.447,0,0,1-6.371.53.85.85,0,0,1-.717-.494c-.636-1.389-2.583-5.6-3.307-6.692-.68-1.023-2.346-.995-3.045-.933a.837.837,0,0,1-.627-.205,2.207,2.207,0,0,1-.138-3.542.853.853,0,0,0-.02-1.228,2.211,2.211,0,0,1-.283-3.286,3.12,3.12,0,0,1,3.724-.891.853.853,0,0,0,1.025-.379.674.674,0,0,1,.695-.325.839.839,0,0,0,.9-.86,2.543,2.543,0,0,1,1.963-2.654c2.914-.907,4.731,1.908,4.911,4.009s-3.035,2.9-4.925,2.762c-1.437-.108-2.5,1.317-2.934,2.006A.844.844,0,0,0,5123.758,1573.86Z" transform="translate(-5117.871 -1564.18)" fill="url(#linear-gradient-26)"/>
        <path id="Path_38619" data-name="Path 38619" d="M5135.788,1695.38s-.471-3.646-1.988-3.825-2.993,1.068-1.485,3.115C5134.19,1697.216,5135.788,1695.38,5135.788,1695.38Z" transform="translate(-5130.304 -1678.818)" fill="url(#linear-gradient-27)"/>
      </g>
    </g>
    <g id="Group_176298" data-name="Group 176298" transform="translate(4620.575 474.378)">
      <g id="Group_176295" data-name="Group 176295" transform="translate(0 0)">
        <path id="Path_38620" data-name="Path 38620" d="M5625.928,781.1H5471.487a11.29,11.29,0,0,1-11.29-11.29V669.247a11.29,11.29,0,0,1,10.661-11.272l160.4-8.94a11.29,11.29,0,0,1,11.9,11.886l-5.96,109.505A11.289,11.289,0,0,1,5625.928,781.1Z" transform="translate(-5460.197 -649.017)" fill="url(#linear-gradient-28)"/>
        <g id="Group_176294" data-name="Group 176294" transform="translate(3.55 0)">
          <path id="Path_38621" data-name="Path 38621" d="M5584.305,720.421l84.422-70.309a11.223,11.223,0,0,0-5.477-1.076l-160.4,8.94a11.25,11.25,0,0,0-7.111,3.056l63.183,58.761A19.639,19.639,0,0,0,5584.305,720.421Z" transform="translate(-5495.739 -649.017)" fill="url(#linear-gradient-29)"/>
        </g>
      </g>
      <g id="Group_176296" data-name="Group 176296" transform="translate(7.341 11.97)">
        <path id="Path_38622" data-name="Path 38622" d="M5582.042,813.921a.852.852,0,0,1-.575-.223l-47.5-43.356a.854.854,0,0,1,1.151-1.261l47.5,43.356a.853.853,0,0,1-.576,1.484Z" transform="translate(-5533.689 -768.858)" fill="#fff"/>
      </g>
      <g id="Group_176297" data-name="Group 176297" transform="translate(137.606 103.132)">
        <path id="Path_38623" data-name="Path 38623" d="M6844.239,1707.6q-1.934,0-4.038-.005l-1.462,0a.854.854,0,0,1,0-1.707h0l1.463,0c16.451.031,24.707.048,28.462-3.838,3.009-3.114,3.364-9.047,2.98-19.611a.854.854,0,0,1,1.707-.062c.511,14.078-.765,18.07-3.46,20.859C6865.987,1707.276,6858.515,1707.6,6844.239,1707.6Z" transform="translate(-6837.887 -1681.551)" fill="#fff"/>
      </g>
    </g>
    <g id="Group_176300" data-name="Group 176300" transform="translate(4686.703 520.191)">
      <circle id="Ellipse_624" data-name="Ellipse 624" cx="29.652" cy="29.652" r="29.652" transform="translate(0 0)" fill="url(#linear-gradient-30)"/>
      <circle id="Ellipse_625" data-name="Ellipse 625" cx="27.362" cy="27.362" r="27.362" transform="translate(2.195 2.29)" fill="url(#linear-gradient-31)"/>
      <g id="Group_176299" data-name="Group 176299" transform="translate(12.135 18.536)">
        <path id="Path_38624" data-name="Path 38624" d="M6249.253,1310.857l-2.405,7.285h-3.092l7.869-23.16h3.608l7.9,23.16h-3.2l-2.474-7.285Zm7.594-2.337-2.268-6.666c-.516-1.512-.859-2.886-1.2-4.227h-.069c-.344,1.375-.722,2.783-1.168,4.192l-2.268,6.7Z" transform="translate(-6243.756 -1294.81)" fill="#fff"/>
        <path id="Path_38625" data-name="Path 38625" d="M6471.853,1293.742a42.812,42.812,0,0,1,6.357-.481c4.295,0,7.353,1,9.38,2.886,2.062,1.89,3.265,4.57,3.265,8.316a12.248,12.248,0,0,1-3.333,9c-2.165,2.165-5.738,3.333-10.24,3.333a48.29,48.29,0,0,1-5.429-.275Zm2.989,20.479a18.873,18.873,0,0,0,3.023.172c6.392,0,9.862-3.574,9.862-9.828.035-5.463-3.058-8.934-9.38-8.934a16.978,16.978,0,0,0-3.5.309Z" transform="translate(-6449.07 -1293.261)" fill="#fff"/>
      </g>
    </g>
  </g>
</svg>
