<svg xmlns="http://www.w3.org/2000/svg" width="21.867" height="22.5" viewBox="1292.568 463.25 21.867 22.5"><g data-name="call-2021585"><path d="M1303.466 472.31c0 .263.21.47.468.47.535 0 .966.436.966.965 0 .258.211.47.469.47a.47.47 0 0 0 .469-.47c0-1.05-.854-1.903-1.904-1.903a.47.47 0 0 0-.468.469Zm7.63 1.904c.263 0 .47-.21.47-.469 0-4.21-3.422-7.63-7.632-7.63a.47.47 0 0 0-.468.468c0 .258.21.469.468.469a6.7 6.7 0 0 1 6.694 6.693c0 .258.211.47.469.47Z" fill="#1d9098" fill-rule="evenodd" data-name="Path 41013"/><path d="M1307.764 473.745c0 .258.211.47.469.47a.47.47 0 0 0 .469-.47 4.771 4.771 0 0 0-4.768-4.767.47.47 0 0 0-.468.469c0 .262.21.469.468.469 2.115 0 3.83 1.72 3.83 3.83Zm-3.83-10.495a.47.47 0 0 0-.468.469c0 .258.21.469.468.469 5.274 0 9.563 4.289 9.563 9.557 0 .258.206.47.469.47a.47.47 0 0 0 .468-.47c0-5.789-4.71-10.495-10.5-10.495Zm4.58 15.436-.614.333a2.702 2.702 0 0 1-3.187-.464l-4.95-4.95a2.708 2.708 0 0 1-.464-3.193l.332-.609a3.61 3.61 0 0 0 .399-2.25 3.566 3.566 0 0 0-1.022-2.048 3.598 3.598 0 0 0-2.564-1.06c-.97 0-1.885.375-2.569 1.06l-.239.243c-1.266 1.266-1.41 3.446-.412 6.146.942 2.578 2.84 5.372 5.334 7.865 3.801 3.802 8.034 5.991 11.072 5.991 1.2 0 2.217-.342 2.939-1.064l.244-.244a3.628 3.628 0 0 0 1.064-2.569 3.682 3.682 0 0 0-1.064-2.564 3.653 3.653 0 0 0-4.299-.623Z" fill="#1d9098" fill-rule="evenodd" data-name="Path 41014"/></g></svg>