<svg xmlns="http://www.w3.org/2000/svg" width="22.583" height="22.583" viewBox="632.212 653.385 22.583 22.583"><g data-name="Group 178477"><path d="m647.442 657.324 3.414 3.414a5.57 5.57 0 0 1 0 7.877l-3.414 3.414a5.57 5.57 0 0 1-7.877 0l-3.414-3.414a5.57 5.57 0 0 1 0-7.877l3.414-3.415a5.57 5.57 0 0 1 7.877 0z" fill="#f4f4f4" fill-rule="evenodd" data-name="Rectangle 163097"/><g data-name="Group 178474"><path d="M137.416 417.382a3.544 3.544 0 0 1-2.524-1.045l-3.414-3.414a3.575 3.575 0 0 1 0-5.05l3.414-3.414a3.543 3.543 0 0 1 2.524-1.045c.954 0 1.851.371 2.524 1.045l3.414 3.414a3.575 3.575 0 0 1 0 5.05l-3.414 3.414a3.544 3.544 0 0 1-2.524 1.045Z" fill-rule="evenodd" fill="url(&quot;#a&quot;)" transform="translate(506.087 254.278)" data-name="Path 39662"/></g><g data-name="Group 178475"><path d="M137.416 415.382a1.54 1.54 0 0 1-1.11-.459l-3.414-3.414a1.573 1.573 0 0 1 .001-2.222l3.413-3.414c.3-.3.684-.459 1.11-.459.426 0 .81.159 1.11.459l3.414 3.414c.612.612.612 1.61 0 2.222l-3.414 3.414c-.3.3-.684.459-1.11.459Z" fill-rule="evenodd" fill="url(&quot;#b&quot;)" transform="translate(506.087 254.278)" data-name="Path 39663"/></g></g><defs><linearGradient x1="0" y1=".5" x2="1" y2=".5" id="a"><stop stop-color="#a2a2a2" offset=".004"/><stop stop-color="#a5a5a5" offset=".403"/><stop stop-color="#b1b1b1" offset=".786"/><stop stop-color="#bbb" offset=".994"/></linearGradient><linearGradient x1="0" y1=".5" x2="1" y2=".5" id="b"><stop stop-color="#b762c9" offset="0"/><stop stop-color="#1d9098" offset=".003"/><stop stop-color="#0fb5c1" offset=".376"/><stop stop-color="#007981" offset=".816"/><stop stop-color="#00757d" offset=".997"/><stop stop-color="#7710c9" offset="1"/></linearGradient></defs></svg>