<svg xmlns="http://www.w3.org/2000/svg" width="25.797" height="23.676" viewBox="1277.137 628.51 25.797 23.676"><g data-name="Group 178580"><g data-name="9"><g data-name="Group 178577"><path d="M1281.28 631.102h16.473a4.144 4.144 0 0 1 4.143 4.144v12.796a4.144 4.144 0 0 1-4.143 4.144h-16.473a4.143 4.143 0 0 1-4.143-4.144v-12.796a4.144 4.144 0 0 1 4.143-4.144z" fill="#ea5f21" fill-rule="evenodd" data-name="Rectangle 163156"/><g data-name="Group 178566"><path d="M1277.91 632.245h11.175v19.209h-11.175v-19.209z" fill="#808285" fill-rule="evenodd" data-name="Rectangle 163157"/><path d="M1289.948 632.245h11.175v19.209h-11.175v-19.209z" fill="#808285" fill-rule="evenodd" data-name="Rectangle 163158"/></g><g data-name="Group 178567"><path d="M1278.065 632.019h11.026v19.208h-11.026V632.02z" fill="#fff" fill-rule="evenodd" data-name="Rectangle 163159"/><path d="M1289.942 632.019h11.026v19.208h-11.026V632.02z" fill="#fff" fill-rule="evenodd" data-name="Rectangle 163160"/></g><g data-name="Group 178568"><path d="M1288.704 633.41c0 .438-.243.793-.541.793-.3 0-.542-.355-.542-.793 0-.437.242-.792.542-.792.298 0 .541.355.541.792Z" fill="#a7a9ac" fill-rule="evenodd" data-name="Path 39827"/><path d="M1288.704 636.69c0 .437-.243.793-.541.793-.3 0-.542-.356-.542-.793 0-.438.242-.792.542-.792.298 0 .541.354.541.792Z" fill="#a7a9ac" fill-rule="evenodd" data-name="Path 39828"/><path d="M1288.704 639.97c0 .438-.243.792-.541.792-.3 0-.542-.354-.542-.792 0-.437.242-.792.542-.792.298 0 .541.355.541.792Z" fill="#a7a9ac" fill-rule="evenodd" data-name="Path 39829"/><path d="M1288.704 643.25c0 .437-.243.792-.541.792-.3 0-.542-.355-.542-.792 0-.438.242-.793.542-.793.298 0 .541.355.541.793Z" fill="#a7a9ac" fill-rule="evenodd" data-name="Path 39830"/><path d="M1288.704 646.53c0 .437-.243.792-.541.792-.3 0-.542-.355-.542-.792 0-.438.242-.793.542-.793.298 0 .541.355.541.793Z" fill="#a7a9ac" fill-rule="evenodd" data-name="Path 39831"/><path d="M1288.704 649.81c0 .437-.243.792-.541.792-.3 0-.542-.355-.542-.792 0-.439.242-.793.542-.793.298 0 .541.354.541.793Z" fill="#a7a9ac" fill-rule="evenodd" data-name="Path 39832"/></g><g data-name="Group 178569"><path d="M1291.644 633.484c0 .438-.243.792-.542.792-.298 0-.541-.354-.541-.792 0-.437.243-.793.541-.793.3 0 .542.356.542.793Z" fill="#a7a9ac" fill-rule="evenodd" data-name="Path 39833"/><path d="M1291.644 636.764c0 .438-.243.792-.542.792-.298 0-.541-.354-.541-.792 0-.438.243-.792.541-.792.3 0 .542.354.542.792Z" fill="#a7a9ac" fill-rule="evenodd" data-name="Path 39834"/><path d="M1291.644 640.043c0 .439-.243.793-.542.793-.298 0-.541-.354-.541-.793 0-.437.243-.791.541-.791.3 0 .542.354.542.791Z" fill="#a7a9ac" fill-rule="evenodd" data-name="Path 39835"/><path d="M1291.644 643.324c0 .437-.243.792-.542.792-.298 0-.541-.355-.541-.792 0-.438.243-.793.541-.793.3 0 .542.355.542.793Z" fill="#a7a9ac" fill-rule="evenodd" data-name="Path 39836"/><path d="M1291.644 646.603c0 .438-.243.793-.542.793-.298 0-.541-.355-.541-.793 0-.437.243-.792.541-.792.3 0 .542.355.542.792Z" fill="#a7a9ac" fill-rule="evenodd" data-name="Path 39837"/><path d="M1291.644 649.883c0 .438-.243.792-.542.792-.298 0-.541-.354-.541-.792 0-.438.243-.792.541-.792.3 0 .542.354.542.792Z" fill="#a7a9ac" fill-rule="evenodd" data-name="Path 39838"/></g><g data-name="Group 178570"><path d="M1290.737 634.05h-2.074a.434.434 0 0 1-.433-.433c0-.238.195-.433.433-.433h2.074a.434.434 0 0 1 0 .866Z" fill="#808285" fill-rule="evenodd" data-name="Path 39839"/><path d="M1290.737 637.278h-2.074a.435.435 0 0 1-.433-.432c0-.239.195-.433.433-.433h2.074c.239 0 .433.194.433.433a.434.434 0 0 1-.433.432Z" fill="#808285" fill-rule="evenodd" data-name="Path 39840"/><path d="M1290.737 640.507h-2.074a.435.435 0 0 1-.433-.433c0-.238.195-.433.433-.433h2.074c.239 0 .433.195.433.433a.434.434 0 0 1-.433.433Z" fill="#808285" fill-rule="evenodd" data-name="Path 39841"/><path d="M1290.737 643.736h-2.074a.434.434 0 0 1-.433-.434c0-.238.195-.432.433-.432h2.074c.239 0 .433.194.433.432a.434.434 0 0 1-.433.434Z" fill="#808285" fill-rule="evenodd" data-name="Path 39842"/><path d="M1290.737 646.964h-2.074a.435.435 0 0 1-.433-.433c0-.238.195-.433.433-.433h2.074c.239 0 .433.195.433.433a.434.434 0 0 1-.433.433Z" fill="#808285" fill-rule="evenodd" data-name="Path 39843"/><path d="M1290.737 650.193h-2.074a.435.435 0 0 1-.433-.433c0-.239.195-.434.433-.434h2.074a.434.434 0 0 1 0 .866Z" fill="#808285" fill-rule="evenodd" data-name="Path 39844"/></g><g data-name="Group 178573"><g data-name="Group 178571"><path d="M1278.8 633.599h2.254v1.261h-2.254V633.6z" fill="#ed1c24" fill-rule="evenodd" data-name="Rectangle 163161"/><path d="M1284.98 633.599h2.254v1.261h-2.254V633.6z" fill="#bcbec0" fill-rule="evenodd" data-name="Rectangle 163162"/></g><g data-name="Group 178572"><path d="M1278.8 635.907h8.434v.126h-8.434v-.126z" fill="#bcbec0" fill-rule="evenodd" data-name="Rectangle 163163"/><path d="M1278.8 637.771h8.434v.127h-8.434v-.127z" fill="#bcbec0" fill-rule="evenodd" data-name="Rectangle 163164"/><path d="M1278.8 639.637h8.434v.127h-8.434v-.127z" fill="#bcbec0" fill-rule="evenodd" data-name="Rectangle 163165"/><path d="M1278.8 641.502h8.434v.127h-8.434v-.127z" fill="#bcbec0" fill-rule="evenodd" data-name="Rectangle 163166"/><path d="M1278.8 643.367h8.434v.127h-8.434v-.127z" fill="#bcbec0" fill-rule="evenodd" data-name="Rectangle 163167"/><path d="M1278.8 645.232h8.434v.127h-8.434v-.127z" fill="#bcbec0" fill-rule="evenodd" data-name="Rectangle 163168"/><path d="M1278.8 647.097h8.434v.127h-8.434v-.127z" fill="#bcbec0" fill-rule="evenodd" data-name="Rectangle 163169"/><path d="M1278.8 648.962h8.434v.127h-8.434v-.127z" fill="#bcbec0" fill-rule="evenodd" data-name="Rectangle 163170"/></g></g><g data-name="Group 178576"><g data-name="Group 178574"><path d="M1298.366 633.599h2.254v1.261h-2.254V633.6z" fill="#ed1c24" fill-rule="evenodd" data-name="Rectangle 163171"/><path d="M1292.186 633.599h2.253v1.261h-2.253V633.6z" fill="#bcbec0" fill-rule="evenodd" data-name="Rectangle 163172"/></g><g data-name="Group 178575"><path d="M1292.186 635.907h8.434v.126h-8.434v-.126z" fill="#bcbec0" fill-rule="evenodd" data-name="Rectangle 163173"/><path d="M1292.186 637.771h8.434v.127h-8.434v-.127z" fill="#bcbec0" fill-rule="evenodd" data-name="Rectangle 163174"/><path d="M1292.186 639.637h8.434v.127h-8.434v-.127z" fill="#bcbec0" fill-rule="evenodd" data-name="Rectangle 163175"/><path d="M1292.186 641.502h8.434v.127h-8.434v-.127z" fill="#bcbec0" fill-rule="evenodd" data-name="Rectangle 163176"/><path d="M1292.186 643.367h8.434v.127h-8.434v-.127z" fill="#bcbec0" fill-rule="evenodd" data-name="Rectangle 163177"/><path d="M1292.186 645.232h8.434v.127h-8.434v-.127z" fill="#bcbec0" fill-rule="evenodd" data-name="Rectangle 163178"/><path d="M1292.186 647.097h8.434v.127h-8.434v-.127z" fill="#bcbec0" fill-rule="evenodd" data-name="Rectangle 163179"/><path d="M1292.186 648.962h8.434v.127h-8.434v-.127z" fill="#bcbec0" fill-rule="evenodd" data-name="Rectangle 163180"/></g></g><path d="M1282.725 631.982h1.999v-2.804l-1 .912-1.015-.923.016 2.815Z" fill="#00a79d" fill-rule="evenodd" data-name="Path 39845"/><path d="M1279.942 631.982h2v-3.404l-1 1.107-1.015-1.12.015 3.417Z" fill="#f9ed32" fill-rule="evenodd" data-name="Path 39846"/></g></g><g data-name="Group 178579"><path d="M1290.01 635.95s-3.754-.833-7.15 2.544c.702-.062 1.732-.14 2.99-.189 1.851-.073 2.136 0 2.394.12 1.527.7 1.795 3.236 2.295 2.698.15-.161 1.445-2.18 1.445-2.18l-1.974-2.992Z" fill="#d8a27d" fill-rule="evenodd" data-name="Path 39847"/><path d="m1294.121 636.694-2.633-1.709a.754.754 0 0 0-.49-.223l-4.434-.286a.76.76 0 0 0-.488.14s-3.4 2.832-3.8 3.479c-.208.335-.121.901.279 1.066.425.176.948-.288 1.3-.46.376-.185.709-.434 1.055-.677l1.615-1.128a.758.758 0 0 1 .722-.08l1.678.695a.756.756 0 0 1 .466.668l.027.652a.76.76 0 0 1-.51.745l-.558.192a.747.747 0 0 1-.433.016l-.57-.145a42.535 42.535 0 0 0-1.976-.439c-.485-.099-.947-.299-1.45-.305-.29-.004-.465.037-.655.278a1.383 1.383 0 0 0-.282.731.995.995 0 0 0 .074.46c.053.124.14.09.25.165.113.077.832.335 1.02.4 2.425.838 5.176 2.353 5.176 2.353.091.045.19.071.291.078l2.891.468c.337.02 2.613.614 2.725.294l.833-5.408c.095-.271-1.92-1.815-2.123-2.02Z" fill="#eab38b" fill-rule="evenodd" data-name="Path 39848"/><path d="M1291.488 634.985a.754.754 0 0 0-.49-.223l-4.434-.286a.76.76 0 0 0-.488.14s-3.4 2.832-3.8 3.479c-.208.335-.121.901.279 1.066.425.176.948-.288 1.3-.46.376-.185.709-.434 1.055-.677l1.615-1.128a.758.758 0 0 1 .722-.08l1.678.695a.756.756 0 0 1 .466.668l.027.652a.76.76 0 0 1-.261.602l5.017 3.294 2.07-4.013c.095-.271-1.92-1.815-2.123-2.02l-2.633-1.709Z" fill="#eab38b" fill-rule="evenodd" data-name="Path 39849"/><g data-name="Group 178578"><path d="m1281.42 643.119 1.05-1.163-.886-.583-.65 1.425.487.321Z" fill="#20b7ea" fill-rule="evenodd" data-name="Path 39850"/><path d="m1288.613 629.862.888-1.352 1.187 1.747-.642.976-1.433-1.371Z" fill="#eb4747" fill-rule="evenodd" data-name="Path 39851"/><path d="m1287.51 635.18-1.71-1.122c-.107.172-.212.344-.315.514l1.678 1.102.347-.493Z" fill="#414042" fill-rule="evenodd" data-name="Path 39852"/><path d="M1285.104 635.204c-1.077 1.8-2.077 3.592-3.596 6.192l.971.638c1.784-2.426 3.031-4.056 4.255-5.76l-1.63-1.07Z" fill="#414042" fill-rule="evenodd" data-name="Path 39853"/><path d="M1288.611 630.197c-.01-.01-.251-.246-.697-.092-.494.17-1.034.747-1.605 1.711-1.177 1.912-2.771 4.22-2.788 4.244 0 0 1.006.118 1.297-1.07.437-.663 2.397-3.422 2.417-3.45.001-.002.145-.197.315-.256.086-.03.217-.043.35.185.11.187.217.198.288.174.285-.1.413-1.082.446-1.381l.005-.037-.028-.028Z" fill="#eb4747" fill-rule="evenodd" data-name="Path 39854"/><path d="m1287.163 635.674-1.678-1.102a92.38 92.38 0 0 0-.381.632l1.63 1.07c.143-.198.286-.397.429-.6Z" fill="#eb4747" fill-rule="evenodd" data-name="Path 39855"/><path d="m1290.36 630.851-1.718-1.128a103.41 103.41 0 0 0-2.842 4.335l1.71 1.123a102.67 102.67 0 0 0 2.85-4.33Z" fill="#414042" fill-rule="evenodd" data-name="Path 39856"/><path d="M1280.934 642.798a1.992 1.992 0 0 0-.222.869 2.523 2.523 0 0 0 .709-.548l-.487-.32Z" fill="#414042" fill-rule="evenodd" data-name="Path 39857"/></g><path d="m1288.908 639.576-.558.192a.747.747 0 0 1-.433.016l-.57-.145a42.536 42.536 0 0 0-1.976-.439c-.485-.099-.947-.299-1.45-.305-.29-.004-.465.037-.655.278a1.383 1.383 0 0 0-.282.731.996.996 0 0 0 .074.46c.053.124.14.09.25.165.113.077.832.335 1.02.4 2.425.838 5.176 2.353 5.176 2.353.091.045.19.071.291.078l2.783.171c.338.022 1.107.246 1.22-.074l.376-.73-5.017-3.294a.754.754 0 0 1-.249.143Z" fill="#eab38b" fill-rule="evenodd" data-name="Path 39858"/><path d="M1284.464 639.547a1.556 1.556 0 0 1-.322 1.093l-1.084-.275a.995.995 0 0 1-.074-.46c.022-.273.14-.538.328-.736l.013-.013 1.14.39Z" fill="#f2c4a5" fill-rule="evenodd" data-name="Path 39859"/><path d="m1293.937 645.436 2.964 1 2.725-7.818-3.21-.77-2.48 7.588Z" fill="#e6e7e8" fill-rule="evenodd" data-name="Path 39860"/><path d="m1302.934 639.102-5.235-1.242-2.07 8.576 6.789 2.367.516-9.7Z" fill="#383f4b" fill-rule="evenodd" data-name="Path 39861"/></g></g></svg>