<svg xmlns="http://www.w3.org/2000/svg" width="237.012" height="241.252" viewBox="564 1048 237.012 241.252"><g data-name="Group 178517"><g data-name="Group 178516"><g data-name="Group 178493"><path d="m685.373 1242.886 30.274 12.158 37.475-93.312-25.59-10.277a5.048 5.048 0 0 0-6.565 2.802l-35.594 88.629Z" fill="#f4a640" fill-rule="evenodd" data-name="Path 39664"/><g data-name="Group 178491"><path d="m739.777 1249.69-57.966-10.276 14.448-81.5 57.966 10.275-14.448 81.5z" fill="#adcfd8" fill-rule="evenodd" data-name="Rectangle 163105"/><path d="m736.683 1174.022-25.885-4.59.103-.58 25.885 4.589-.103.58z" fill="#55769f" fill-rule="evenodd" data-name="Rectangle 163106"/><path d="m742.382 1173.512-36.761-6.517.103-.581 36.761 6.517-.103.581z" fill="#55769f" fill-rule="evenodd" data-name="Rectangle 163107"/><path d="m744.958 1181.783-44.6-7.907.104-.581 44.6 7.906-.104.582z" fill="#55769f" fill-rule="evenodd" data-name="Rectangle 163108"/><path d="m744.463 1184.578-44.6-7.907.103-.581 44.6 7.906-.103.582z" fill="#55769f" fill-rule="evenodd" data-name="Rectangle 163109"/><path d="m743.472 1190.168-44.6-7.907.103-.581 44.6 7.907-.103.58z" fill="#55769f" fill-rule="evenodd" data-name="Rectangle 163110"/><path d="m742.976 1192.963-44.6-7.907.104-.58 44.6 7.906-.104.58z" fill="#55769f" fill-rule="evenodd" data-name="Rectangle 163111"/><path d="m742.48 1195.758-44.599-7.907.103-.58 44.6 7.906-.103.58z" fill="#55769f" fill-rule="evenodd" data-name="Rectangle 163112"/><path d="m740.302 1208.051-44.6-7.906.103-.581 44.6 7.906-.103.581z" fill="#55769f" fill-rule="evenodd" data-name="Rectangle 163113"/><path d="m739.788 1210.95-44.6-7.907.103-.58 44.6 7.906-.103.58z" fill="#55769f" fill-rule="evenodd" data-name="Rectangle 163114"/><path d="m739.274 1213.848-44.6-7.906.103-.581 44.6 7.906-.103.581z" fill="#55769f" fill-rule="evenodd" data-name="Rectangle 163115"/><path d="m738.76 1216.746-44.6-7.906.103-.581 44.6 7.906-.103.581z" fill="#55769f" fill-rule="evenodd" data-name="Rectangle 163116"/><path d="m738.246 1219.645-44.6-7.907.104-.58 44.6 7.906-.104.58z" fill="#55769f" fill-rule="evenodd" data-name="Rectangle 163117"/><path d="m737.732 1222.543-44.6-7.906.104-.582 44.6 7.907-.104.581z" fill="#55769f" fill-rule="evenodd" data-name="Rectangle 163118"/><path d="m737.219 1225.442-44.6-7.907.103-.581 44.6 7.906-.103.582z" fill="#55769f" fill-rule="evenodd" data-name="Rectangle 163119"/></g><g data-name="Group 178492"><path d="m740.479 1250.906-56.932-14.982 21.066-80.046 56.932 14.983-21.066 80.045z" fill="#daeef7" fill-rule="evenodd" data-name="Rectangle 163120"/><path d="m743.584 1175.239-25.423-6.69.15-.572 25.423 6.691-.15.57z" fill="#55769f" fill-rule="evenodd" data-name="Rectangle 163121"/><path d="m749.306 1175.197-36.105-9.502.15-.57 36.105 9.501-.15.571z" fill="#55769f" fill-rule="evenodd" data-name="Rectangle 163122"/><path d="m751.197 1183.65-43.804-11.527.15-.571 43.804 11.528-.15.57z" fill="#55769f" fill-rule="evenodd" data-name="Rectangle 163123"/><path d="m750.474 1186.396-43.803-11.528.15-.57 43.804 11.527-.15.57z" fill="#55769f" fill-rule="evenodd" data-name="Rectangle 163124"/><path d="m749.03 1191.886-43.804-11.528.15-.57 43.804 11.527-.15.571z" fill="#55769f" fill-rule="evenodd" data-name="Rectangle 163125"/><path d="m748.307 1194.631-43.804-11.528.15-.57 43.804 11.528-.15.57z" fill="#55769f" fill-rule="evenodd" data-name="Rectangle 163126"/><path d="m747.585 1197.376-43.804-11.527.15-.571 43.804 11.528-.15.57z" fill="#55769f" fill-rule="evenodd" data-name="Rectangle 163127"/><path d="m744.407 1209.45-43.804-11.527.15-.571 43.804 11.528-.15.57z" fill="#55769f" fill-rule="evenodd" data-name="Rectangle 163128"/><path d="m743.658 1212.297-43.804-11.528.15-.57 43.804 11.527-.15.571z" fill="#55769f" fill-rule="evenodd" data-name="Rectangle 163129"/><path d="m742.909 1215.144-43.804-11.528.15-.57 43.804 11.527-.15.57z" fill="#55769f" fill-rule="evenodd" data-name="Rectangle 163130"/><path d="m742.16 1217.99-43.804-11.527.15-.571 43.804 11.528-.15.57z" fill="#55769f" fill-rule="evenodd" data-name="Rectangle 163131"/><path d="m741.41 1220.837-43.803-11.528.15-.57 43.803 11.527-.15.571z" fill="#55769f" fill-rule="evenodd" data-name="Rectangle 163132"/><path d="m740.661 1223.684-43.803-11.528.15-.571 43.803 11.528-.15.57z" fill="#55769f" fill-rule="evenodd" data-name="Rectangle 163133"/><path d="m739.912 1226.53-43.804-11.528.15-.57 43.804 11.527-.15.571z" fill="#55769f" fill-rule="evenodd" data-name="Rectangle 163134"/></g><path d="m696.86 1247.499 60.948 24.477 35.548-88.513-51.215-31.594c-2.879-1.776-6.662-.53-7.923 2.608L696.86 1247.5Z" fill="#feb546" fill-rule="evenodd" data-name="Path 39665"/></g><g data-name="Group 178494"><path d="m770.216 1238.21 11.043-3.235c1.944-8.036 3.112-14.88 3.112-14.88-13.324.537-23.578 4.615-31.465 10.411l-1.632 13.125-3.522-8.8c-18.62 17.757-20.798 45.168-20.798 45.168s37.476-14.663 44.619-20.705c2.758-2.334 5.294-8.709 7.368-15.657-3.728-2.008-8.725-5.427-8.725-5.427Z" fill="#ff5b7e" fill-rule="evenodd" data-name="Path 39666"/><path d="M784.37 1220.095s-43.857 34.402-57.416 59.904c0 0 37.476-14.663 44.619-20.705 2.758-2.334 5.294-8.709 7.368-15.657-3.728-2.008-8.725-5.427-8.725-5.427l11.043-3.235c1.944-8.036 3.112-14.88 3.112-14.88Z" fill="#e03268" fill-rule="evenodd" data-name="Path 39667"/><path d="M791.9 1253.86c-7.783-2.24-15.11-2.574-21.861-1.66-1.26 2.895-2.842 6.328-2.842 6.328l-1.769-5.498c-25.307 5.695-41.442 28.105-41.442 28.105 16.972 5.168 30.01 4.308 39.903.727.067-2.111.122-5.248.122-5.248l3.01 3.983a45.243 45.243 0 0 0 11.698-7.625c-1.581-2.061-3.303-4.44-3.303-4.44l6.225 1.587c7.519-7.987 10.26-16.26 10.26-16.26Z" fill="#ff5b7e" fill-rule="evenodd" data-name="Path 39668"/><path d="M763.89 1281.862c.066-2.111.12-5.248.12-5.248l3.01 3.983a45.24 45.24 0 0 0 11.699-7.625c-1.581-2.061-3.303-4.44-3.303-4.44l6.225 1.588c7.519-7.988 10.26-16.26 10.26-16.26-30.044 4.596-67.915 27.275-67.915 27.275 16.972 5.168 30.01 4.308 39.903.727Z" fill="#e03268" fill-rule="evenodd" data-name="Path 39669"/></g><g data-name="Group 178495"><path d="M600.425 1186.73h-4.168a4.358 4.358 0 0 1 2.463-.745h104.413c5.462 0 9.89 3.926 9.89 8.768v5.57c0 4.842-4.428 8.768-9.89 8.768l-103.245-.031.537-22.33Z" fill="#e03268" fill-rule="evenodd" data-name="Path 39670"/><path d="M704.265 1200.322v-5.569c0-4.842-4.428-8.768-9.89-8.768h2.241c5.463 0 9.891 3.926 9.891 8.768v5.57c0 4.842-4.428 8.768-9.89 8.768l-2.213-.001c5.449-.015 9.861-3.934 9.861-8.768Z" fill="#feb546" fill-rule="evenodd" data-name="Path 39671"/><path d="M679.812 1200.322v-5.569c0-4.842-4.429-8.768-9.892-8.768h2.243c5.463 0 9.891 3.926 9.891 8.768v5.57c0 4.842-4.428 8.768-9.891 8.768l-2.213-.001c5.45-.015 9.862-3.934 9.862-8.768Z" fill="#feb546" fill-rule="evenodd" data-name="Path 39672"/><path d="M659.702 1186.006c5.225 0 9.46 3.754 9.46 8.385v6.294c0 4.63-4.235 8.385-9.46 8.385h-64.999v-1.408h.268l16.525-1.387 3.34-11.615s-6.447-6.418-6.867-6.584c-.42-.165-12.998-.668-12.998-.668l-.268-.002v-1.4h65Z" fill="#ff5b7e" fill-rule="evenodd" data-name="Path 39673"/><path d="M598.919 1197.496c0-6.79-3.96-10.082-3.96-10.082h63.412c4.798 0 8.688 3.448 8.688 7.702v4.844c0 4.254-3.89 7.702-8.688 7.702H594.96s3.959-1.615 3.959-10.166Z" fill="#daeef7" fill-rule="evenodd" data-name="Path 39674"/><path d="M667.06 1195.116v4.844a6.89 6.89 0 0 1-.254 1.847c-2.139-4.638-6.237-9.106-14.04-10.542-18.218-3.354-57.806-3.851-57.806-3.851h63.411c4.798 0 8.688 3.448 8.688 7.702Z" fill="#daeef7" fill-rule="evenodd" data-name="Path 39675"/></g><g data-name="Group 178496"><path d="M602.144 1232.913h-4.717a4.606 4.606 0 0 1 2.788-.933h118.174c6.183 0 11.195 4.913 11.195 10.975v6.97c0 6.062-5.012 10.976-11.195 10.976l-116.853-.04.608-27.948Z" fill="#07085b" fill-rule="evenodd" data-name="Path 39676"/><path d="M669.235 1232.006c5.912 0 10.706 4.699 10.706 10.495v7.878c0 5.797-4.794 10.496-10.706 10.496h-73.567v-1.762h.304l18.702-1.737 3.78-14.538s-7.296-8.034-7.771-8.24c-.476-.208-14.711-.836-14.711-.836l-.304-.004v-1.752h73.567Z" fill="#55769f" fill-rule="evenodd" data-name="Path 39677"/><path d="M600.44 1246.388c0-8.5-4.481-12.62-4.481-12.62h71.769c5.43 0 9.833 4.316 9.833 9.64v6.064c0 5.324-4.402 9.64-9.833 9.64h-71.77s4.481-2.02 4.481-12.724Z" fill="#daeef7" fill-rule="evenodd" data-name="Path 39678"/><path d="M677.561 1243.408v6.064c0 .797-.1 1.572-.286 2.312-2.42-5.806-7.06-11.398-15.891-13.196-20.62-4.198-65.425-4.82-65.425-4.82h71.769c5.43 0 9.833 4.316 9.833 9.64Z" fill="#daeef7" fill-rule="evenodd" data-name="Path 39679"/></g><g data-name="Group 178497"><path d="M733.48 1209.772h4.718c-.772-.463-1.738-.74-2.788-.74H617.189c-6.186 0-11.2 3.899-11.2 8.708v5.531c0 4.81 5.014 8.709 11.2 8.709l116.898-.03-.608-22.178Z" fill="#02ccc0" fill-rule="evenodd" data-name="Path 39680"/><path d="M666.363 1209.052c-5.915 0-10.71 3.729-10.71 8.328v6.251c0 4.6 4.795 8.328 10.71 8.328h73.595v-1.398h-.304l-18.71-1.378-3.781-11.536s7.299-6.374 7.774-6.538c.477-.165 14.717-.664 14.717-.664l.304-.002v-1.39h-73.595Z" fill="#06bfad" fill-rule="evenodd" data-name="Path 39681"/><path d="M735.185 1220.464c0-6.744 4.482-10.014 4.482-10.014H667.87c-5.433 0-9.838 3.425-9.838 7.65v4.811c0 4.225 4.405 7.65 9.838 7.65h71.797s-4.482-1.604-4.482-10.097Z" fill="#daeef7" fill-rule="evenodd" data-name="Path 39682"/><path d="M658.032 1218.1v4.811c0 .633.101 1.247.287 1.835 2.422-4.607 7.063-9.044 15.898-10.471 20.626-3.33 65.45-3.825 65.45-3.825H667.87c-5.433 0-9.838 3.425-9.838 7.65Z" fill="#daeef7" fill-rule="evenodd" data-name="Path 39683"/><path d="M627.647 1223.271v-5.531c0-4.81 5.014-8.708 11.2-8.708H627.62c-6.185 0-11.2 3.899-11.2 8.708v5.531c0 4.81 5.015 8.709 11.2 8.709l11.077-.003c-6.116-.062-11.05-3.935-11.05-8.706Z" fill="#55769f" fill-rule="evenodd" data-name="Path 39684"/></g><path d="M741.266 1261.787h5.917c-.968-.518-2.18-.827-3.496-.827h-148.21c-7.755 0-14.041 4.356-14.041 9.73v6.18c0 5.373 6.286 9.73 14.04 9.73l146.553-.035-.763-24.778Z" fill="#feb546" fill-rule="evenodd" data-name="Path 39685"/><path d="M657.124 1260.983c-7.415 0-13.427 4.166-13.427 9.304v6.985c0 5.139 6.012 9.305 13.427 9.305h92.265v-1.563h-.382l-23.455-1.54-4.74-12.888s9.15-7.122 9.746-7.306c.597-.183 18.45-.74 18.45-.74l.38-.004v-1.553h-92.264Z" fill="#f4a640" fill-rule="evenodd" data-name="Path 39686"/><path d="M743.405 1273.733c0-7.535 5.619-11.188 5.619-11.188h-90.01c-6.811 0-12.333 3.826-12.333 8.546v5.376c0 4.72 5.522 8.547 12.333 8.547h90.01s-5.62-1.792-5.62-11.28Z" fill="#daeef7" fill-rule="evenodd" data-name="Path 39687"/><path d="M646.68 1271.091v5.376c0 .707.127 1.393.36 2.05 3.036-5.147 8.855-10.105 19.93-11.699 25.86-3.722 82.054-4.273 82.054-4.273h-90.01c-6.811 0-12.333 3.826-12.333 8.546Z" fill="#daeef7" fill-rule="evenodd" data-name="Path 39688"/><path d="M779.825 1289.252h-214.41a1.415 1.415 0 0 1-1.415-1.415 1.415 1.415 0 0 1 1.415-1.414h214.41a1.415 1.415 0 0 1 1.415 1.414 1.415 1.415 0 0 1-1.415 1.415z" fill="#c4dfe8" fill-rule="evenodd" data-name="Rectangle 163135"/><path d="m782.558 1193.235-41.496-23.734-5.608 11.11 42.459 22.462 4.645-9.838Z" fill="#f4a640" fill-rule="evenodd" data-name="Path 39689"/><path d="M748.457 1107.452s.327 3.228 2.874 3.45c-2.547.224-2.874 3.451-2.874 3.451s-.327-3.227-2.874-3.45c2.547-.223 2.874-3.45 2.874-3.45Z" fill="#02ccc0" fill-rule="evenodd" data-name="Path 39690"/><path d="M793.356 1201.53s.491 4.841 4.311 5.176c-3.82.335-4.31 5.176-4.31 5.176s-.492-4.841-4.312-5.176c3.82-.335 4.311-5.176 4.311-5.176Z" fill="#ff5b7e" fill-rule="evenodd" data-name="Path 39691"/><path d="M781.378 1081.062s.436 4.298 3.828 4.596c-3.392.297-3.828 4.596-3.828 4.596s-.436-4.299-3.828-4.596c3.392-.298 3.828-4.596 3.828-4.596Z" fill="#feb546" fill-rule="evenodd" data-name="Path 39692"/><path d="M579.464 1220.59s.293 2.893 2.576 3.093c-2.283.2-2.576 3.094-2.576 3.094s-.294-2.893-2.576-3.094c2.282-.2 2.576-3.092 2.576-3.092Z" fill="#feb546" fill-rule="evenodd" data-name="Path 39693"/><path d="M766.135 1139.285s.292 2.887 2.57 3.087c-2.278.2-2.57 3.086-2.57 3.086s-.293-2.887-2.571-3.086c2.278-.2 2.57-3.087 2.57-3.087Z" fill="#ff5b7e" fill-rule="evenodd" data-name="Path 39694"/><path d="M726.48 1063.522s.293 2.886 2.571 3.086c-2.278.2-2.57 3.086-2.57 3.086s-.293-2.886-2.571-3.086c2.278-.2 2.57-3.086 2.57-3.086Z" fill="#ff5b7e" fill-rule="evenodd" data-name="Path 39695"/><path d="M607.076 1100.264s.383 3.777 3.364 4.038c-2.98.262-3.364 4.039-3.364 4.039s-.383-3.777-3.364-4.039c2.981-.26 3.364-4.038 3.364-4.038Z" fill="#ff5b7e" fill-rule="evenodd" data-name="Path 39696"/><path d="M581.436 1165.691s.56 5.534 4.928 5.917c-4.367.383-4.928 5.917-4.928 5.917s-.562-5.534-4.929-5.917c4.367-.383 4.929-5.917 4.929-5.917Z" fill="#ff5b7e" fill-rule="evenodd" data-name="Path 39697"/><path d="M714.97 1115.413s.436 4.299 3.828 4.596c-3.392.298-3.828 4.596-3.828 4.596s-.436-4.298-3.828-4.596c3.392-.297 3.828-4.596 3.828-4.596Z" fill="#ff5b7e" fill-rule="evenodd" data-name="Path 39698"/><path d="M797.184 1161.818s.436 4.299 3.828 4.596c-3.392.297-3.828 4.596-3.828 4.596s-.436-4.299-3.828-4.596c3.392-.297 3.828-4.596 3.828-4.596Z" fill="#02ccc0" fill-rule="evenodd" data-name="Path 39699"/><path d="M584.163 1073.612s.31 3.062 2.727 3.274c-2.417.211-2.727 3.274-2.727 3.274s-.31-3.063-2.727-3.274c2.416-.212 2.727-3.274 2.727-3.274Z" fill="#02ccc0" fill-rule="evenodd" data-name="Path 39700"/><path d="M616.42 1149.308s.498 4.904 4.368 5.243c-3.87.34-4.367 5.244-4.367 5.244s-.498-4.905-4.368-5.244c3.87-.339 4.368-5.243 4.368-5.243Z" fill="#02ccc0" fill-rule="evenodd" data-name="Path 39701"/><path d="M573.486 1117.376s.34 3.89 2.983 4.16c-2.643.269-2.983 4.16-2.983 4.16s-.34-3.891-2.982-4.16c2.642-.27 2.982-4.16 2.982-4.16Z" fill="#feb546" fill-rule="evenodd" data-name="Path 39702"/><path d="M636.76 1055.178s.34 3.902 2.99 4.172c-2.65.27-2.99 4.172-2.99 4.172s-.34-3.902-2.99-4.172c2.65-.27 2.99-4.172 2.99-4.172Z" fill="#feb546" fill-rule="evenodd" data-name="Path 39703"/><g data-name="Group 178512"><g data-name="Group 178511"><path d="m678.68 1133.486 6.695.538-2.161 5.416-3.38-.271-1.407 4.514a9.744 9.744 0 0 1-.646-.309c-.103-.068-.476-2.308-.804-4.424l1.703-5.464Z" fill="#daeef7" fill-rule="evenodd" data-name="Path 39704"/><path d="M682.5 1183.293v2.36c0 .195.158.353.352.353h5.51c.4 0 .551-.522.215-.737l-3.091-1.976s-1.213.889-2.986 0Z" fill="#e03268" fill-rule="evenodd" data-name="Path 39705"/><path d="M671.683 1083.25a.109.109 0 0 1-.146-.123c.138-.656.559-2.72.4-2.794-.189-.087-.61 1.75-.802 1.772-.191.022.265-1.759.048-1.82-.217-.06-.578 1.578-.679 1.585-.1.006.079-1.6-.027-1.712-.107-.112-.506 1.58-.625 1.622-.12.042-.232-1.217-.341-1.22-.11-.002-.182-.022-.74 2.884 0 0-.033 1.065-.222 1.315l.42.856 1.3.043s2.824-2.556 2.8-2.711c-.022-.148-.146-.183-1.386.303Z" fill="#ffc0bb" fill-rule="evenodd" data-name="Path 39706"/><path d="M685.064 1083.893c.057.065.164.04.186-.042.176-.647.743-2.677.917-2.67.208.01-.254 1.836-.093 1.943.16.107.565-1.686.786-1.64.22.044-.204 1.667-.118 1.718.086.052.66-1.46.805-1.51.145-.052-.27 1.636-.183 1.728.087.092.76-.977.86-.93.098.047.171.062-.656 2.904 0 0-.456.963-.402 1.27l-.764.572-1.177-.555s-1.349-3.561-1.257-3.689c.087-.122.214-.096 1.096.901Z" fill="#ffc0bb" fill-rule="evenodd" data-name="Path 39707"/><path d="m674.733 1107.165.02 4.969-4.827-.744.806-5.587 4 1.362Z" fill="#ffc0bb" fill-rule="evenodd" data-name="Path 39708"/><path d="m670.36 1108.375.372-2.572 4.005 1.833.002.98c-.965.237-2.771.448-4.378-.241Z" fill="#fc8d84" fill-rule="evenodd" data-name="Path 39709"/><path d="M666.012 1183.03v2.589a.387.387 0 0 1-.388.387h-6.061c-.439 0-.605-.573-.236-.809l3.4-2.167s1.335.975 3.285 0Z" fill="#e03268" fill-rule="evenodd" data-name="Path 39710"/><g data-name="Group 178500"><g data-name="Group 178499"><g data-name="Group 178498"><path d="M660.476 1139.049c.012-.554-1.43 1.079-1.402.637.566-9.192 18.526-1.485 18.526-1.485l4.384 3.217 4.95 42.603s-2.688.777-4.455.141l-10.96-36.507-1.348-.518s-5.995-4.183-9.695-8.088Z" fill="#07085b" fill-rule="evenodd" data-name="Path 39711"/></g></g></g><g data-name="Group 178510"><g data-name="Group 178509"><g data-name="Group 178501"><path d="M659.054 1140.06Z" fill="#06bfad" fill-rule="evenodd" data-name="Path 39712"/></g><g data-name="Group 178502"><path d="M659.039 1140.397Z" fill="#06bfad" fill-rule="evenodd" data-name="Path 39713"/></g><g data-name="Group 178503"><path d="M659.025 1140.798Z" fill="#06bfad" fill-rule="evenodd" data-name="Path 39714"/></g><g data-name="Group 178504"><path d="M659.074 1139.686Z" fill="#06bfad" fill-rule="evenodd" data-name="Path 39715"/></g><g data-name="Group 178505"><path d="M659.076 1137.597c3.7 3.906 11.095 9.54 11.095 9.54l1.348.518-1.348-.518-4.168 36.884s-2.97.565-4.666-.354c0 0-2.502-35.11-2.261-46.07Z" fill="#07085b" fill-rule="evenodd" data-name="Path 39716"/></g><g data-name="Group 178506"><path d="M686.933 1184.02s-1.157.336-2.452.386c1.295-.05 2.452-.385 2.452-.385Z" fill="#06bfad" fill-rule="evenodd" data-name="Path 39717"/></g><g data-name="Group 178507"><path d="M682.997 1184.305Z" fill="#06bfad" fill-rule="evenodd" data-name="Path 39718"/></g><g data-name="Group 178508"><path d="M684.481 1184.406Z" fill="#06bfad" fill-rule="evenodd" data-name="Path 39719"/></g></g></g><path d="m681.984 1141.418.706 6.08c-1.87.724-6.425 1.497-9.858-6.012-1.083-2.369-1.361-4.073-1.162-5.297 3.288.88 5.93 2.012 5.93 2.012l4.384 3.217Z" fill="#050645" fill-rule="evenodd" data-name="Path 39720"/><path d="M665.505 1116.6c.207 0 3.318-7.05 3.318-7.05 2.661 1.866 6.273.57 6.273.57s14.533 26.596 4.787 30.744c-9.747 4.147-18.94-.9-18.94-.9s-2.074-5.39-2.074-5.598c0-.208 6.428-17.765 6.636-17.765Z" fill="#daeef7" fill-rule="evenodd" data-name="Path 39721"/><path d="M684.445 1086.739s.63 12.618-.553 14.93c-3.923 7.673-8.796 8.451-8.796 8.451s-1.676 26.838-.294 33.267c0 0 4.597 1.417 11.371-1.763 0 0-5.184-20.807-4.908-23.433 0 0 8.295-7.397 8.572-16.107.276-8.71-2.005-16.451-2.005-16.451l-3.387 1.106Z" fill="#55769f" fill-rule="evenodd" data-name="Path 39722"/><path d="M662.083 1142.419s.518-9.989 2.8-19.459c2.28-9.47 3.94-13.41 3.94-13.41-3.06-3.37-2.55-6.416-2.282-10.369.312-4.562 4.77-13.687 4.77-13.687l-3.007-1.97c-14.412 17.316-6.428 31.107-6.428 31.107s-5.392 19.078-6.118 24.885c0 0 2.869 1.659 6.325 2.903Z" fill="#55769f" fill-rule="evenodd" data-name="Path 39723"/><path d="M681.125 1118.162a3.195 3.195 0 0 1-.58-.551c-.61-.738-.927-1.568-1.146-2.496.132.396.487 1.547 1.234 2.423.334.382.511.511.673.615l-.04.038c-.003.017-.004.035-.005.054-.192.04-.529.052-1.096-.257-.352-.185-.631-.415-.922-.661.19.135.584.42.956.594.259.128.638.26.926.24Z" fill="#fff" fill-rule="evenodd" data-name="Path 39724"/><path d="M661.986 1114.567c.247-.157.46-.381.658-.606.612-.718.947-1.567 1.234-2.424-.218.924-.533 1.756-1.147 2.497-.2.24-.403.425-.58.55.136.01.298-.016.406-.047.179-.045.354-.11.521-.193.346-.162.688-.405.956-.595-.258.22-.554.468-.922.662a2.71 2.71 0 0 1-.53.222c-.188.047-.378.087-.59.03l-.11-.03.104-.066Z" fill="#fff" fill-rule="evenodd" data-name="Path 39725"/><path d="m667.809 1097.026-.292 3.41.539.339.996-4.152-1.243.403Z" fill="#07085b" fill-rule="evenodd" data-name="Path 39726"/><path d="M668.534 1100.084c.148.772-.233 1.495-.851 1.613-.618.119-1.239-.411-1.387-1.184-.148-.772.233-1.494.85-1.613.618-.119 1.24.412 1.388 1.184Z" fill="#f99893" fill-rule="evenodd" data-name="Path 39727"/><path d="M667.65 1103.236c-.159-.987-.136-1.997-.048-2.864.018-.186.026-.373.03-.56a6.087 6.087 0 0 1 .507-2.289c1.063-2.449 3.658-3.934 6.308-3.606a6.085 6.085 0 0 1 5.234 7.234c.414-.133.843-.097 1.179.142.645.458.703 1.482.13 2.288-.572.806-1.558 1.088-2.203.63a1.163 1.163 0 0 1-.233-.223c-.882 2.862-3.727 4.637-6.587 4.015-2.172-.472-3.965-2.273-4.318-4.767Z" fill="#ffc0bb" fill-rule="evenodd" data-name="Path 39728"/><path d="M674.247 1100.51a.532.532 0 1 0 .987.398.532.532 0 0 0-.987-.399Z" fill="#333" fill-rule="evenodd" data-name="Path 39729"/><path d="M669.728 1099.833a.532.532 0 1 0 .986.399.532.532 0 0 0-.986-.4Z" fill="#333" fill-rule="evenodd" data-name="Path 39730"/><path d="M673.544 1104.223c-.28.14-.596.244-.853.293a2.699 2.699 0 0 1-.89.034 2.294 2.294 0 0 1-.835-.291 3.21 3.21 0 0 1-.694-.574c.211.298.403.47.65.643.258.168.53.277.865.327.309.041.624.018.922-.06.297-.078.584-.198.835-.372Z" fill="#f99893" fill-rule="evenodd" data-name="Path 39731"/><path d="M673.818 1099.431c.277-.049.538-.08.794-.085.255-.004.502.024.738.088.234.067.466.154.678.294.29.166.5.368.65.467-.096-.245-.252-.536-.465-.706a1.805 1.805 0 0 0-1.64-.441c-.28.068-.547.189-.755.383Z" fill="#07085b" fill-rule="evenodd" data-name="Path 39732"/><path d="M671.707 1099.084a1.678 1.678 0 0 0-.593-.606 1.811 1.811 0 0 0-.833-.267 1.73 1.73 0 0 0-.86.16c-.257.093-.5.32-.669.52.19-.05.428-.17.766-.234a2.43 2.43 0 0 1 .737-.062c.244.015.487.068.727.154.242.086.479.2.725.335Z" fill="#07085b" fill-rule="evenodd" data-name="Path 39733"/><path d="M672.627 1099.753a7.64 7.64 0 0 0-.692.75c-.216.264-.417.54-.595.836-.102.177-.23.413-.261.615-.018.111-.009.22.178.403.122.129.259.235.4.332.143.095.29.183.445.255-.258-.22-.518-.441-.723-.694a.983.983 0 0 1-.116-.182c-.011-.037.009-.12.036-.19.055-.145.135-.291.22-.433.169-.286.36-.564.546-.845.19-.279.38-.559.562-.847Z" fill="#f99893" fill-rule="evenodd" data-name="Path 39734"/><path d="M668.444 1093.386s-1.791-.345.415-1.427c2.206-1.081 7.615-1.711 10.442.711 0 0 .951-1.22 1.806-.684.854.536-.89 1.129-.89 1.129s1.194.23 1.424.893c.17.49-.56.345-.952.236.649.267 2.557 2.07.079 6.992-.439-.206-3.275-4.25-3.275-4.25s-5.702 1.873-4.662.32c0 0-6.645 1.67-5.034-1.342 0 0-2.45-.368.647-2.578Z" fill="#07085b" fill-rule="evenodd" data-name="Path 39735"/><path d="M680.768 1101.236s-.43-.329-1.087-.085c-.658.244-1.075 1.718-1.075 1.718s-2.152 1.762-1.103-5.917c1.031-7.544 2.459 1.256 2.459 1.256l.806 3.028Z" fill="#07085b" fill-rule="evenodd" data-name="Path 39736"/></g></g><g data-name="Group 178515"><path d="m683.907 1077.624-9.838-.7a.904.904 0 1 1 .128-1.803l9.838.7a.904.904 0 1 1-.128 1.803Z" fill="#feb546" fill-rule="evenodd" data-name="Path 39737"/><path d="m681.074 1048 3.437 8.427 8.892 1.946-6.953 5.874.897 9.057-7.734-4.797-8.337 3.652 2.172-8.839-6.05-6.8 9.078-.665 4.598-7.855Z" fill="#feb546" fill-rule="evenodd" data-name="Path 39738"/><g data-name="Group 178514"><g data-name="Group 178513"><path d="m681.073 1048-.88 12.366 4.318-3.939-3.438-8.427Z" fill="#f4a640" fill-rule="evenodd" data-name="Path 39739"/><path d="m693.403 1058.373-13.21 1.993 6.257 3.88 6.953-5.873Z" fill="#f4a640" fill-rule="evenodd" data-name="Path 39740"/><path d="m680.193 1060.366-3.717-4.511-9.078.665 12.795 3.846Z" fill="#f4a640" fill-rule="evenodd" data-name="Path 39741"/><path d="m671.276 1072.159 8.916-11.793-6.744 2.954-2.172 8.839Z" fill="#f4a640" fill-rule="evenodd" data-name="Path 39742"/><path d="m687.347 1073.304-7.155-12.938-.58 8.14 7.735 4.798Z" fill="#f4a640" fill-rule="evenodd" data-name="Path 39743"/></g></g><path d="m671.501 1076.933 14.946 1.065-.374 5.252-14.946-1.064.374-5.253z" fill="#6f747a" fill-rule="evenodd" data-name="Rectangle 163136"/><path d="m671.127 1082.186.04-.574 14.947 1.065-.041.573-14.946-1.064z" fill="#cdd6e0" fill-rule="evenodd" data-name="Rectangle 163137"/><path d="m671.47 1077.36.042-.574 14.946 1.064-.041.574-14.946-1.065z" fill="#cdd6e0" fill-rule="evenodd" data-name="Rectangle 163138"/><path d="m686.317 1078.247-14.722-1.05a.676.676 0 1 1 .096-1.35l14.722 1.05a.677.677 0 1 1-.096 1.35Z" fill="#f4a640" fill-rule="evenodd" data-name="Path 39744"/><path d="m686.266 1084.484-15.708-1.12a.182.182 0 0 1-.169-.194l.07-.986a.182.182 0 0 1 .195-.169l15.709 1.12c.1.006.176.093.168.194l-.07.986a.182.182 0 0 1-.195.169Z" fill="#6f747a" fill-rule="evenodd" data-name="Path 39745"/><path d="m681.48 1081.529-5.684-.405a1.282 1.282 0 1 1 .182-2.558l5.684.405a1.282 1.282 0 0 1-.182 2.558Z" fill="#feb546" fill-rule="evenodd" data-name="Path 39746"/><path d="M675.826 1080.698a.856.856 0 0 1-.777-1.018c.083-.43.498-.716.935-.685l5.61.4c.438.031.809.372.83.81a.855.855 0 0 1-.914.898l-5.684-.405Z" fill="#d9d9d9" fill-rule="evenodd" data-name="Path 39747"/><path d="m680.659 1076.13-3.162-.225.02-.293c.086-1.192.218-3.669 2.096-7.105 1.427 3.93 1.151 6.138 1.066 7.33l-.02.293Z" fill="#feb546" fill-rule="evenodd" data-name="Path 39748"/></g></g></g></svg>