<svg xmlns="http://www.w3.org/2000/svg" width="35.698" height="31.375" viewBox="0 0 35.698 31.375">
  <g id="send" transform="translate(0 62.375) rotate(-90)">
    <path id="Path_38285" data-name="Path 38285" d="M62.152,33.207a1.046,1.046,0,0,0,.126-1.089L47.636.553a1.089,1.089,0,0,0-1.9,0L31.1,32.118a1.046,1.046,0,0,0,1.153,1.468l8.691-1.738L45.7,17.518a1.088,1.088,0,0,1,1.983,0l4.754,14.33,8.691,1.738A1.046,1.046,0,0,0,62.152,33.207Z" transform="translate(0)" fill="#fff"/>
    <path id="Path_38286" data-name="Path 38286" d="M206.277,317.974a1.042,1.042,0,0,0,.739-.306L210,314.68l-3.727-11.248L202.55,314.68l2.987,2.987A1.042,1.042,0,0,0,206.277,317.974Z" transform="translate(-159.589 -282.276)" fill="#fff"/>
  </g>
</svg>
