<svg id="share_1_" data-name="share (1)" xmlns="http://www.w3.org/2000/svg" width="22.362" height="24.395" viewBox="0 0 22.362 24.395">
  <path id="Path_38270" data-name="Path 38270" d="M321.275,19.3a3.3,3.3,0,1,1-3.3-3.3A3.3,3.3,0,0,1,321.275,19.3Zm0,0" transform="translate(-299.675 -15.238)"/>
  <path id="Path_38271" data-name="Path 38271" d="M302.734,8.132A4.066,4.066,0,1,1,306.8,4.066,4.07,4.07,0,0,1,302.734,8.132Zm0-6.607a2.541,2.541,0,1,0,2.541,2.541A2.544,2.544,0,0,0,302.734,1.525Zm0,0" transform="translate(-284.438)"/>
  <path id="Path_38272" data-name="Path 38272" d="M321.275,360.636a3.3,3.3,0,1,1-3.3-3.3A3.3,3.3,0,0,1,321.275,360.636Zm0,0" transform="translate(-299.675 -340.307)"/>
  <path id="Path_38273" data-name="Path 38273" d="M302.734,349.464A4.066,4.066,0,1,1,306.8,345.4,4.07,4.07,0,0,1,302.734,349.464Zm0-6.607a2.541,2.541,0,1,0,2.541,2.541A2.544,2.544,0,0,0,302.734,342.857Zm0,0" transform="translate(-284.438 -325.069)"/>
  <path id="Path_38274" data-name="Path 38274" d="M22.607,189.971a3.3,3.3,0,1,1-3.3-3.3A3.3,3.3,0,0,1,22.607,189.971Zm0,0" transform="translate(-15.238 -177.774)"/>
  <path id="Path_38275" data-name="Path 38275" d="M4.066,178.8a4.066,4.066,0,1,1,4.066-4.066A4.07,4.07,0,0,1,4.066,178.8Zm0-6.607a2.541,2.541,0,1,0,2.541,2.541A2.544,2.544,0,0,0,4.066,172.193Zm0,0" transform="translate(0 -162.536)"/>
  <path id="Path_38276" data-name="Path 38276" d="M115.366,97.626a1.017,1.017,0,0,1-.5-1.9l9.431-5.377a1.017,1.017,0,1,1,1.006,1.767l-9.432,5.377A1.01,1.01,0,0,1,115.366,97.626Zm0,0" transform="translate(-108.9 -85.916)"/>
  <path id="Path_38277" data-name="Path 38277" d="M124.818,273.63a1.01,1.01,0,0,1-.5-.133l-9.432-5.377a1.017,1.017,0,0,1,1.006-1.767l9.432,5.377a1.017,1.017,0,0,1-.5,1.9Zm0,0" transform="translate(-108.922 -253.535)"/>
</svg>
