<svg xmlns="http://www.w3.org/2000/svg" width="26.562" height="25.185" viewBox="788.254 630 26.562 25.185"><g data-name="14"><g data-name="16"><path d="m788.77 652.18.346-.77v-2.095c0-.702.224-1.386.64-1.951l2.263-3.076 2.586-1.724.658 5.852-.432 3.262-2.03 2.213-4.03-1.71Z" fill="#eab38b" fill-rule="evenodd" data-name="Path 39777"/><g data-name="Group 178545"><g data-name="Group 178540"><g data-name="Group 178539"><path d="M792.089 632.047v17.451c0 1.126.783 2.047 1.74 2.047h10.158c.957 0 1.74-.921 1.74-2.047v-17.451c0-1.126-.783-2.047-1.74-2.047h-10.158c-.957 0-1.74.92-1.74 2.047Z" fill="#6f7272" fill-rule="evenodd" data-name="Path 39778"/><path d="M804.088 631.937h-10.36v17.878l10.36-13.265v-4.613Z" fill="#97b6c4" fill-rule="evenodd" data-name="Path 39779"/><path d="M804.088 649.946V636.55l-10.36 13.265v.131h10.36Z" fill="#a7c6d1" fill-rule="evenodd" data-name="Path 39780"/></g><path d="M798.908 630.356a.67.67 0 1 1 0 1.34.67.67 0 0 1 0-1.34Z" fill="#d1d3d4" fill-rule="evenodd" data-name="Path 39781"/><path d="M798.908 650.014a.625.625 0 1 1 0 1.25.625.625 0 0 1 0-1.25Z" fill="#939598" fill-rule="evenodd" data-name="Path 39782"/></g><path d="M801.93 645.933h-5.943c-.918 0-1.671.47-1.671 1.046v1.278c0 .576.753 1.047 1.671 1.047h5.944c.92 0 1.671-.471 1.671-1.047v-1.278c0-.575-.752-1.046-1.671-1.046Z" fill="#ea5f21" fill-rule="evenodd" data-name="Path 39783"/><g data-name="Group 178543"><g data-name="Group 178541"><path d="M800.844 633.73h-6.475v12h9.04v-9.241l-2.565-2.759Z" fill="#fff" fill-rule="evenodd" data-name="Path 39784"/><path d="M800.844 636.489h2.564l-2.564-2.759v2.759Z" fill="#e6e7e8" fill-rule="evenodd" data-name="Path 39785"/><path d="M803.408 636.489h-2.564l2.564 2.759v-2.76Z" fill="#a7a9ac" fill-rule="evenodd" data-name="Path 39786"/><path d="M794.994 634.627h2.308v2.69h-2.308v-2.69z" fill="#fff" fill-rule="evenodd" data-name="Rectangle 163139"/></g><path d="M797.107 636.622a3.582 3.582 0 0 0-.11-.233 18.371 18.371 0 0 0-.442-.147l-.12-.038-.044-.138-.003.003v-.134a.17.17 0 0 0 .06-.097c.01-.033.005-.086.029-.113.02-.024.042-.033.057-.067a.42.42 0 0 0 .032-.19c-.001-.018-.01-.048-.031-.03-.01.007-.005.026-.015.033.008-.028.016-.058.018-.071.013-.073.01-.104.013-.135.011-.11.017-.213-.046-.305-.067-.098-.166-.155-.218-.148-.003 0-.04.004-.034.009-.02-.019-.053-.02-.076-.026-.124-.032-.28.051-.37.14-.097.093-.082.214-.071.33.003.04.003.085.013.123a.264.264 0 0 1 .01.063.024.024 0 0 0-.007-.014c-.022-.017-.03.013-.031.03a.42.42 0 0 0 .032.191c.015.034.036.043.057.067.023.027.02.08.028.113a.198.198 0 0 0 .027.061c.013.02.03.033.048.046v.125l-.004-.004-.044.138-.047.015-.019.006-.02.007-.035.01c-.169.056-.433.142-.44.147-.006.005-.07.143-.122.259a.187.187 0 0 0-.017.077v.59H797.13v-.584a.26.26 0 0 0-.023-.109Z" fill="#70868c" fill-rule="evenodd" data-name="Path 39787"/><g data-name="Group 178542"><path d="M797.624 635.098h2.99v.407h-2.99v-.407z" fill="#a7a9ac" fill-rule="evenodd" data-name="Rectangle 163140"/><path d="M797.624 635.878h2.99v.408h-2.99v-.408z" fill="#a7a9ac" fill-rule="evenodd" data-name="Rectangle 163141"/><path d="M797.624 636.659h2.99v.408h-2.99v-.408z" fill="#a7a9ac" fill-rule="evenodd" data-name="Rectangle 163142"/><path d="M794.935 638.353h7.682v.407h-7.682v-.407z" fill="#a7a9ac" fill-rule="evenodd" data-name="Rectangle 163143"/><path d="M794.935 639.527h7.682v.407h-7.682v-.407z" fill="#a7a9ac" fill-rule="evenodd" data-name="Rectangle 163144"/><path d="M794.935 640.7h7.682v.408h-7.682v-.407z" fill="#a7a9ac" fill-rule="evenodd" data-name="Rectangle 163145"/><path d="M794.935 641.875h7.682v.407h-7.682v-.407z" fill="#a7a9ac" fill-rule="evenodd" data-name="Rectangle 163146"/><path d="M794.935 643.049h7.682v.407h-7.682v-.407z" fill="#a7a9ac" fill-rule="evenodd" data-name="Rectangle 163147"/><path d="M794.935 644.223h7.682v.407h-7.682v-.407z" fill="#a7a9ac" fill-rule="evenodd" data-name="Rectangle 163148"/></g></g><g data-name="Group 178544"><path d="M795.576 648.312c.154.13.35.222.527.222.2 0 .298-.079.298-.206 0-.134-.121-.177-.308-.256l-.278-.117c-.22-.088-.429-.272-.429-.583 0-.354.314-.635.76-.635.245 0 .504.098.687.281l-.245.305c-.141-.108-.272-.17-.443-.17-.166 0-.271.072-.271.193 0 .13.14.177.324.252l.275.112c.259.104.422.277.422.579 0 .353-.294.66-.805.66-.279 0-.573-.104-.79-.307l.276-.33Z" fill="#0ac6b3" fill-rule="evenodd" data-name="Path 39788"/><path d="M797.26 646.776h1.335v.406h-.854v.429h.727v.403h-.727v.49h.887v.407h-1.368v-2.135Z" fill="#0ac6b3" fill-rule="evenodd" data-name="Path 39789"/><path d="M799.055 646.776h.494l.556 1.061.21.471h.013c-.02-.226-.059-.527-.059-.779v-.753h.459v2.135h-.495l-.556-1.064-.21-.465h-.013c.02.236.059.52.059.772v.757h-.458v-2.135Z" fill="#0ac6b3" fill-rule="evenodd" data-name="Path 39790"/><path d="M801.232 646.776h.603c.651 0 1.07.324 1.07 1.058 0 .733-.419 1.077-1.044 1.077h-.629v-2.135Zm.573 1.745c.364 0 .606-.177.606-.687 0-.511-.242-.668-.606-.668h-.091v1.355h.091Z" fill="#0ac6b3" fill-rule="evenodd" data-name="Path 39791"/></g></g><path d="M795.925 647.743v.02a.619.619 0 0 1-.133.365.762.762 0 0 1-.528.288H793.4l-.701 2.858.201 1.089.679-.137-1.924.817-1.406-1.679.862-4.626h1.588l1.766.294.205.034 1.018.17c.023.021.233.22.236.507Z" fill="#eab38b" fill-rule="evenodd" data-name="Path 39792"/><path d="m788.254 652.68.516-1.124 4.655 2.337-.761 1.293-4.41-2.506Z" fill="#0ac6b3" fill-rule="evenodd" data-name="Path 39793"/><path d="M795.925 647.743v.02l-.004.038a.658.658 0 0 1-.09.263 2.74 2.74 0 0 1-.468-.066c-.878-.283-.746-.796-.692-.932l1.018.17c.023.021.233.22.236.507Z" fill="#f2c4a5" fill-rule="evenodd" data-name="Path 39794"/></g><g data-name="Group 178546"><path d="M814.015 651.29c-.005.035-.084.103-.104.128l-.203.246c-.205.25-.082.292-.287.54-.425.516-.929.96-1.34 1.486-.374.477-.868.394-1.45.343-.953-.082-2.1.113-2.965-.35-.343-.184-.749-.365-1.052-.605-.254-.201-.454-.438-.744-.605-.275-.157-.918-.327-.516-.68.102-.09.287-.222.422-.251.251-.054.594.041.819.16.182.095.302.263.482.356.228.117.523.17.774.214-.455-.482-.88-.834-1.404-1.238l-1.245-1.023-1.773-1.46-.01-.008c-.112-.093-.24-.18-.343-.283a.256.256 0 0 1-.066-.149.317.317 0 0 1-.004-.045v-.006a.707.707 0 0 1 .515-.736.727.727 0 0 1 .094-.023l.006-.001c.04-.007.08-.01.118-.005a.262.262 0 0 1 .126.052c.065.051.126.104.19.156.404.334.805.67 1.209 1.005.275.228.543.473.83.686.256.191.666.501.835.505-.067-.047-.124-.17-.2-.232l-.241-.195c-.142-.115-.36-.247-.45-.41-.16-.29.115-.72.405-.807.304-.09.6.16.835.311.069.045.366.171.304.052-.118-.228-.44-.55-.474-.717-.065-.314.186-.6.478-.675.424-.11.853.341 1.143.587.002-.095-.21-.277-.224-.38a.6.6 0 0 1 .16-.445c.43-.46.93.107 1.296.353.66.444 1.272.955 1.827 1.525.265.273.557.561.776.873.192.276.23.639.452.898.182.215.458.387.674.566l.246.203c.034.028.083.05.079.085Z" fill="#eab38b" fill-rule="evenodd" data-name="Path 39795"/><path d="m814.01 650.673-3.103 3.659 1.128.707 2.781-3.583-.805-.783Z" fill="#0ac6b3" fill-rule="evenodd" data-name="Path 39796"/><path d="M804.178 648.207c-.14.231-.493.246-.784.033l-.243-.18a.709.709 0 0 1-.058-.047c-.001-.034 0-.07.002-.102a.708.708 0 0 1 .513-.634.732.732 0 0 1 .094-.023l.006-.001.194.143c.29.214.415.579.276.81Z" fill="#f2c4a5" fill-rule="evenodd" data-name="Path 39797"/></g></g></svg>