<svg xmlns="http://www.w3.org/2000/svg" width="41.066" height="46.031" viewBox="875.468 477.093 41.066 46.031"><g data-name="Group 178819"><path d="m890.033 480.922-3.828-3.829 3.017 5.237.811-1.408Z" fill="#052c44" fill-rule="evenodd" data-name="Path 40278"/><path d="M887.514 494.768h-3.784l2.605 2.609c.384-.13.777-.24 1.179-.317v-2.292Z" fill="#052c44" fill-rule="evenodd" data-name="Path 40279"/><path d="m916.533 490.65-13.555-13.557-8.358 14.503h.05V494.768h-3.946v2.269c4.257.727 7.512 4.435 7.512 8.9 0 4.983-4.051 9.037-9.036 9.037-2.34 0-4.468-.9-6.077-2.365l10.516 10.515h22.894V490.65Z" fill="#d5d8d8" fill-rule="evenodd" data-name="Path 40281"/><path d="M894.565 491.596h-3.524l-.027.05-.03-.05h-3.523l-.026.05-.031-.05h-3.522l-.03.05-.025-.05h-.097v1.586h10.939v-1.586h-.05l-.029.05-.025-.05Z" fill="#ff8a29" fill-rule="evenodd" data-name="Path 40282"/><path d="M883.73 493.181v1.587h3.784v2.292a9.009 9.009 0 0 1 1.686-.162c.52 0 1.028.053 1.524.139v-2.269h3.945v-1.587H883.73Z" fill="#d35500" fill-rule="evenodd" data-name="Path 40283"/><path d="M882.427 505.936c0 1.866.757 3.562 1.984 4.787l9.575-9.574a6.748 6.748 0 0 0-4.786-1.985 6.778 6.778 0 0 0-6.773 6.772Z" fill="#ff8a29" fill-rule="evenodd" data-name="Path 40284"/><path d="M889.2 512.71c3.733 0 6.77-3.04 6.77-6.774a6.754 6.754 0 0 0-1.984-4.787l-9.575 9.574a6.752 6.752 0 0 0 4.79 1.986Z" fill="#d35500" fill-rule="evenodd" data-name="Path 40285"/><path d="M890.724 497.037a8.92 8.92 0 0 0-1.524-.14c-.576 0-1.139.059-1.686.163a8.86 8.86 0 0 0-1.18.317c-3.578 1.2-6.173 4.578-6.173 8.56a9.004 9.004 0 0 0 2.963 6.672 8.996 8.996 0 0 0 6.076 2.365c4.985 0 9.036-4.054 9.036-9.038 0-4.464-3.255-8.172-7.512-8.9Zm-1.524 15.672c-1.87 0-3.562-.76-4.789-1.986a6.745 6.745 0 0 1-1.984-4.787 6.778 6.778 0 0 1 6.773-6.772c1.866 0 3.56.757 4.786 1.985a6.754 6.754 0 0 1 1.984 4.787c0 3.734-3.037 6.773-6.77 6.773Z" fill="#ffbb1c" fill-rule="evenodd" data-name="Path 40286"/><path d="m892.239 477.093-2.206 3.83-.81 1.407 1.79 3.105 4.807-8.342h-3.581Z" fill="#0b606e" fill-rule="evenodd" data-name="Path 40287"/><path d="m892.802 488.54 6.598-11.447h-3.58l-4.806 8.342 1.788 3.106Z" fill="#a3a3a3" fill-rule="evenodd" data-name="Path 40288"/><path d="m892.802 488.54 1.763 3.056h.054l8.36-14.503H899.4l-6.598 11.448Z" fill="#773000" fill-rule="evenodd" data-name="Path 40289"/><path d="m894.59 491.647.03-.051h-.055l.025.05Z" fill="#9e4000" fill-rule="evenodd" data-name="Path 40290"/><path d="M883.882 491.596h-.055l.025.05.03-.05Z" fill="#12aac2" fill-rule="evenodd" data-name="Path 40291"/><path d="m887.404 491.596-1.761-3.055-6.598-11.448h-3.577l8.359 14.503h3.577Z" fill="#12aac2" fill-rule="evenodd" data-name="Path 40292"/><path d="m887.435 491.646.026-.05h-.057l.03.05Z" fill="#e0230b" fill-rule="evenodd" data-name="Path 40293"/><path d="M887.404 491.596H890.983l-1.76-3.055-1.788-3.106-4.809-8.342h-3.58l6.597 11.448 1.761 3.055Z" fill="#eeefef" fill-rule="evenodd" data-name="Path 40294"/><path d="m891.014 491.646.027-.05h-.058l.03.05Z" fill="#d35500" fill-rule="evenodd" data-name="Path 40295"/><path d="m889.222 488.54 1.761 3.056h3.582l-1.763-3.055-1.788-3.106-1.792-3.105-3.017-5.237h-3.579l4.809 8.342 1.787 3.106Z" fill="#d35500" fill-rule="evenodd" data-name="Path 40296"/></g></svg>