<svg xmlns="http://www.w3.org/2000/svg" width="8.778" height="11.732"><g data-name="Group 178524"><path d="M7.318 5.38c-.4-2.428-1.693-4.346-3.17-4.958l-.065-.39-1.307.214C.79.574-.399 3.404.123 6.566c.521 3.164 2.555 5.462 4.541 5.135l1.307-.216-.064-.391C7.11 10.04 7.718 7.809 7.318 5.38Z" fill="#6b1c1c" fill-rule="evenodd" data-name="Path 39749"/><path d="M8.625 5.165c.521 3.163-.667 5.993-2.654 6.32-1.987.328-4.02-1.97-4.542-5.134C.91 3.188 2.096.358 4.083.031c1.987-.328 4.02 1.971 4.542 5.134Z" fill="#f74343" fill-rule="evenodd" data-name="Path 39750"/><path d="M2.033 6.15a3.018 4.804-9.36 1 1 .016.099z" fill="#fff" fill-rule="evenodd" data-name="Ellipse 766"/><path d="M7.55 5.387c.37 2.246-.473 4.256-1.885 4.489-1.41.232-2.855-1.4-3.225-3.647-.37-2.246.473-4.256 1.884-4.489 1.412-.232 2.856 1.4 3.226 3.647Z" fill="#f74343" fill-rule="evenodd" data-name="Path 39751"/><path d="M7.097 5.461c.304 1.848-.39 3.502-1.55 3.693-1.161.191-2.35-1.152-2.654-3-.305-1.848.39-3.5 1.55-3.692 1.161-.192 2.35 1.151 2.654 3Z" fill="#fff" fill-rule="evenodd" data-name="Path 39752"/><path d="M6.603 5.543c.233 1.413-.298 2.678-1.186 2.824-.888.147-1.797-.88-2.03-2.294-.233-1.414.298-2.678 1.186-2.825.888-.146 1.797.881 2.03 2.295Z" fill="#f74343" fill-rule="evenodd" data-name="Path 39753"/><path d="M6.112 5.624c.162.982-.207 1.86-.824 1.962-.617.102-1.248-.612-1.41-1.594-.162-.982.207-1.86.824-1.962.617-.102 1.248.612 1.41 1.594Z" fill="#fff" fill-rule="evenodd" data-name="Path 39754"/><path d="M5.608 5.707c.089.539-.114 1.021-.452 1.077-.339.055-.685-.336-.774-.875-.089-.539.113-1.02.452-1.077.339-.056.685.336.774.875Z" fill="#f74343" fill-rule="evenodd" data-name="Path 39755"/><path d="M5.274 5.8c.022.133-.028.252-.111.266-.084.014-.17-.083-.191-.216-.022-.133.028-.252.111-.266.084-.014.17.083.191.216Z" fill="#3b1010" fill-rule="evenodd" data-name="Path 39756"/><path d="M3.852 2.518c.022.133-.028.252-.112.266-.084.013-.169-.083-.191-.217-.022-.133.028-.252.112-.265.083-.014.169.083.19.216Z" fill="#3b1010" fill-rule="evenodd" data-name="Path 39757"/><path d="M3.838 7.638c-.014.134-.094.236-.178.227-.084-.009-.141-.125-.127-.259.014-.134.093-.236.178-.227.084.009.14.125.127.259Z" fill="#3b1010" fill-rule="evenodd" data-name="Path 39758"/></g></svg>